<mxfile host="Electron" modified="2024-03-12T16:46:05.305Z" agent="Mozilla/5.0 (X11; Linux x86_64) AppleWebKit/537.36 (KHTML, like Gecko) draw.io/23.0.2 Chrome/120.0.6099.291 Electron/28.2.6 Safari/537.36" etag="lZLEKgE7XM2-RjaZjEkL" version="23.0.2" type="device" pages="5">
  <diagram id="als9qfxF2jsvoTYBazCm" name="data path">
    <mxGraphModel dx="2962" dy="1915" grid="1" gridSize="10" guides="1" tooltips="1" connect="1" arrows="1" fold="1" page="1" pageScale="1" pageWidth="1169" pageHeight="827" math="0" shadow="0">
      <root>
        <mxCell id="0" />
        <mxCell id="1" parent="0" />
        <mxCell id="CCrO4iH39b96AHWArrl0-3" value="" style="rounded=0;whiteSpace=wrap;html=1;sketch=1;dashed=1;fillColor=#ffe6cc;strokeColor=#d79b00;opacity=10;" vertex="1" parent="1">
          <mxGeometry x="-440" y="-330" width="1940" height="730.37" as="geometry" />
        </mxCell>
        <mxCell id="q1FodN6zL91qWun3fkt1-196" value="" style="shape=trapezoid;perimeter=trapezoidPerimeter;whiteSpace=wrap;html=1;fixedSize=1;rotation=90;fillColor=#60a917;strokeColor=#2D7600;fontColor=#ffffff;shadow=0;sketch=1;strokeWidth=1;" parent="1" vertex="1">
          <mxGeometry x="931.25" y="-219.9699999999999" width="70" height="30" as="geometry" />
        </mxCell>
        <mxCell id="FnZ-Zj-p0E3Vs43XnBuA-95" value="" style="endArrow=none;html=1;strokeWidth=1;" parent="1" edge="1">
          <mxGeometry width="50" height="50" relative="1" as="geometry">
            <mxPoint x="-200" y="480" as="sourcePoint" />
            <mxPoint x="-200" y="480" as="targetPoint" />
          </mxGeometry>
        </mxCell>
        <mxCell id="ICuVS3A-tN1MuPOC8h6F-1" value="&lt;font size=&quot;1&quot; face=&quot;Comic Sans MS&quot;&gt;&lt;b style=&quot;font-size: 35px;&quot;&gt;&lt;i&gt;&lt;u&gt;Datapath multi-cycle processor&lt;/u&gt;&lt;/i&gt;&lt;/b&gt;&lt;/font&gt;" style="text;html=1;strokeColor=none;fillColor=none;align=center;verticalAlign=middle;whiteSpace=wrap;rounded=0;" parent="1" vertex="1">
          <mxGeometry x="271" y="-470" width="570" height="30" as="geometry" />
        </mxCell>
        <mxCell id="q1FodN6zL91qWun3fkt1-2" value="" style="rounded=0;whiteSpace=wrap;html=1;fillColor=#6a00ff;strokeColor=#3700CC;fontColor=#ffffff;sketch=1;strokeWidth=3;backgroundOutline=0;fillStyle=hachure;" parent="1" vertex="1">
          <mxGeometry x="-290" y="-110" width="40" height="80" as="geometry" />
        </mxCell>
        <mxCell id="q1FodN6zL91qWun3fkt1-3" value="" style="endArrow=none;html=1;sketch=1;" parent="1" edge="1">
          <mxGeometry width="50" height="50" relative="1" as="geometry">
            <mxPoint x="-270" y="-90" as="sourcePoint" />
            <mxPoint x="-260" y="-110" as="targetPoint" />
          </mxGeometry>
        </mxCell>
        <mxCell id="q1FodN6zL91qWun3fkt1-4" value="" style="endArrow=none;html=1;sketch=1;" parent="1" edge="1">
          <mxGeometry width="50" height="50" relative="1" as="geometry">
            <mxPoint x="-270" y="-90" as="sourcePoint" />
            <mxPoint x="-280" y="-110" as="targetPoint" />
          </mxGeometry>
        </mxCell>
        <mxCell id="q1FodN6zL91qWun3fkt1-5" value="" style="endArrow=none;html=1;sketch=1;" parent="1" edge="1">
          <mxGeometry width="50" height="50" relative="1" as="geometry">
            <mxPoint x="-280" y="-110" as="sourcePoint" />
            <mxPoint x="-260" y="-110" as="targetPoint" />
          </mxGeometry>
        </mxCell>
        <mxCell id="q1FodN6zL91qWun3fkt1-6" value="" style="endArrow=none;html=1;entryX=0;entryY=0;entryDx=0;entryDy=0;sketch=1;" parent="1" edge="1">
          <mxGeometry width="50" height="50" relative="1" as="geometry">
            <mxPoint x="-270" y="-110" as="sourcePoint" />
            <mxPoint x="-270" y="-140" as="targetPoint" />
          </mxGeometry>
        </mxCell>
        <mxCell id="q1FodN6zL91qWun3fkt1-7" value="" style="endArrow=none;html=1;exitX=1;exitY=0.5;exitDx=0;exitDy=0;endFill=0;strokeWidth=3;sketch=1;startFill=1;jumpSize=6;endSize=4;" parent="1" source="q1FodN6zL91qWun3fkt1-2" edge="1">
          <mxGeometry width="50" height="50" relative="1" as="geometry">
            <mxPoint x="-220" y="-70" as="sourcePoint" />
            <mxPoint x="-160" y="-70" as="targetPoint" />
            <Array as="points">
              <mxPoint x="-190" y="-70" />
              <mxPoint x="-160" y="-70" />
              <mxPoint x="-90" y="-70" />
            </Array>
          </mxGeometry>
        </mxCell>
        <mxCell id="q1FodN6zL91qWun3fkt1-8" value="" style="endArrow=none;html=1;entryX=0;entryY=0.5;entryDx=0;entryDy=0;strokeWidth=3;sketch=1;" parent="1" target="q1FodN6zL91qWun3fkt1-2" edge="1">
          <mxGeometry width="50" height="50" relative="1" as="geometry">
            <mxPoint x="-410" y="-70" as="sourcePoint" />
            <mxPoint x="-340" y="-70.17000000000002" as="targetPoint" />
          </mxGeometry>
        </mxCell>
        <mxCell id="q1FodN6zL91qWun3fkt1-9" value="&lt;font face=&quot;Comic Sans MS&quot; size=&quot;1&quot; color=&quot;#ffffff&quot;&gt;&lt;b style=&quot;font-size: 15px&quot;&gt;U_0&lt;/b&gt;&lt;/font&gt;" style="text;html=1;strokeColor=none;fillColor=none;align=center;verticalAlign=middle;whiteSpace=wrap;rounded=0;" parent="1" vertex="1">
          <mxGeometry x="-290" width="40" height="20" as="geometry" />
        </mxCell>
        <mxCell id="q1FodN6zL91qWun3fkt1-10" value="clk" style="text;html=1;strokeColor=none;fillColor=none;align=center;verticalAlign=middle;whiteSpace=wrap;rounded=0;fontFamily=Comic Sans MS;fontSize=13;fontStyle=2" parent="1" vertex="1">
          <mxGeometry x="-270" y="-140" width="20" height="20" as="geometry" />
        </mxCell>
        <mxCell id="q1FodN6zL91qWun3fkt1-11" value="" style="endArrow=none;html=1;entryX=0;entryY=0;entryDx=0;entryDy=0;sketch=1;" parent="1" edge="1">
          <mxGeometry width="50" height="50" relative="1" as="geometry">
            <mxPoint x="-270" y="-10" as="sourcePoint" />
            <mxPoint x="-270.48" y="-30" as="targetPoint" />
          </mxGeometry>
        </mxCell>
        <mxCell id="q1FodN6zL91qWun3fkt1-13" value="" style="endArrow=none;html=1;rounded=0;entryX=0.5;entryY=0;entryDx=0;entryDy=0;sketch=1;curveFitting=1;jiggle=2;" parent="1" edge="1">
          <mxGeometry width="50" height="50" relative="1" as="geometry">
            <mxPoint x="-330" y="-10" as="sourcePoint" />
            <mxPoint x="-270" y="-10" as="targetPoint" />
            <Array as="points">
              <mxPoint x="-300" y="-10" />
            </Array>
          </mxGeometry>
        </mxCell>
        <mxCell id="q1FodN6zL91qWun3fkt1-14" value="" style="endArrow=none;html=1;rounded=0;sketch=1;curveFitting=1;jiggle=2;" parent="1" edge="1">
          <mxGeometry width="50" height="50" relative="1" as="geometry">
            <mxPoint x="-330" y="-10" as="sourcePoint" />
            <mxPoint x="-330" y="-60" as="targetPoint" />
          </mxGeometry>
        </mxCell>
        <mxCell id="q1FodN6zL91qWun3fkt1-15" value="" style="endArrow=none;html=1;edgeStyle=orthogonalEdgeStyle;curved=1;strokeWidth=1;targetPerimeterSpacing=0;sketch=1;" parent="1" edge="1">
          <mxGeometry width="50" height="50" relative="1" as="geometry">
            <mxPoint x="-330" y="-80" as="sourcePoint" />
            <mxPoint x="-330" y="-60" as="targetPoint" />
            <Array as="points">
              <mxPoint x="-320" y="-80" />
              <mxPoint x="-320" y="-60" />
            </Array>
          </mxGeometry>
        </mxCell>
        <mxCell id="q1FodN6zL91qWun3fkt1-16" value="" style="endArrow=none;html=1;rounded=0;sketch=1;curveFitting=1;jiggle=2;" parent="1" edge="1">
          <mxGeometry width="50" height="50" relative="1" as="geometry">
            <mxPoint x="-330" y="-80" as="sourcePoint" />
            <mxPoint x="-330" y="-150" as="targetPoint" />
          </mxGeometry>
        </mxCell>
        <mxCell id="q1FodN6zL91qWun3fkt1-20" value="" style="shape=or;whiteSpace=wrap;html=1;rotation=-180;sketch=1;fillColor=#fa6800;strokeColor=#C73500;fontColor=#ffffff;strokeWidth=1;" parent="1" vertex="1">
          <mxGeometry x="-281" y="-260" width="40" height="40" as="geometry" />
        </mxCell>
        <mxCell id="q1FodN6zL91qWun3fkt1-22" value="" style="endArrow=none;html=1;sketch=1;exitX=0.175;exitY=0.25;exitDx=0;exitDy=0;exitPerimeter=0;" parent="1" source="q1FodN6zL91qWun3fkt1-28" edge="1">
          <mxGeometry width="50" height="50" relative="1" as="geometry">
            <mxPoint x="-320" y="-190" as="sourcePoint" />
            <mxPoint x="-320" y="-240" as="targetPoint" />
          </mxGeometry>
        </mxCell>
        <mxCell id="q1FodN6zL91qWun3fkt1-23" value="&lt;font face=&quot;Comic Sans MS&quot;&gt;pc_write&lt;/font&gt;" style="text;html=1;strokeColor=none;fillColor=none;align=center;verticalAlign=middle;whiteSpace=wrap;rounded=0;rotation=0;fontStyle=2" parent="1" vertex="1">
          <mxGeometry x="-334" y="-380" width="40" height="20" as="geometry" />
        </mxCell>
        <mxCell id="q1FodN6zL91qWun3fkt1-24" value="&lt;font face=&quot;Comic Sans MS&quot;&gt;&lt;i&gt;zero_f&lt;/i&gt;&lt;/font&gt;" style="text;html=1;strokeColor=none;fillColor=none;align=center;verticalAlign=middle;whiteSpace=wrap;rounded=0;rotation=0;" parent="1" vertex="1">
          <mxGeometry x="-240" y="-250" width="40" height="20" as="geometry" />
        </mxCell>
        <mxCell id="q1FodN6zL91qWun3fkt1-25" value="pc_en" style="text;html=1;strokeColor=none;fillColor=none;align=center;verticalAlign=middle;whiteSpace=wrap;rounded=0;rotation=90;fontFamily=Comic Sans MS;fontSize=13;fontStyle=2" parent="1" vertex="1">
          <mxGeometry x="-340" y="-130" width="40" height="20" as="geometry" />
        </mxCell>
        <mxCell id="q1FodN6zL91qWun3fkt1-28" value="" style="shape=xor;whiteSpace=wrap;html=1;rotation=90;fillColor=#fa6800;fontColor=#000000;strokeColor=#C73500;sketch=1;curveFitting=1;jiggle=2;" parent="1" vertex="1">
          <mxGeometry x="-350" y="-190" width="40" height="40" as="geometry" />
        </mxCell>
        <mxCell id="q1FodN6zL91qWun3fkt1-29" value="" style="endArrow=none;html=1;sketch=1;exitX=0.175;exitY=0.25;exitDx=0;exitDy=0;exitPerimeter=0;" parent="1" edge="1">
          <mxGeometry width="50" height="50" relative="1" as="geometry">
            <mxPoint x="-340" y="-183" as="sourcePoint" />
            <mxPoint x="-340" y="-360" as="targetPoint" />
          </mxGeometry>
        </mxCell>
        <mxCell id="q1FodN6zL91qWun3fkt1-30" value="" style="endArrow=none;html=1;rounded=0;entryX=1;entryY=0.5;entryDx=0;entryDy=0;entryPerimeter=0;sketch=1;curveFitting=1;jiggle=2;" parent="1" target="q1FodN6zL91qWun3fkt1-20" edge="1">
          <mxGeometry width="50" height="50" relative="1" as="geometry">
            <mxPoint x="-320" y="-240" as="sourcePoint" />
            <mxPoint x="-270" y="-290" as="targetPoint" />
          </mxGeometry>
        </mxCell>
        <mxCell id="q1FodN6zL91qWun3fkt1-31" value="" style="endArrow=none;html=1;rounded=0;sketch=1;curveFitting=1;jiggle=2;" parent="1" edge="1">
          <mxGeometry width="50" height="50" relative="1" as="geometry">
            <mxPoint x="-241" y="-250" as="sourcePoint" />
            <mxPoint x="-210" y="-250" as="targetPoint" />
          </mxGeometry>
        </mxCell>
        <mxCell id="q1FodN6zL91qWun3fkt1-32" value="" style="endArrow=none;html=1;rounded=0;sketch=1;curveFitting=1;jiggle=2;" parent="1" edge="1">
          <mxGeometry width="50" height="50" relative="1" as="geometry">
            <mxPoint x="-241" y="-230" as="sourcePoint" />
            <mxPoint x="-190" y="-230" as="targetPoint" />
          </mxGeometry>
        </mxCell>
        <mxCell id="q1FodN6zL91qWun3fkt1-33" value="" style="endArrow=none;html=1;rounded=0;sketch=1;curveFitting=1;jiggle=2;" parent="1" edge="1">
          <mxGeometry width="50" height="50" relative="1" as="geometry">
            <mxPoint x="-210" y="-250" as="sourcePoint" />
            <mxPoint x="-210" y="-360" as="targetPoint" />
          </mxGeometry>
        </mxCell>
        <mxCell id="q1FodN6zL91qWun3fkt1-34" value="&lt;font face=&quot;Comic Sans MS&quot;&gt;branch&lt;br&gt;&lt;/font&gt;" style="text;html=1;strokeColor=none;fillColor=none;align=center;verticalAlign=middle;whiteSpace=wrap;rounded=0;rotation=0;fontStyle=2" parent="1" vertex="1">
          <mxGeometry x="-212" y="-380" width="40" height="20" as="geometry" />
        </mxCell>
        <mxCell id="q1FodN6zL91qWun3fkt1-35" value="" style="shape=trapezoid;perimeter=trapezoidPerimeter;whiteSpace=wrap;html=1;fixedSize=1;rotation=90;fillColor=#60a917;strokeColor=#2D7600;fontColor=#ffffff;shadow=0;sketch=1;strokeWidth=1;" parent="1" vertex="1">
          <mxGeometry x="-110" y="-65.17000000000002" width="70" height="30" as="geometry" />
        </mxCell>
        <mxCell id="q1FodN6zL91qWun3fkt1-36" value="" style="endArrow=none;html=1;exitX=0.5;exitY=0;exitDx=0;exitDy=0;strokeWidth=3;sketch=1;" parent="1" source="q1FodN6zL91qWun3fkt1-35" edge="1">
          <mxGeometry width="50" height="50" relative="1" as="geometry">
            <mxPoint x="-10" y="-50" as="sourcePoint" />
            <mxPoint x="60" y="-50" as="targetPoint" />
          </mxGeometry>
        </mxCell>
        <mxCell id="q1FodN6zL91qWun3fkt1-38" value="" style="endArrow=none;html=1;strokeWidth=3;sketch=1;" parent="1" edge="1">
          <mxGeometry width="50" height="50" relative="1" as="geometry">
            <mxPoint x="-140" y="-30" as="sourcePoint" />
            <mxPoint x="-90" y="-30" as="targetPoint" />
          </mxGeometry>
        </mxCell>
        <mxCell id="q1FodN6zL91qWun3fkt1-39" value="&lt;font style=&quot;font-size: 15px&quot; face=&quot;Comic Sans MS&quot;&gt;A&lt;/font&gt;" style="text;html=1;strokeColor=none;fillColor=none;align=center;verticalAlign=middle;whiteSpace=wrap;rounded=0;" parent="1" vertex="1">
          <mxGeometry x="-90" y="-70" width="20" height="20" as="geometry" />
        </mxCell>
        <mxCell id="q1FodN6zL91qWun3fkt1-40" value="&lt;font style=&quot;font-size: 15px&quot; face=&quot;Comic Sans MS&quot;&gt;B&lt;/font&gt;" style="text;html=1;strokeColor=none;fillColor=none;align=center;verticalAlign=middle;whiteSpace=wrap;rounded=0;" parent="1" vertex="1">
          <mxGeometry x="-90" y="-50" width="20" height="20" as="geometry" />
        </mxCell>
        <mxCell id="q1FodN6zL91qWun3fkt1-41" value="&lt;font face=&quot;Comic Sans MS&quot;&gt;&lt;i&gt;addr_mem_data&lt;/i&gt;&lt;/font&gt;" style="text;html=1;strokeColor=none;fillColor=none;align=center;verticalAlign=middle;whiteSpace=wrap;rounded=0;" parent="1" vertex="1">
          <mxGeometry x="-50" y="-75.17000000000002" width="100" height="20" as="geometry" />
        </mxCell>
        <mxCell id="q1FodN6zL91qWun3fkt1-42" value="&lt;font style=&quot;font-size: 15px&quot; color=&quot;#ffffff&quot;&gt;&lt;b style=&quot;font-style: normal&quot;&gt;U_1&lt;/b&gt;&lt;/font&gt;" style="text;html=1;strokeColor=none;fillColor=none;align=center;verticalAlign=middle;whiteSpace=wrap;rounded=0;fontFamily=Comic Sans MS;fontSize=13;fontStyle=2" parent="1" vertex="1">
          <mxGeometry x="-90" y="-19.769999999999982" width="40" height="19.77" as="geometry" />
        </mxCell>
        <mxCell id="q1FodN6zL91qWun3fkt1-43" value="IorD" style="text;html=1;strokeColor=none;fillColor=none;align=center;verticalAlign=middle;whiteSpace=wrap;rounded=0;rotation=90;fontFamily=Comic Sans MS;fontSize=13;fontStyle=2" parent="1" vertex="1">
          <mxGeometry x="-80" y="-115.17000000000002" width="40" height="20" as="geometry" />
        </mxCell>
        <mxCell id="q1FodN6zL91qWun3fkt1-44" value="" style="endArrow=none;html=1;rounded=0;strokeWidth=3;sketch=1;curveFitting=1;jiggle=2;" parent="1" edge="1">
          <mxGeometry width="50" height="50" relative="1" as="geometry">
            <mxPoint x="-140" y="330" as="sourcePoint" />
            <mxPoint x="-140" y="-30" as="targetPoint" />
          </mxGeometry>
        </mxCell>
        <mxCell id="q1FodN6zL91qWun3fkt1-45" value="pc_value" style="text;html=1;strokeColor=none;fillColor=none;align=center;verticalAlign=middle;whiteSpace=wrap;rounded=0;fontFamily=Comic Sans MS;fontSize=13;fontStyle=2" parent="1" vertex="1">
          <mxGeometry x="-400" y="-95.17000000000002" width="60" height="20" as="geometry" />
        </mxCell>
        <mxCell id="q1FodN6zL91qWun3fkt1-46" value="crnt_addr" style="text;html=1;strokeColor=none;fillColor=none;align=center;verticalAlign=middle;whiteSpace=wrap;rounded=0;fontFamily=Comic Sans MS;fontSize=13;fontStyle=2" parent="1" vertex="1">
          <mxGeometry x="-240" y="-95.17000000000002" width="60" height="20" as="geometry" />
        </mxCell>
        <mxCell id="q1FodN6zL91qWun3fkt1-47" value="aluOut" style="text;html=1;strokeColor=none;fillColor=none;align=center;verticalAlign=middle;whiteSpace=wrap;rounded=0;fontFamily=Comic Sans MS;fontSize=13;fontStyle=2" parent="1" vertex="1">
          <mxGeometry x="-150" y="-55.170000000000016" width="60" height="20" as="geometry" />
        </mxCell>
        <mxCell id="q1FodN6zL91qWun3fkt1-48" value="" style="endArrow=none;html=1;rounded=0;strokeWidth=3;sketch=1;curveFitting=1;jiggle=2;" parent="1" edge="1">
          <mxGeometry width="50" height="50" relative="1" as="geometry">
            <mxPoint x="60" y="-50" as="sourcePoint" />
            <mxPoint x="60" y="-400" as="targetPoint" />
          </mxGeometry>
        </mxCell>
        <mxCell id="q1FodN6zL91qWun3fkt1-49" value="&lt;font face=&quot;Comic Sans MS&quot;&gt;&lt;i&gt;addr_mem_data [31:0]&lt;/i&gt;&lt;/font&gt;" style="text;html=1;strokeColor=none;fillColor=none;align=center;verticalAlign=middle;whiteSpace=wrap;rounded=0;" parent="1" vertex="1">
          <mxGeometry x="-67" y="-420" width="126" height="20" as="geometry" />
        </mxCell>
        <mxCell id="q1FodN6zL91qWun3fkt1-50" value="" style="endArrow=none;html=1;rounded=0;sketch=1;curveFitting=1;jiggle=2;" parent="1" edge="1">
          <mxGeometry width="50" height="50" relative="1" as="geometry">
            <mxPoint x="-70" y="-75.17000000000002" as="sourcePoint" />
            <mxPoint x="-70" y="-360" as="targetPoint" />
          </mxGeometry>
        </mxCell>
        <mxCell id="q1FodN6zL91qWun3fkt1-51" value="IorD" style="text;html=1;strokeColor=none;fillColor=none;align=center;verticalAlign=middle;whiteSpace=wrap;rounded=0;rotation=0;fontFamily=Comic Sans MS;fontSize=13;fontStyle=2" parent="1" vertex="1">
          <mxGeometry x="-70" y="-377" width="40" height="17" as="geometry" />
        </mxCell>
        <mxCell id="q1FodN6zL91qWun3fkt1-53" value="" style="rounded=0;whiteSpace=wrap;html=1;fillColor=#6a00ff;strokeColor=#3700CC;fontColor=#ffffff;sketch=1;strokeWidth=3;backgroundOutline=0;fillStyle=hachure;" parent="1" vertex="1">
          <mxGeometry x="169" y="-229.63" width="40" height="80" as="geometry" />
        </mxCell>
        <mxCell id="q1FodN6zL91qWun3fkt1-54" value="" style="endArrow=none;html=1;sketch=1;" parent="1" edge="1">
          <mxGeometry width="50" height="50" relative="1" as="geometry">
            <mxPoint x="189" y="-209.63" as="sourcePoint" />
            <mxPoint x="199" y="-229.63" as="targetPoint" />
          </mxGeometry>
        </mxCell>
        <mxCell id="q1FodN6zL91qWun3fkt1-55" value="" style="endArrow=none;html=1;sketch=1;" parent="1" edge="1">
          <mxGeometry width="50" height="50" relative="1" as="geometry">
            <mxPoint x="189" y="-209.63" as="sourcePoint" />
            <mxPoint x="179" y="-229.63" as="targetPoint" />
          </mxGeometry>
        </mxCell>
        <mxCell id="q1FodN6zL91qWun3fkt1-56" value="" style="endArrow=none;html=1;sketch=1;" parent="1" edge="1">
          <mxGeometry width="50" height="50" relative="1" as="geometry">
            <mxPoint x="179" y="-229.63" as="sourcePoint" />
            <mxPoint x="199" y="-229.63" as="targetPoint" />
          </mxGeometry>
        </mxCell>
        <mxCell id="q1FodN6zL91qWun3fkt1-57" value="" style="endArrow=none;html=1;entryX=0;entryY=0;entryDx=0;entryDy=0;sketch=1;" parent="1" edge="1">
          <mxGeometry width="50" height="50" relative="1" as="geometry">
            <mxPoint x="189" y="-229.63" as="sourcePoint" />
            <mxPoint x="189" y="-259.63" as="targetPoint" />
          </mxGeometry>
        </mxCell>
        <mxCell id="q1FodN6zL91qWun3fkt1-58" value="" style="endArrow=none;html=1;entryX=0;entryY=0.5;entryDx=0;entryDy=0;strokeWidth=3;sketch=1;startArrow=oval;startFill=1;" parent="1" target="q1FodN6zL91qWun3fkt1-53" edge="1">
          <mxGeometry width="50" height="50" relative="1" as="geometry">
            <mxPoint x="89" y="-189.63" as="sourcePoint" />
            <mxPoint x="119" y="-189.80000000000007" as="targetPoint" />
          </mxGeometry>
        </mxCell>
        <mxCell id="q1FodN6zL91qWun3fkt1-59" value="&lt;font face=&quot;Comic Sans MS&quot; size=&quot;1&quot; color=&quot;#ffffff&quot;&gt;&lt;b style=&quot;font-size: 15px&quot;&gt;U_2&lt;/b&gt;&lt;/font&gt;" style="text;html=1;strokeColor=none;fillColor=none;align=center;verticalAlign=middle;whiteSpace=wrap;rounded=0;" parent="1" vertex="1">
          <mxGeometry x="169" y="-119.63" width="40" height="20" as="geometry" />
        </mxCell>
        <mxCell id="q1FodN6zL91qWun3fkt1-60" value="clk" style="text;html=1;strokeColor=none;fillColor=none;align=center;verticalAlign=middle;whiteSpace=wrap;rounded=0;fontFamily=Comic Sans MS;fontSize=13;fontStyle=2" parent="1" vertex="1">
          <mxGeometry x="189" y="-259.63" width="20" height="20" as="geometry" />
        </mxCell>
        <mxCell id="q1FodN6zL91qWun3fkt1-61" value="" style="endArrow=none;html=1;entryX=0;entryY=0;entryDx=0;entryDy=0;sketch=1;" parent="1" edge="1">
          <mxGeometry width="50" height="50" relative="1" as="geometry">
            <mxPoint x="189" y="-129.63" as="sourcePoint" />
            <mxPoint x="188.51999999999998" y="-149.63" as="targetPoint" />
          </mxGeometry>
        </mxCell>
        <mxCell id="q1FodN6zL91qWun3fkt1-62" value="instr" style="text;html=1;strokeColor=none;fillColor=none;align=center;verticalAlign=middle;whiteSpace=wrap;rounded=0;fontFamily=Comic Sans MS;fontSize=13;fontStyle=2" parent="1" vertex="1">
          <mxGeometry x="208" y="-214.79999999999995" width="50" height="20" as="geometry" />
        </mxCell>
        <mxCell id="q1FodN6zL91qWun3fkt1-73" value="" style="endArrow=none;html=1;strokeWidth=3;sketch=1;" parent="1" edge="1">
          <mxGeometry width="50" height="50" relative="1" as="geometry">
            <mxPoint x="209" y="-189.63" as="sourcePoint" />
            <mxPoint x="459" y="-189.63" as="targetPoint" />
          </mxGeometry>
        </mxCell>
        <mxCell id="q1FodN6zL91qWun3fkt1-75" value="" style="endArrow=none;html=1;rounded=0;strokeWidth=3;endSize=6;sketch=1;curveFitting=1;jiggle=2;" parent="1" edge="1">
          <mxGeometry width="50" height="50" relative="1" as="geometry">
            <mxPoint x="89" y="0.37000000000000455" as="sourcePoint" />
            <mxPoint x="90" y="-399.63" as="targetPoint" />
          </mxGeometry>
        </mxCell>
        <mxCell id="q1FodN6zL91qWun3fkt1-76" value="" style="rounded=0;whiteSpace=wrap;html=1;fillColor=#6a00ff;strokeColor=#3700CC;fontColor=#ffffff;sketch=1;strokeWidth=3;backgroundOutline=0;fillStyle=hachure;" parent="1" vertex="1">
          <mxGeometry x="168" y="-39.629999999999995" width="40" height="80" as="geometry" />
        </mxCell>
        <mxCell id="q1FodN6zL91qWun3fkt1-77" value="" style="endArrow=none;html=1;sketch=1;" parent="1" edge="1">
          <mxGeometry width="50" height="50" relative="1" as="geometry">
            <mxPoint x="188" y="-19.629999999999995" as="sourcePoint" />
            <mxPoint x="198" y="-39.629999999999995" as="targetPoint" />
          </mxGeometry>
        </mxCell>
        <mxCell id="q1FodN6zL91qWun3fkt1-78" value="" style="endArrow=none;html=1;sketch=1;" parent="1" edge="1">
          <mxGeometry width="50" height="50" relative="1" as="geometry">
            <mxPoint x="188" y="-19.629999999999995" as="sourcePoint" />
            <mxPoint x="178" y="-39.629999999999995" as="targetPoint" />
          </mxGeometry>
        </mxCell>
        <mxCell id="q1FodN6zL91qWun3fkt1-79" value="" style="endArrow=none;html=1;sketch=1;" parent="1" edge="1">
          <mxGeometry width="50" height="50" relative="1" as="geometry">
            <mxPoint x="178" y="-39.629999999999995" as="sourcePoint" />
            <mxPoint x="198" y="-39.629999999999995" as="targetPoint" />
          </mxGeometry>
        </mxCell>
        <mxCell id="q1FodN6zL91qWun3fkt1-80" value="" style="endArrow=none;html=1;entryX=0;entryY=0;entryDx=0;entryDy=0;sketch=1;" parent="1" edge="1">
          <mxGeometry width="50" height="50" relative="1" as="geometry">
            <mxPoint x="188" y="-39.629999999999995" as="sourcePoint" />
            <mxPoint x="188" y="-69.63" as="targetPoint" />
          </mxGeometry>
        </mxCell>
        <mxCell id="q1FodN6zL91qWun3fkt1-81" value="&lt;font face=&quot;Comic Sans MS&quot; size=&quot;1&quot; color=&quot;#ffffff&quot;&gt;&lt;b style=&quot;font-size: 15px&quot;&gt;U_3&lt;/b&gt;&lt;/font&gt;" style="text;html=1;strokeColor=none;fillColor=none;align=center;verticalAlign=middle;whiteSpace=wrap;rounded=0;" parent="1" vertex="1">
          <mxGeometry x="169" y="40.370000000000005" width="40" height="20" as="geometry" />
        </mxCell>
        <mxCell id="q1FodN6zL91qWun3fkt1-82" value="clk" style="text;html=1;strokeColor=none;fillColor=none;align=center;verticalAlign=middle;whiteSpace=wrap;rounded=0;fontFamily=Comic Sans MS;fontSize=13;fontStyle=2" parent="1" vertex="1">
          <mxGeometry x="188" y="-69.63" width="20" height="20" as="geometry" />
        </mxCell>
        <mxCell id="q1FodN6zL91qWun3fkt1-84" value="data" style="text;html=1;strokeColor=none;fillColor=none;align=center;verticalAlign=middle;whiteSpace=wrap;rounded=0;fontFamily=Comic Sans MS;fontSize=13;fontStyle=2" parent="1" vertex="1">
          <mxGeometry x="218" y="-24.80000000000001" width="31" height="20" as="geometry" />
        </mxCell>
        <mxCell id="q1FodN6zL91qWun3fkt1-85" value="" style="endArrow=none;html=1;strokeWidth=3;sketch=1;entryX=0;entryY=0.75;entryDx=0;entryDy=0;" parent="1" target="q1FodN6zL91qWun3fkt1-149" edge="1">
          <mxGeometry width="50" height="50" relative="1" as="geometry">
            <mxPoint x="208" y="0.37000000000000455" as="sourcePoint" />
            <mxPoint x="309" y="0.37000000000000455" as="targetPoint" />
          </mxGeometry>
        </mxCell>
        <mxCell id="q1FodN6zL91qWun3fkt1-86" value="" style="endArrow=none;html=1;entryX=0;entryY=0.5;entryDx=0;entryDy=0;strokeWidth=3;sketch=1;" parent="1" edge="1">
          <mxGeometry width="50" height="50" relative="1" as="geometry">
            <mxPoint x="89" y="0.37000000000000455" as="sourcePoint" />
            <mxPoint x="168" y="0.37000000000000455" as="targetPoint" />
          </mxGeometry>
        </mxCell>
        <mxCell id="q1FodN6zL91qWun3fkt1-87" value="" style="endArrow=none;html=1;rounded=0;entryX=0.5;entryY=0;entryDx=0;entryDy=0;sketch=1;curveFitting=1;jiggle=2;" parent="1" edge="1">
          <mxGeometry width="50" height="50" relative="1" as="geometry">
            <mxPoint x="129" y="-130.25" as="sourcePoint" />
            <mxPoint x="189" y="-130.25" as="targetPoint" />
            <Array as="points">
              <mxPoint x="159" y="-130.25" />
            </Array>
          </mxGeometry>
        </mxCell>
        <mxCell id="q1FodN6zL91qWun3fkt1-88" value="" style="endArrow=none;html=1;rounded=0;sketch=1;curveFitting=1;jiggle=2;" parent="1" edge="1">
          <mxGeometry width="50" height="50" relative="1" as="geometry">
            <mxPoint x="129" y="-130.25" as="sourcePoint" />
            <mxPoint x="129" y="-180.25" as="targetPoint" />
          </mxGeometry>
        </mxCell>
        <mxCell id="q1FodN6zL91qWun3fkt1-89" value="" style="endArrow=none;html=1;edgeStyle=orthogonalEdgeStyle;curved=1;strokeWidth=1;targetPerimeterSpacing=0;sketch=1;" parent="1" edge="1">
          <mxGeometry width="50" height="50" relative="1" as="geometry">
            <mxPoint x="129" y="-200.25" as="sourcePoint" />
            <mxPoint x="129" y="-180.25" as="targetPoint" />
            <Array as="points">
              <mxPoint x="139" y="-200.25" />
              <mxPoint x="139" y="-180.25" />
            </Array>
          </mxGeometry>
        </mxCell>
        <mxCell id="q1FodN6zL91qWun3fkt1-90" value="" style="endArrow=none;html=1;rounded=0;sketch=1;curveFitting=1;jiggle=2;" parent="1" edge="1">
          <mxGeometry width="50" height="50" relative="1" as="geometry">
            <mxPoint x="129" y="-200.25" as="sourcePoint" />
            <mxPoint x="129" y="-349.63" as="targetPoint" />
          </mxGeometry>
        </mxCell>
        <mxCell id="q1FodN6zL91qWun3fkt1-92" value="&lt;font face=&quot;Comic Sans MS&quot;&gt;&lt;i&gt;mem_data [31:0]&lt;/i&gt;&lt;/font&gt;" style="text;html=1;strokeColor=none;fillColor=none;align=center;verticalAlign=middle;whiteSpace=wrap;rounded=0;" parent="1" vertex="1">
          <mxGeometry x="91" y="-420" width="96" height="20" as="geometry" />
        </mxCell>
        <mxCell id="q1FodN6zL91qWun3fkt1-93" value="&lt;font face=&quot;Comic Sans MS&quot;&gt;&lt;i&gt;iRWrite&lt;/i&gt;&lt;/font&gt;" style="text;html=1;strokeColor=none;fillColor=none;align=center;verticalAlign=middle;whiteSpace=wrap;rounded=0;" parent="1" vertex="1">
          <mxGeometry x="128" y="-366" width="45" height="16.37" as="geometry" />
        </mxCell>
        <mxCell id="q1FodN6zL91qWun3fkt1-94" value="" style="rounded=0;whiteSpace=wrap;html=1;shadow=0;glass=0;sketch=1;strokeWidth=1;fillColor=#0050ef;fontFamily=Comic Sans MS;fontSize=13;strokeColor=#001DBC;fontColor=#ffffff;" parent="1" vertex="1">
          <mxGeometry x="588" y="-229.63" width="120" height="240" as="geometry" />
        </mxCell>
        <mxCell id="q1FodN6zL91qWun3fkt1-95" value="&lt;font style=&quot;font-size: 15px&quot; face=&quot;Comic Sans MS&quot; color=&quot;#ffffff&quot;&gt;&lt;b&gt;U_7&lt;/b&gt;&lt;/font&gt;" style="text;html=1;strokeColor=none;fillColor=none;align=center;verticalAlign=middle;whiteSpace=wrap;rounded=0;" parent="1" vertex="1">
          <mxGeometry x="625.5" y="15.199999999999989" width="50" height="20" as="geometry" />
        </mxCell>
        <mxCell id="q1FodN6zL91qWun3fkt1-96" value="" style="endArrow=none;html=1;sketch=1;" parent="1" edge="1">
          <mxGeometry width="50" height="50" relative="1" as="geometry">
            <mxPoint x="618" y="-209.6300000000001" as="sourcePoint" />
            <mxPoint x="628" y="-229.63" as="targetPoint" />
          </mxGeometry>
        </mxCell>
        <mxCell id="q1FodN6zL91qWun3fkt1-97" value="" style="endArrow=none;html=1;sketch=1;" parent="1" edge="1">
          <mxGeometry width="50" height="50" relative="1" as="geometry">
            <mxPoint x="618" y="-209.6300000000001" as="sourcePoint" />
            <mxPoint x="608" y="-229.63" as="targetPoint" />
          </mxGeometry>
        </mxCell>
        <mxCell id="q1FodN6zL91qWun3fkt1-98" value="" style="endArrow=none;html=1;sketch=1;" parent="1" edge="1">
          <mxGeometry width="50" height="50" relative="1" as="geometry">
            <mxPoint x="608" y="-229.63" as="sourcePoint" />
            <mxPoint x="628" y="-229.63" as="targetPoint" />
          </mxGeometry>
        </mxCell>
        <mxCell id="q1FodN6zL91qWun3fkt1-99" value="" style="endArrow=none;html=1;entryX=0;entryY=0;entryDx=0;entryDy=0;sketch=1;" parent="1" edge="1">
          <mxGeometry width="50" height="50" relative="1" as="geometry">
            <mxPoint x="618" y="-229.63" as="sourcePoint" />
            <mxPoint x="618" y="-259.63" as="targetPoint" />
          </mxGeometry>
        </mxCell>
        <mxCell id="q1FodN6zL91qWun3fkt1-100" value="clk" style="text;html=1;strokeColor=none;fillColor=none;align=center;verticalAlign=middle;whiteSpace=wrap;rounded=0;fontFamily=Comic Sans MS;fontSize=13;fontStyle=2" parent="1" vertex="1">
          <mxGeometry x="618" y="-259.63" width="20" height="20" as="geometry" />
        </mxCell>
        <mxCell id="q1FodN6zL91qWun3fkt1-101" value="&lt;font style=&quot;font-size: 15px ; font-style: normal&quot;&gt;A1&lt;/font&gt;" style="text;html=1;strokeColor=none;fillColor=none;align=center;verticalAlign=middle;whiteSpace=wrap;rounded=0;fontFamily=Comic Sans MS;fontSize=13;fontStyle=2" parent="1" vertex="1">
          <mxGeometry x="588" y="-204.80000000000007" width="40" height="30" as="geometry" />
        </mxCell>
        <mxCell id="q1FodN6zL91qWun3fkt1-102" value="&lt;font style=&quot;font-size: 15px ; font-style: normal&quot;&gt;A2&lt;/font&gt;" style="text;html=1;strokeColor=none;fillColor=none;align=center;verticalAlign=middle;whiteSpace=wrap;rounded=0;fontFamily=Comic Sans MS;fontSize=13;fontStyle=2" parent="1" vertex="1">
          <mxGeometry x="588" y="-164.6300000000001" width="40" height="30" as="geometry" />
        </mxCell>
        <mxCell id="q1FodN6zL91qWun3fkt1-103" value="&lt;font style=&quot;font-size: 15px ; font-style: normal&quot;&gt;A3&lt;/font&gt;" style="text;html=1;strokeColor=none;fillColor=none;align=center;verticalAlign=middle;whiteSpace=wrap;rounded=0;fontFamily=Comic Sans MS;fontSize=13;fontStyle=2" parent="1" vertex="1">
          <mxGeometry x="588" y="-124.63000000000011" width="40" height="30" as="geometry" />
        </mxCell>
        <mxCell id="q1FodN6zL91qWun3fkt1-104" value="&lt;font style=&quot;font-size: 15px ; font-style: normal&quot;&gt;WD3&lt;/font&gt;" style="text;html=1;strokeColor=none;fillColor=none;align=center;verticalAlign=middle;whiteSpace=wrap;rounded=0;fontFamily=Comic Sans MS;fontSize=13;fontStyle=2" parent="1" vertex="1">
          <mxGeometry x="588" y="-29.45999999999998" width="50" height="30" as="geometry" />
        </mxCell>
        <mxCell id="q1FodN6zL91qWun3fkt1-105" value="&lt;font style=&quot;font-size: 15px ; font-style: normal&quot;&gt;RD1&lt;/font&gt;" style="text;html=1;strokeColor=none;fillColor=none;align=center;verticalAlign=middle;whiteSpace=wrap;rounded=0;fontFamily=Comic Sans MS;fontSize=13;fontStyle=2" parent="1" vertex="1">
          <mxGeometry x="658" y="-204.80000000000007" width="50" height="30" as="geometry" />
        </mxCell>
        <mxCell id="q1FodN6zL91qWun3fkt1-106" value="&lt;font style=&quot;font-size: 15px ; font-style: normal&quot;&gt;RD2&lt;/font&gt;" style="text;html=1;strokeColor=none;fillColor=none;align=center;verticalAlign=middle;whiteSpace=wrap;rounded=0;fontFamily=Comic Sans MS;fontSize=13;fontStyle=2" parent="1" vertex="1">
          <mxGeometry x="658" y="-164.6300000000001" width="50" height="30" as="geometry" />
        </mxCell>
        <mxCell id="q1FodN6zL91qWun3fkt1-107" value="" style="endArrow=none;html=1;entryX=0;entryY=0.5;entryDx=0;entryDy=0;strokeWidth=2;sketch=1;endFill=0;startArrow=oval;startFill=1;" parent="1" target="q1FodN6zL91qWun3fkt1-101" edge="1">
          <mxGeometry width="50" height="50" relative="1" as="geometry">
            <mxPoint x="459" y="-189.46000000000004" as="sourcePoint" />
            <mxPoint x="553" y="-187.42000000000007" as="targetPoint" />
          </mxGeometry>
        </mxCell>
        <mxCell id="q1FodN6zL91qWun3fkt1-108" value="" style="endArrow=none;html=1;entryX=0;entryY=0.25;entryDx=0;entryDy=0;strokeWidth=2;sketch=1;startArrow=oval;startFill=1;" parent="1" edge="1">
          <mxGeometry width="50" height="50" relative="1" as="geometry">
            <mxPoint x="459" y="-150.46000000000004" as="sourcePoint" />
            <mxPoint x="588" y="-150.02999999999997" as="targetPoint" />
          </mxGeometry>
        </mxCell>
        <mxCell id="q1FodN6zL91qWun3fkt1-110" value="" style="endArrow=none;html=1;entryX=0;entryY=0.25;entryDx=0;entryDy=0;strokeWidth=3;sketch=1;" parent="1" edge="1">
          <mxGeometry width="50" height="50" relative="1" as="geometry">
            <mxPoint x="469" y="-14" as="sourcePoint" />
            <mxPoint x="588" y="-14.45999999999998" as="targetPoint" />
          </mxGeometry>
        </mxCell>
        <mxCell id="q1FodN6zL91qWun3fkt1-112" value="instr[25:21]" style="text;html=1;strokeColor=none;fillColor=none;align=center;verticalAlign=middle;whiteSpace=wrap;rounded=0;fontFamily=Comic Sans MS;fontSize=13;fontStyle=2" parent="1" vertex="1">
          <mxGeometry x="505.25" y="-214.79999999999995" width="70" height="20" as="geometry" />
        </mxCell>
        <mxCell id="q1FodN6zL91qWun3fkt1-113" value="instr[20:16]" style="text;html=1;strokeColor=none;fillColor=none;align=center;verticalAlign=middle;whiteSpace=wrap;rounded=0;fontFamily=Comic Sans MS;fontSize=13;fontStyle=2" parent="1" vertex="1">
          <mxGeometry x="506.25" y="-174.80000000000007" width="70" height="20" as="geometry" />
        </mxCell>
        <mxCell id="q1FodN6zL91qWun3fkt1-118" value="adderg3" style="text;html=1;strokeColor=none;fillColor=none;align=center;verticalAlign=middle;whiteSpace=wrap;rounded=0;fontFamily=Comic Sans MS;fontSize=13;fontStyle=2" parent="1" vertex="1">
          <mxGeometry x="509" y="-129.63000000000005" width="70" height="20" as="geometry" />
        </mxCell>
        <mxCell id="q1FodN6zL91qWun3fkt1-131" value="" style="shape=trapezoid;perimeter=trapezoidPerimeter;whiteSpace=wrap;html=1;fixedSize=1;rotation=90;fillColor=#60a917;strokeColor=#2D7600;fontColor=#ffffff;shadow=0;sketch=1;strokeWidth=1;" parent="1" vertex="1">
          <mxGeometry x="325.13" y="-124.79999999999995" width="70" height="30" as="geometry" />
        </mxCell>
        <mxCell id="q1FodN6zL91qWun3fkt1-132" value="" style="endArrow=none;html=1;strokeWidth=2;sketch=1;entryX=0;entryY=0.5;entryDx=0;entryDy=0;" parent="1" target="q1FodN6zL91qWun3fkt1-103" edge="1">
          <mxGeometry width="50" height="50" relative="1" as="geometry">
            <mxPoint x="470" y="-110" as="sourcePoint" />
            <mxPoint x="521.25" y="-109.63" as="targetPoint" />
          </mxGeometry>
        </mxCell>
        <mxCell id="q1FodN6zL91qWun3fkt1-133" value="" style="endArrow=none;html=1;strokeWidth=2;sketch=1;" parent="1" edge="1">
          <mxGeometry width="50" height="50" relative="1" as="geometry">
            <mxPoint x="252.88" y="-89.63" as="sourcePoint" />
            <mxPoint x="345.1300000000001" y="-89.63" as="targetPoint" />
          </mxGeometry>
        </mxCell>
        <mxCell id="q1FodN6zL91qWun3fkt1-134" value="&lt;font style=&quot;font-size: 15px&quot; face=&quot;Comic Sans MS&quot;&gt;A&lt;/font&gt;" style="text;html=1;strokeColor=none;fillColor=none;align=center;verticalAlign=middle;whiteSpace=wrap;rounded=0;" parent="1" vertex="1">
          <mxGeometry x="345.1300000000001" y="-129.63" width="20" height="20" as="geometry" />
        </mxCell>
        <mxCell id="q1FodN6zL91qWun3fkt1-135" value="&lt;font style=&quot;font-size: 15px&quot; face=&quot;Comic Sans MS&quot;&gt;B&lt;/font&gt;" style="text;html=1;strokeColor=none;fillColor=none;align=center;verticalAlign=middle;whiteSpace=wrap;rounded=0;" parent="1" vertex="1">
          <mxGeometry x="345.1300000000001" y="-109.63" width="20" height="20" as="geometry" />
        </mxCell>
        <mxCell id="q1FodN6zL91qWun3fkt1-137" value="&lt;font style=&quot;font-size: 15px&quot; color=&quot;#ffffff&quot;&gt;&lt;b style=&quot;font-style: normal&quot;&gt;U_5&lt;/b&gt;&lt;/font&gt;" style="text;html=1;strokeColor=none;fillColor=none;align=center;verticalAlign=middle;whiteSpace=wrap;rounded=0;fontFamily=Comic Sans MS;fontSize=13;fontStyle=2" parent="1" vertex="1">
          <mxGeometry x="345.1300000000001" y="-79.39999999999998" width="40" height="19.77" as="geometry" />
        </mxCell>
        <mxCell id="q1FodN6zL91qWun3fkt1-138" value="regDst" style="text;html=1;strokeColor=none;fillColor=none;align=center;verticalAlign=middle;whiteSpace=wrap;rounded=0;rotation=90;fontFamily=Comic Sans MS;fontSize=13;fontStyle=2" parent="1" vertex="1">
          <mxGeometry x="355.1300000000001" y="-169.63" width="40" height="20" as="geometry" />
        </mxCell>
        <mxCell id="q1FodN6zL91qWun3fkt1-140" value="" style="endArrow=none;html=1;rounded=0;sketch=1;curveFitting=1;jiggle=2;" parent="1" edge="1">
          <mxGeometry width="50" height="50" relative="1" as="geometry">
            <mxPoint x="363" y="-201" as="sourcePoint" />
            <mxPoint x="362.8800000000001" y="-349.63" as="targetPoint" />
          </mxGeometry>
        </mxCell>
        <mxCell id="q1FodN6zL91qWun3fkt1-141" value="instr[15:11]" style="text;html=1;strokeColor=none;fillColor=none;align=center;verticalAlign=middle;whiteSpace=wrap;rounded=0;fontFamily=Comic Sans MS;fontSize=13;fontStyle=2" parent="1" vertex="1">
          <mxGeometry x="262.88" y="-114.63000000000005" width="70" height="20" as="geometry" />
        </mxCell>
        <mxCell id="q1FodN6zL91qWun3fkt1-142" value="" style="endArrow=none;html=1;strokeWidth=2;sketch=1;endFill=0;startArrow=oval;startFill=1;" parent="1" edge="1">
          <mxGeometry width="50" height="50" relative="1" as="geometry">
            <mxPoint x="252.88" y="-124.63" as="sourcePoint" />
            <mxPoint x="342.8800000000001" y="-124.63" as="targetPoint" />
          </mxGeometry>
        </mxCell>
        <mxCell id="q1FodN6zL91qWun3fkt1-143" value="instr[20:16]" style="text;html=1;strokeColor=none;fillColor=none;align=center;verticalAlign=middle;whiteSpace=wrap;rounded=0;fontFamily=Comic Sans MS;fontSize=13;fontStyle=2" parent="1" vertex="1">
          <mxGeometry x="262.88" y="-149.63" width="70" height="20" as="geometry" />
        </mxCell>
        <mxCell id="q1FodN6zL91qWun3fkt1-144" value="" style="endArrow=oval;html=1;rounded=0;sketch=1;curveFitting=1;jiggle=2;strokeWidth=3;startArrow=none;startFill=0;endFill=1;" parent="1" edge="1">
          <mxGeometry width="50" height="50" relative="1" as="geometry">
            <mxPoint x="252.88" y="-89.63" as="sourcePoint" />
            <mxPoint x="252.88" y="-189.63" as="targetPoint" />
          </mxGeometry>
        </mxCell>
        <mxCell id="q1FodN6zL91qWun3fkt1-145" value="regDst" style="text;html=1;strokeColor=none;fillColor=none;align=center;verticalAlign=middle;whiteSpace=wrap;rounded=0;rotation=0;fontFamily=Comic Sans MS;fontSize=13;fontStyle=2" parent="1" vertex="1">
          <mxGeometry x="365.1300000000001" y="-369.63" width="40" height="20" as="geometry" />
        </mxCell>
        <mxCell id="q1FodN6zL91qWun3fkt1-146" value="" style="endArrow=none;html=1;rounded=0;strokeWidth=3;sketch=1;curveFitting=1;jiggle=2;" parent="1" edge="1">
          <mxGeometry width="50" height="50" relative="1" as="geometry">
            <mxPoint x="459" y="120" as="sourcePoint" />
            <mxPoint x="459" y="-189.63" as="targetPoint" />
          </mxGeometry>
        </mxCell>
        <mxCell id="q1FodN6zL91qWun3fkt1-147" value="" style="shape=trapezoid;perimeter=trapezoidPerimeter;whiteSpace=wrap;html=1;fixedSize=1;rotation=90;fillColor=#60a917;strokeColor=#2D7600;fontColor=#ffffff;shadow=0;sketch=1;strokeWidth=1;" parent="1" vertex="1">
          <mxGeometry x="385.1300000000001" y="-29.62999999999994" width="70" height="30" as="geometry" />
        </mxCell>
        <mxCell id="q1FodN6zL91qWun3fkt1-148" value="&lt;font style=&quot;font-size: 15px&quot; face=&quot;Comic Sans MS&quot;&gt;A&lt;/font&gt;" style="text;html=1;strokeColor=none;fillColor=none;align=center;verticalAlign=middle;whiteSpace=wrap;rounded=0;" parent="1" vertex="1">
          <mxGeometry x="405.1300000000001" y="-34.45999999999998" width="20" height="20" as="geometry" />
        </mxCell>
        <mxCell id="q1FodN6zL91qWun3fkt1-149" value="&lt;font style=&quot;font-size: 15px&quot; face=&quot;Comic Sans MS&quot;&gt;B&lt;/font&gt;" style="text;html=1;strokeColor=none;fillColor=none;align=center;verticalAlign=middle;whiteSpace=wrap;rounded=0;" parent="1" vertex="1">
          <mxGeometry x="405.1300000000001" y="-14.45999999999998" width="20" height="20" as="geometry" />
        </mxCell>
        <mxCell id="q1FodN6zL91qWun3fkt1-150" value="&lt;font style=&quot;font-size: 15px&quot; color=&quot;#ffffff&quot;&gt;&lt;b style=&quot;font-style: normal&quot;&gt;U_6&lt;/b&gt;&lt;/font&gt;" style="text;html=1;strokeColor=none;fillColor=none;align=center;verticalAlign=middle;whiteSpace=wrap;rounded=0;fontFamily=Comic Sans MS;fontSize=13;fontStyle=2" parent="1" vertex="1">
          <mxGeometry x="405.1300000000001" y="15.770000000000039" width="40" height="19.77" as="geometry" />
        </mxCell>
        <mxCell id="q1FodN6zL91qWun3fkt1-151" value="memToReg" style="text;html=1;strokeColor=none;fillColor=none;align=center;verticalAlign=middle;whiteSpace=wrap;rounded=0;rotation=0;fontFamily=Comic Sans MS;fontSize=13;fontStyle=2" parent="1" vertex="1">
          <mxGeometry x="429.6300000000001" y="-369.63" width="66.25" height="20" as="geometry" />
        </mxCell>
        <mxCell id="q1FodN6zL91qWun3fkt1-152" value="wrdata3" style="text;html=1;strokeColor=none;fillColor=none;align=center;verticalAlign=middle;whiteSpace=wrap;rounded=0;fontFamily=Comic Sans MS;fontSize=13;fontStyle=2" parent="1" vertex="1">
          <mxGeometry x="509" y="-39.63000000000005" width="70" height="20" as="geometry" />
        </mxCell>
        <mxCell id="q1FodN6zL91qWun3fkt1-153" value="" style="endArrow=none;html=1;rounded=0;sketch=1;curveFitting=1;jiggle=2;" parent="1" edge="1">
          <mxGeometry width="50" height="50" relative="1" as="geometry">
            <mxPoint x="424" y="-199" as="sourcePoint" />
            <mxPoint x="423.8800000000001" y="-349.63" as="targetPoint" />
          </mxGeometry>
        </mxCell>
        <mxCell id="q1FodN6zL91qWun3fkt1-154" value="" style="endArrow=none;html=1;rounded=0;entryX=0;entryY=0.25;entryDx=0;entryDy=0;strokeWidth=3;sketch=1;curveFitting=1;jiggle=2;" parent="1" target="q1FodN6zL91qWun3fkt1-148" edge="1">
          <mxGeometry width="50" height="50" relative="1" as="geometry">
            <mxPoint x="349" y="-29.629999999999995" as="sourcePoint" />
            <mxPoint x="339" y="-59.629999999999995" as="targetPoint" />
          </mxGeometry>
        </mxCell>
        <mxCell id="q1FodN6zL91qWun3fkt1-155" value="" style="endArrow=none;html=1;rounded=0;strokeWidth=3;sketch=1;curveFitting=1;jiggle=2;" parent="1" edge="1">
          <mxGeometry width="50" height="50" relative="1" as="geometry">
            <mxPoint x="350" y="330" as="sourcePoint" />
            <mxPoint x="349" y="-29.629999999999995" as="targetPoint" />
          </mxGeometry>
        </mxCell>
        <mxCell id="q1FodN6zL91qWun3fkt1-157" value="memToReg" style="text;html=1;strokeColor=none;fillColor=none;align=center;verticalAlign=middle;whiteSpace=wrap;rounded=0;rotation=90;fontFamily=Comic Sans MS;fontSize=13;fontStyle=2" parent="1" vertex="1">
          <mxGeometry x="402.75" y="-79.39999999999998" width="66.25" height="20" as="geometry" />
        </mxCell>
        <mxCell id="q1FodN6zL91qWun3fkt1-158" value="data" style="text;html=1;strokeColor=none;fillColor=none;align=center;verticalAlign=middle;whiteSpace=wrap;rounded=0;fontFamily=Comic Sans MS;fontSize=13;fontStyle=2" parent="1" vertex="1">
          <mxGeometry x="362.75" y="-24.460000000000036" width="31" height="20" as="geometry" />
        </mxCell>
        <mxCell id="q1FodN6zL91qWun3fkt1-159" value="aluOut" style="text;html=1;strokeColor=none;fillColor=none;align=center;verticalAlign=middle;whiteSpace=wrap;rounded=0;fontFamily=Comic Sans MS;fontSize=13;fontStyle=2" parent="1" vertex="1">
          <mxGeometry x="359.6300000000001" y="-49.629999999999995" width="31" height="20" as="geometry" />
        </mxCell>
        <mxCell id="q1FodN6zL91qWun3fkt1-160" value="" style="endArrow=none;html=1;sketch=1;rounded=0;" parent="1" edge="1">
          <mxGeometry width="50" height="50" relative="1" as="geometry">
            <mxPoint x="676.5" y="-229.63" as="sourcePoint" />
            <mxPoint x="736.5" y="-349.63" as="targetPoint" />
            <Array as="points">
              <mxPoint x="676.5" y="-349.63" />
            </Array>
          </mxGeometry>
        </mxCell>
        <mxCell id="q1FodN6zL91qWun3fkt1-161" value="regWrite" style="text;html=1;strokeColor=none;fillColor=none;align=center;verticalAlign=middle;whiteSpace=wrap;rounded=0;rotation=0;fontStyle=2;fontFamily=Comic Sans MS;fontSize=13;" parent="1" vertex="1">
          <mxGeometry x="675.5" y="-369.6299999999999" width="50" height="20" as="geometry" />
        </mxCell>
        <mxCell id="q1FodN6zL91qWun3fkt1-163" value="" style="endArrow=none;html=1;strokeWidth=3;sketch=1;startArrow=none;startFill=0;" parent="1" edge="1">
          <mxGeometry width="50" height="50" relative="1" as="geometry">
            <mxPoint x="708" y="-150.06000000000006" as="sourcePoint" />
            <mxPoint x="769" y="-149.63" as="targetPoint" />
          </mxGeometry>
        </mxCell>
        <mxCell id="q1FodN6zL91qWun3fkt1-164" value="" style="endArrow=none;html=1;entryX=0;entryY=0.5;entryDx=0;entryDy=0;strokeWidth=3;sketch=1;startArrow=none;startFill=0;" parent="1" target="q1FodN6zL91qWun3fkt1-168" edge="1">
          <mxGeometry width="50" height="50" relative="1" as="geometry">
            <mxPoint x="708" y="-189.63" as="sourcePoint" />
            <mxPoint x="837" y="-189.19999999999993" as="targetPoint" />
          </mxGeometry>
        </mxCell>
        <mxCell id="q1FodN6zL91qWun3fkt1-165" value="rdreg1" style="text;html=1;strokeColor=none;fillColor=none;align=center;verticalAlign=middle;whiteSpace=wrap;rounded=0;fontFamily=Comic Sans MS;fontSize=13;fontStyle=2" parent="1" vertex="1">
          <mxGeometry x="719" y="-214.79999999999995" width="40" height="20" as="geometry" />
        </mxCell>
        <mxCell id="q1FodN6zL91qWun3fkt1-167" value="rdreg2" style="text;html=1;strokeColor=none;fillColor=none;align=center;verticalAlign=middle;whiteSpace=wrap;rounded=0;fontFamily=Comic Sans MS;fontSize=13;fontStyle=2" parent="1" vertex="1">
          <mxGeometry x="719" y="-174.80000000000007" width="40" height="20" as="geometry" />
        </mxCell>
        <mxCell id="q1FodN6zL91qWun3fkt1-168" value="" style="rounded=0;whiteSpace=wrap;html=1;fillColor=#6a00ff;strokeColor=#3700CC;fontColor=#ffffff;sketch=1;strokeWidth=3;backgroundOutline=0;fillStyle=hachure;" parent="1" vertex="1">
          <mxGeometry x="800" y="-229.12" width="40" height="80" as="geometry" />
        </mxCell>
        <mxCell id="q1FodN6zL91qWun3fkt1-169" value="" style="endArrow=none;html=1;sketch=1;" parent="1" edge="1">
          <mxGeometry width="50" height="50" relative="1" as="geometry">
            <mxPoint x="820" y="-209.12" as="sourcePoint" />
            <mxPoint x="830" y="-229.12" as="targetPoint" />
          </mxGeometry>
        </mxCell>
        <mxCell id="q1FodN6zL91qWun3fkt1-170" value="" style="endArrow=none;html=1;sketch=1;" parent="1" edge="1">
          <mxGeometry width="50" height="50" relative="1" as="geometry">
            <mxPoint x="820" y="-209.12" as="sourcePoint" />
            <mxPoint x="810" y="-229.12" as="targetPoint" />
          </mxGeometry>
        </mxCell>
        <mxCell id="q1FodN6zL91qWun3fkt1-171" value="" style="endArrow=none;html=1;sketch=1;" parent="1" edge="1">
          <mxGeometry width="50" height="50" relative="1" as="geometry">
            <mxPoint x="810" y="-229.12" as="sourcePoint" />
            <mxPoint x="830" y="-229.12" as="targetPoint" />
          </mxGeometry>
        </mxCell>
        <mxCell id="q1FodN6zL91qWun3fkt1-172" value="" style="endArrow=none;html=1;sketch=1;" parent="1" edge="1">
          <mxGeometry width="50" height="50" relative="1" as="geometry">
            <mxPoint x="820" y="-229.12" as="sourcePoint" />
            <mxPoint x="820" y="-249.12" as="targetPoint" />
          </mxGeometry>
        </mxCell>
        <mxCell id="q1FodN6zL91qWun3fkt1-173" value="&lt;font face=&quot;Comic Sans MS&quot; size=&quot;1&quot; color=&quot;#ffffff&quot;&gt;&lt;b style=&quot;font-size: 15px&quot;&gt;U_9&lt;/b&gt;&lt;/font&gt;" style="text;html=1;strokeColor=none;fillColor=none;align=center;verticalAlign=middle;whiteSpace=wrap;rounded=0;" parent="1" vertex="1">
          <mxGeometry x="801" y="-149.12" width="40" height="20" as="geometry" />
        </mxCell>
        <mxCell id="q1FodN6zL91qWun3fkt1-174" value="clk" style="text;html=1;strokeColor=none;fillColor=none;align=center;verticalAlign=middle;whiteSpace=wrap;rounded=0;fontFamily=Comic Sans MS;fontSize=13;fontStyle=2" parent="1" vertex="1">
          <mxGeometry x="821" y="-249.12" width="20" height="20" as="geometry" />
        </mxCell>
        <mxCell id="q1FodN6zL91qWun3fkt1-181" value="clk" style="text;html=1;strokeColor=none;fillColor=none;align=center;verticalAlign=middle;whiteSpace=wrap;rounded=0;fontFamily=Comic Sans MS;fontSize=13;fontStyle=2" parent="1" vertex="1">
          <mxGeometry x="820" y="-119.12" width="20" height="20" as="geometry" />
        </mxCell>
        <mxCell id="q1FodN6zL91qWun3fkt1-182" value="" style="endArrow=none;html=1;rounded=0;sketch=1;curveFitting=1;jiggle=2;strokeWidth=3;" parent="1" edge="1">
          <mxGeometry width="50" height="50" relative="1" as="geometry">
            <mxPoint x="769" y="-59.629999999999995" as="sourcePoint" />
            <mxPoint x="769" y="-149.63" as="targetPoint" />
          </mxGeometry>
        </mxCell>
        <mxCell id="q1FodN6zL91qWun3fkt1-184" value="" style="rounded=0;whiteSpace=wrap;html=1;fillColor=#6a00ff;strokeColor=#3700CC;fontColor=#ffffff;sketch=1;strokeWidth=3;backgroundOutline=0;fillStyle=hachure;" parent="1" vertex="1">
          <mxGeometry x="799" y="-99.46000000000004" width="40" height="80" as="geometry" />
        </mxCell>
        <mxCell id="q1FodN6zL91qWun3fkt1-185" value="" style="endArrow=none;html=1;sketch=1;" parent="1" edge="1">
          <mxGeometry width="50" height="50" relative="1" as="geometry">
            <mxPoint x="819" y="-79.46000000000004" as="sourcePoint" />
            <mxPoint x="829" y="-99.46000000000004" as="targetPoint" />
          </mxGeometry>
        </mxCell>
        <mxCell id="q1FodN6zL91qWun3fkt1-186" value="" style="endArrow=none;html=1;sketch=1;" parent="1" edge="1">
          <mxGeometry width="50" height="50" relative="1" as="geometry">
            <mxPoint x="819" y="-79.46000000000004" as="sourcePoint" />
            <mxPoint x="809" y="-99.46000000000004" as="targetPoint" />
          </mxGeometry>
        </mxCell>
        <mxCell id="q1FodN6zL91qWun3fkt1-187" value="" style="endArrow=none;html=1;sketch=1;" parent="1" edge="1">
          <mxGeometry width="50" height="50" relative="1" as="geometry">
            <mxPoint x="809" y="-99.46000000000004" as="sourcePoint" />
            <mxPoint x="829" y="-99.46000000000004" as="targetPoint" />
          </mxGeometry>
        </mxCell>
        <mxCell id="q1FodN6zL91qWun3fkt1-188" value="" style="endArrow=none;html=1;sketch=1;" parent="1" edge="1">
          <mxGeometry width="50" height="50" relative="1" as="geometry">
            <mxPoint x="819" y="-99.46000000000004" as="sourcePoint" />
            <mxPoint x="819" y="-114.29000000000002" as="targetPoint" />
          </mxGeometry>
        </mxCell>
        <mxCell id="q1FodN6zL91qWun3fkt1-189" value="&lt;font face=&quot;Comic Sans MS&quot; size=&quot;1&quot; color=&quot;#ffffff&quot;&gt;&lt;b style=&quot;font-size: 15px&quot;&gt;U_10&lt;/b&gt;&lt;/font&gt;" style="text;html=1;strokeColor=none;fillColor=none;align=center;verticalAlign=middle;whiteSpace=wrap;rounded=0;" parent="1" vertex="1">
          <mxGeometry x="800" y="-19.460000000000036" width="40" height="20" as="geometry" />
        </mxCell>
        <mxCell id="q1FodN6zL91qWun3fkt1-190" value="" style="endArrow=none;html=1;rounded=0;entryX=0;entryY=0.5;entryDx=0;entryDy=0;strokeWidth=3;" parent="1" target="q1FodN6zL91qWun3fkt1-184" edge="1">
          <mxGeometry width="50" height="50" relative="1" as="geometry">
            <mxPoint x="769" y="-59.629999999999995" as="sourcePoint" />
            <mxPoint x="829" y="-89.63" as="targetPoint" />
          </mxGeometry>
        </mxCell>
        <mxCell id="q1FodN6zL91qWun3fkt1-191" value="" style="endArrow=none;html=1;strokeWidth=3;sketch=1;startArrow=none;startFill=0;entryX=0.713;entryY=1.023;entryDx=0;entryDy=0;entryPerimeter=0;" parent="1" target="q1FodN6zL91qWun3fkt1-196" edge="1">
          <mxGeometry width="50" height="50" relative="1" as="geometry">
            <mxPoint x="839" y="-189.34000000000003" as="sourcePoint" />
            <mxPoint x="909" y="-188.63" as="targetPoint" />
          </mxGeometry>
        </mxCell>
        <mxCell id="q1FodN6zL91qWun3fkt1-192" value="" style="endArrow=none;html=1;strokeWidth=3;sketch=1;startArrow=none;startFill=0;exitX=1;exitY=0.5;exitDx=0;exitDy=0;entryX=0;entryY=0.5;entryDx=0;entryDy=0;" parent="1" source="q1FodN6zL91qWun3fkt1-184" target="q1FodN6zL91qWun3fkt1-213" edge="1">
          <mxGeometry width="50" height="50" relative="1" as="geometry">
            <mxPoint x="880" y="-60.19" as="sourcePoint" />
            <mxPoint x="909" y="-59.629999999999995" as="targetPoint" />
          </mxGeometry>
        </mxCell>
        <mxCell id="q1FodN6zL91qWun3fkt1-193" value="rd_delay1" style="text;html=1;strokeColor=none;fillColor=none;align=center;verticalAlign=middle;whiteSpace=wrap;rounded=0;fontFamily=Comic Sans MS;fontSize=13;fontStyle=2" parent="1" vertex="1">
          <mxGeometry x="849" y="-214.79999999999995" width="60" height="20" as="geometry" />
        </mxCell>
        <mxCell id="q1FodN6zL91qWun3fkt1-194" value="rd_delay2" style="text;html=1;strokeColor=none;fillColor=none;align=center;verticalAlign=middle;whiteSpace=wrap;rounded=0;fontFamily=Comic Sans MS;fontSize=13;fontStyle=2" parent="1" vertex="1">
          <mxGeometry x="849" y="-83.63" width="60" height="20" as="geometry" />
        </mxCell>
        <mxCell id="q1FodN6zL91qWun3fkt1-198" value="&lt;font style=&quot;font-size: 15px&quot; face=&quot;Comic Sans MS&quot;&gt;A&lt;/font&gt;" style="text;html=1;strokeColor=none;fillColor=none;align=center;verticalAlign=middle;whiteSpace=wrap;rounded=0;" parent="1" vertex="1">
          <mxGeometry x="951.25" y="-224.79999999999995" width="20" height="20" as="geometry" />
        </mxCell>
        <mxCell id="q1FodN6zL91qWun3fkt1-199" value="&lt;font style=&quot;font-size: 15px&quot; face=&quot;Comic Sans MS&quot;&gt;B&lt;/font&gt;" style="text;html=1;strokeColor=none;fillColor=none;align=center;verticalAlign=middle;whiteSpace=wrap;rounded=0;" parent="1" vertex="1">
          <mxGeometry x="951.25" y="-204.79999999999995" width="20" height="20" as="geometry" />
        </mxCell>
        <mxCell id="q1FodN6zL91qWun3fkt1-200" value="&lt;font style=&quot;font-size: 15px&quot; color=&quot;#ffffff&quot;&gt;&lt;b style=&quot;font-style: normal&quot;&gt;U_11&lt;/b&gt;&lt;/font&gt;" style="text;html=1;strokeColor=none;fillColor=none;align=center;verticalAlign=middle;whiteSpace=wrap;rounded=0;fontFamily=Comic Sans MS;fontSize=13;fontStyle=2" parent="1" vertex="1">
          <mxGeometry x="951.25" y="-174.57000000000005" width="40" height="19.77" as="geometry" />
        </mxCell>
        <mxCell id="q1FodN6zL91qWun3fkt1-201" value="aluSrc_a" style="text;html=1;strokeColor=none;fillColor=none;align=center;verticalAlign=middle;whiteSpace=wrap;rounded=0;rotation=90;fontFamily=Comic Sans MS;fontSize=13;fontStyle=2" parent="1" vertex="1">
          <mxGeometry x="961.25" y="-259.63" width="40" height="20" as="geometry" />
        </mxCell>
        <mxCell id="q1FodN6zL91qWun3fkt1-202" value="" style="endArrow=none;html=1;rounded=0;sketch=1;curveFitting=1;jiggle=2;exitX=0.196;exitY=0.407;exitDx=0;exitDy=0;exitPerimeter=0;" parent="1" source="q1FodN6zL91qWun3fkt1-196" edge="1">
          <mxGeometry width="50" height="50" relative="1" as="geometry">
            <mxPoint x="969" y="-224.79999999999995" as="sourcePoint" />
            <mxPoint x="969" y="-349.63" as="targetPoint" />
          </mxGeometry>
        </mxCell>
        <mxCell id="q1FodN6zL91qWun3fkt1-204" value="" style="endArrow=none;html=1;strokeWidth=3;endFill=0;startArrow=none;startFill=0;sketch=1;curveFitting=1;jiggle=2;" parent="1" edge="1">
          <mxGeometry width="50" height="50" relative="1" as="geometry">
            <mxPoint x="899" y="-219.63" as="sourcePoint" />
            <mxPoint x="949" y="-219.79999999999995" as="targetPoint" />
          </mxGeometry>
        </mxCell>
        <mxCell id="q1FodN6zL91qWun3fkt1-206" value="" style="endArrow=none;html=1;strokeWidth=3;endFill=0;startArrow=none;startFill=0;sketch=1;curveFitting=1;jiggle=2;" parent="1" edge="1">
          <mxGeometry width="50" height="50" relative="1" as="geometry">
            <mxPoint x="979" y="-204.63" as="sourcePoint" />
            <mxPoint x="1169" y="-204.63" as="targetPoint" />
          </mxGeometry>
        </mxCell>
        <mxCell id="q1FodN6zL91qWun3fkt1-207" value="aluSrc_a" style="text;html=1;strokeColor=none;fillColor=none;align=center;verticalAlign=middle;whiteSpace=wrap;rounded=0;fontFamily=Comic Sans MS;fontSize=13;fontStyle=2" parent="1" vertex="1">
          <mxGeometry x="971.2500000000001" y="-369.63" width="60" height="20" as="geometry" />
        </mxCell>
        <mxCell id="q1FodN6zL91qWun3fkt1-208" value="" style="endArrow=oval;html=1;rounded=0;strokeWidth=3;sketch=1;curveFitting=1;jiggle=2;endFill=1;" parent="1" edge="1">
          <mxGeometry width="50" height="50" relative="1" as="geometry">
            <mxPoint x="899" y="-219.63" as="sourcePoint" />
            <mxPoint x="899" y="-279.63" as="targetPoint" />
          </mxGeometry>
        </mxCell>
        <mxCell id="q1FodN6zL91qWun3fkt1-209" value="" style="endArrow=none;html=1;rounded=0;strokeWidth=3;startArrow=oval;startFill=1;sketch=1;curveFitting=1;jiggle=2;" parent="1" edge="1">
          <mxGeometry width="50" height="50" relative="1" as="geometry">
            <mxPoint x="-160" y="-70" as="sourcePoint" />
            <mxPoint x="-160" y="-280" as="targetPoint" />
          </mxGeometry>
        </mxCell>
        <mxCell id="q1FodN6zL91qWun3fkt1-210" value="" style="endArrow=none;html=1;rounded=0;strokeWidth=3;sketch=1;curveFitting=1;jiggle=2;" parent="1" edge="1">
          <mxGeometry width="50" height="50" relative="1" as="geometry">
            <mxPoint x="1069" y="-280" as="sourcePoint" />
            <mxPoint x="1110" y="-280" as="targetPoint" />
          </mxGeometry>
        </mxCell>
        <mxCell id="q1FodN6zL91qWun3fkt1-211" value="crn_addr" style="text;html=1;strokeColor=none;fillColor=none;align=center;verticalAlign=middle;whiteSpace=wrap;rounded=0;fontFamily=Comic Sans MS;fontSize=13;fontStyle=2" parent="1" vertex="1">
          <mxGeometry x="814" y="-299.63" width="60" height="20" as="geometry" />
        </mxCell>
        <mxCell id="q1FodN6zL91qWun3fkt1-212" value="" style="shape=trapezoid;perimeter=trapezoidPerimeter;whiteSpace=wrap;html=1;fixedSize=1;rotation=90;fillColor=#60a917;strokeColor=#2D7600;fontColor=#ffffff;shadow=0;sketch=1;strokeWidth=1;" parent="1" vertex="1">
          <mxGeometry x="962.55" y="-45.47" width="111.09" height="32.45" as="geometry" />
        </mxCell>
        <mxCell id="q1FodN6zL91qWun3fkt1-213" value="&lt;font style=&quot;font-size: 15px&quot; face=&quot;Comic Sans MS&quot;&gt;A&lt;/font&gt;" style="text;html=1;strokeColor=none;fillColor=none;align=center;verticalAlign=middle;whiteSpace=wrap;rounded=0;" parent="1" vertex="1">
          <mxGeometry x="1001.25" y="-69.63" width="20" height="20" as="geometry" />
        </mxCell>
        <mxCell id="q1FodN6zL91qWun3fkt1-214" value="&lt;font style=&quot;font-size: 15px&quot; face=&quot;Comic Sans MS&quot;&gt;B&lt;/font&gt;" style="text;html=1;strokeColor=none;fillColor=none;align=center;verticalAlign=middle;whiteSpace=wrap;rounded=0;" parent="1" vertex="1">
          <mxGeometry x="1001.25" y="-49.629999999999995" width="20" height="20" as="geometry" />
        </mxCell>
        <mxCell id="q1FodN6zL91qWun3fkt1-215" value="&lt;font style=&quot;font-size: 15px&quot; color=&quot;#ffffff&quot;&gt;&lt;b style=&quot;font-style: normal&quot;&gt;U_12&lt;/b&gt;&lt;/font&gt;" style="text;html=1;strokeColor=none;fillColor=none;align=center;verticalAlign=middle;whiteSpace=wrap;rounded=0;fontFamily=Comic Sans MS;fontSize=13;fontStyle=2" parent="1" vertex="1">
          <mxGeometry x="996.25" y="35.54000000000002" width="40" height="19.77" as="geometry" />
        </mxCell>
        <mxCell id="q1FodN6zL91qWun3fkt1-216" value="aluSrc_b" style="text;html=1;strokeColor=none;fillColor=none;align=center;verticalAlign=middle;whiteSpace=wrap;rounded=0;rotation=90;fontFamily=Comic Sans MS;fontSize=13;fontStyle=2" parent="1" vertex="1">
          <mxGeometry x="1000" y="-114.80000000000001" width="62.25" height="20" as="geometry" />
        </mxCell>
        <mxCell id="q1FodN6zL91qWun3fkt1-217" value="&lt;font style=&quot;font-size: 15px&quot; face=&quot;Comic Sans MS&quot;&gt;C&lt;/font&gt;" style="text;html=1;strokeColor=none;fillColor=none;align=center;verticalAlign=middle;whiteSpace=wrap;rounded=0;" parent="1" vertex="1">
          <mxGeometry x="1001.25" y="-29.629999999999995" width="20" height="20" as="geometry" />
        </mxCell>
        <mxCell id="q1FodN6zL91qWun3fkt1-218" value="&lt;font style=&quot;font-size: 15px&quot; face=&quot;Comic Sans MS&quot;&gt;D&lt;/font&gt;" style="text;html=1;strokeColor=none;fillColor=none;align=center;verticalAlign=middle;whiteSpace=wrap;rounded=0;" parent="1" vertex="1">
          <mxGeometry x="1001.25" y="-9.629999999999995" width="20" height="20" as="geometry" />
        </mxCell>
        <mxCell id="q1FodN6zL91qWun3fkt1-220" value="" style="endArrow=none;html=1;rounded=0;strokeWidth=3;sketch=1;curveFitting=1;jiggle=2;" parent="1" edge="1">
          <mxGeometry width="50" height="50" relative="1" as="geometry">
            <mxPoint x="949" y="-39.629999999999995" as="sourcePoint" />
            <mxPoint x="1001.25" y="-39.80000000000001" as="targetPoint" />
          </mxGeometry>
        </mxCell>
        <mxCell id="q1FodN6zL91qWun3fkt1-221" value="" style="endArrow=none;html=1;rounded=0;strokeWidth=3;sketch=1;curveFitting=1;jiggle=2;" parent="1" edge="1">
          <mxGeometry width="50" height="50" relative="1" as="geometry">
            <mxPoint x="909" y="-19.629999999999995" as="sourcePoint" />
            <mxPoint x="1001.25" y="-19.720000000000027" as="targetPoint" />
          </mxGeometry>
        </mxCell>
        <mxCell id="q1FodN6zL91qWun3fkt1-222" value="" style="endArrow=none;html=1;rounded=0;strokeWidth=3;sketch=1;curveFitting=1;jiggle=2;" parent="1" edge="1">
          <mxGeometry width="50" height="50" relative="1" as="geometry">
            <mxPoint x="951" y="1" as="sourcePoint" />
            <mxPoint x="1001.25" y="0.5399999999999636" as="targetPoint" />
          </mxGeometry>
        </mxCell>
        <mxCell id="q1FodN6zL91qWun3fkt1-223" value="" style="endArrow=none;html=1;rounded=0;strokeWidth=3;sketch=1;curveFitting=1;jiggle=2;exitX=0.5;exitY=0;exitDx=0;exitDy=0;" parent="1" source="q1FodN6zL91qWun3fkt1-212" edge="1">
          <mxGeometry width="50" height="50" relative="1" as="geometry">
            <mxPoint x="1041.25" y="-25.829999999999984" as="sourcePoint" />
            <mxPoint x="1080" y="-30" as="targetPoint" />
          </mxGeometry>
        </mxCell>
        <mxCell id="q1FodN6zL91qWun3fkt1-227" value="srcA" style="text;html=1;strokeColor=none;fillColor=none;align=center;verticalAlign=middle;whiteSpace=wrap;rounded=0;fontFamily=Comic Sans MS;fontSize=13;fontStyle=2" parent="1" vertex="1">
          <mxGeometry x="986.25" y="-229.12" width="42.75" height="20" as="geometry" />
        </mxCell>
        <mxCell id="q1FodN6zL91qWun3fkt1-228" value="srcB" style="text;html=1;strokeColor=none;fillColor=none;align=center;verticalAlign=middle;whiteSpace=wrap;rounded=0;fontFamily=Comic Sans MS;fontSize=13;fontStyle=2" parent="1" vertex="1">
          <mxGeometry x="1033.91" y="-49.45999999999998" width="42.75" height="20" as="geometry" />
        </mxCell>
        <mxCell id="q1FodN6zL91qWun3fkt1-229" value="rd_delay2" style="text;html=1;strokeColor=none;fillColor=none;align=center;verticalAlign=middle;whiteSpace=wrap;rounded=0;fontFamily=Comic Sans MS;fontSize=13;fontStyle=2" parent="1" vertex="1">
          <mxGeometry x="936.25" y="-84" width="60" height="20" as="geometry" />
        </mxCell>
        <mxCell id="q1FodN6zL91qWun3fkt1-230" value="4" style="text;html=1;strokeColor=none;fillColor=none;align=center;verticalAlign=middle;whiteSpace=wrap;rounded=0;fontFamily=Comic Sans MS;fontSize=13;fontStyle=2" parent="1" vertex="1">
          <mxGeometry x="950" y="-59.39999999999998" width="41.25" height="20" as="geometry" />
        </mxCell>
        <mxCell id="q1FodN6zL91qWun3fkt1-231" value="extimm" style="text;html=1;strokeColor=none;fillColor=none;align=center;verticalAlign=middle;whiteSpace=wrap;rounded=0;fontFamily=Comic Sans MS;fontSize=13;fontStyle=2" parent="1" vertex="1">
          <mxGeometry x="950" y="-39.45999999999998" width="41.25" height="20" as="geometry" />
        </mxCell>
        <mxCell id="q1FodN6zL91qWun3fkt1-232" value="sltimm" style="text;html=1;strokeColor=none;fillColor=none;align=center;verticalAlign=middle;whiteSpace=wrap;rounded=0;fontFamily=Comic Sans MS;fontSize=13;fontStyle=2" parent="1" vertex="1">
          <mxGeometry x="950" y="-19.45999999999998" width="41.25" height="20" as="geometry" />
        </mxCell>
        <mxCell id="q1FodN6zL91qWun3fkt1-233" value="" style="endArrow=none;html=1;rounded=0;sketch=1;curveFitting=1;jiggle=2;strokeWidth=3;" parent="1" edge="1">
          <mxGeometry width="50" height="50" relative="1" as="geometry">
            <mxPoint x="910" y="120" as="sourcePoint" />
            <mxPoint x="909" y="-19.399999999999977" as="targetPoint" />
          </mxGeometry>
        </mxCell>
        <mxCell id="q1FodN6zL91qWun3fkt1-234" value="" style="endArrow=none;html=1;rounded=0;sketch=1;curveFitting=1;jiggle=2;strokeWidth=3;" parent="1" edge="1">
          <mxGeometry width="50" height="50" relative="1" as="geometry">
            <mxPoint x="951" y="210" as="sourcePoint" />
            <mxPoint x="950.81" y="0.5400000000000205" as="targetPoint" />
          </mxGeometry>
        </mxCell>
        <mxCell id="q1FodN6zL91qWun3fkt1-235" value="" style="endArrow=none;html=1;rounded=0;sketch=1;curveFitting=1;jiggle=2;exitX=0.096;exitY=0.476;exitDx=0;exitDy=0;exitPerimeter=0;" parent="1" source="q1FodN6zL91qWun3fkt1-212" edge="1">
          <mxGeometry width="50" height="50" relative="1" as="geometry">
            <mxPoint x="1017.6400000000001" y="-74.79999999999995" as="sourcePoint" />
            <mxPoint x="1019" y="-139.63" as="targetPoint" />
          </mxGeometry>
        </mxCell>
        <mxCell id="q1FodN6zL91qWun3fkt1-236" value="" style="endArrow=none;html=1;rounded=0;sketch=1;curveFitting=1;jiggle=2;" parent="1" edge="1">
          <mxGeometry width="50" height="50" relative="1" as="geometry">
            <mxPoint x="1019" y="-139.63" as="sourcePoint" />
            <mxPoint x="1059" y="-139.63" as="targetPoint" />
          </mxGeometry>
        </mxCell>
        <mxCell id="q1FodN6zL91qWun3fkt1-237" value="" style="endArrow=none;html=1;rounded=0;sketch=1;curveFitting=1;jiggle=2;" parent="1" edge="1">
          <mxGeometry width="50" height="50" relative="1" as="geometry">
            <mxPoint x="1059" y="-215" as="sourcePoint" />
            <mxPoint x="1059" y="-349.63" as="targetPoint" />
          </mxGeometry>
        </mxCell>
        <mxCell id="q1FodN6zL91qWun3fkt1-238" value="aluSrc_b [1:0]" style="text;html=1;strokeColor=none;fillColor=none;align=center;verticalAlign=middle;whiteSpace=wrap;rounded=0;rotation=0;fontFamily=Comic Sans MS;fontSize=13;fontStyle=2" parent="1" vertex="1">
          <mxGeometry x="1059" y="-369.63" width="91" height="20" as="geometry" />
        </mxCell>
        <mxCell id="q1FodN6zL91qWun3fkt1-239" value="&lt;font style=&quot;font-size: 15px&quot; face=&quot;Comic Sans MS&quot;&gt;&lt;b&gt;ALU&lt;/b&gt;&lt;/font&gt;" style="rounded=0;whiteSpace=wrap;html=1;fontColor=#ffffff;sketch=1;strokeWidth=1;strokeColor=#A50040;fillColor=#d80073;opacity=80;" parent="1" vertex="1">
          <mxGeometry x="1168.75" y="-230.75" width="85" height="120" as="geometry" />
        </mxCell>
        <mxCell id="q1FodN6zL91qWun3fkt1-240" value="srcB" style="text;html=1;strokeColor=none;fillColor=none;align=center;verticalAlign=middle;whiteSpace=wrap;rounded=0;fontFamily=Comic Sans MS;fontSize=13;fontStyle=2" parent="1" vertex="1">
          <mxGeometry x="1123.75" y="-161.95000000000005" width="45" height="20" as="geometry" />
        </mxCell>
        <mxCell id="q1FodN6zL91qWun3fkt1-241" value="srcA" style="text;html=1;strokeColor=none;fillColor=none;align=center;verticalAlign=middle;whiteSpace=wrap;rounded=0;fontFamily=Comic Sans MS;fontSize=13;fontStyle=2" parent="1" vertex="1">
          <mxGeometry x="1121.25" y="-224.80000000000007" width="50" height="20" as="geometry" />
        </mxCell>
        <mxCell id="q1FodN6zL91qWun3fkt1-242" value="&lt;font face=&quot;Comic Sans MS&quot;&gt;&lt;i&gt;zero_f&lt;/i&gt;&lt;/font&gt;" style="text;html=1;strokeColor=none;fillColor=none;align=center;verticalAlign=middle;whiteSpace=wrap;rounded=0;rotation=0;" parent="1" vertex="1">
          <mxGeometry x="1260" y="-220.0000000000001" width="40" height="20" as="geometry" />
        </mxCell>
        <mxCell id="q1FodN6zL91qWun3fkt1-243" value="rsltALU" style="text;html=1;strokeColor=none;fillColor=none;align=center;verticalAlign=middle;whiteSpace=wrap;rounded=0;fontFamily=Comic Sans MS;fontSize=13;fontStyle=2" parent="1" vertex="1">
          <mxGeometry x="1253.75" y="-184.79999999999995" width="56.25" height="20" as="geometry" />
        </mxCell>
        <mxCell id="q1FodN6zL91qWun3fkt1-244" value="&lt;font style=&quot;font-size: 15px&quot; face=&quot;Comic Sans MS&quot; color=&quot;#ffffff&quot;&gt;&lt;b&gt;U_14&lt;/b&gt;&lt;/font&gt;" style="text;html=1;strokeColor=none;fillColor=none;align=center;verticalAlign=middle;whiteSpace=wrap;rounded=0;" parent="1" vertex="1">
          <mxGeometry x="1191.25" y="-108.51000000000005" width="40" height="20" as="geometry" />
        </mxCell>
        <mxCell id="q1FodN6zL91qWun3fkt1-246" value="" style="endArrow=none;html=1;rounded=0;sketch=1;curveFitting=1;jiggle=2;strokeWidth=3;" parent="1" edge="1">
          <mxGeometry width="50" height="50" relative="1" as="geometry">
            <mxPoint x="1080" y="-140" as="sourcePoint" />
            <mxPoint x="1168.75" y="-139.83999999999997" as="targetPoint" />
          </mxGeometry>
        </mxCell>
        <mxCell id="q1FodN6zL91qWun3fkt1-247" value="" style="endArrow=none;html=1;rounded=0;sketch=1;curveFitting=1;jiggle=2;strokeWidth=3;" parent="1" edge="1">
          <mxGeometry width="50" height="50" relative="1" as="geometry">
            <mxPoint x="1080" y="-28.25999999999999" as="sourcePoint" />
            <mxPoint x="1080" y="-140" as="targetPoint" />
          </mxGeometry>
        </mxCell>
        <mxCell id="q1FodN6zL91qWun3fkt1-248" value="" style="endArrow=none;html=1;rounded=0;sketch=1;curveFitting=1;jiggle=2;" parent="1" edge="1">
          <mxGeometry width="50" height="50" relative="1" as="geometry">
            <mxPoint x="1253" y="-199.63" as="sourcePoint" />
            <mxPoint x="1310" y="-200" as="targetPoint" />
          </mxGeometry>
        </mxCell>
        <mxCell id="q1FodN6zL91qWun3fkt1-249" value="" style="endArrow=none;html=1;rounded=0;strokeWidth=3;sketch=1;curveFitting=1;jiggle=2;entryX=0;entryY=0.5;entryDx=0;entryDy=0;" parent="1" target="q1FodN6zL91qWun3fkt1-270" edge="1">
          <mxGeometry width="50" height="50" relative="1" as="geometry">
            <mxPoint x="1253.75" y="-159.7" as="sourcePoint" />
            <mxPoint x="1323.75" y="-159.7" as="targetPoint" />
          </mxGeometry>
        </mxCell>
        <mxCell id="q1FodN6zL91qWun3fkt1-250" value="" style="endArrow=none;html=1;rounded=0;" parent="1" edge="1">
          <mxGeometry width="50" height="50" relative="1" as="geometry">
            <mxPoint x="1310" y="-200" as="sourcePoint" />
            <mxPoint x="1310" y="-310" as="targetPoint" />
          </mxGeometry>
        </mxCell>
        <mxCell id="q1FodN6zL91qWun3fkt1-251" value="" style="endArrow=none;html=1;rounded=0;" parent="1" edge="1">
          <mxGeometry width="50" height="50" relative="1" as="geometry">
            <mxPoint x="1308.75" y="-310" as="sourcePoint" />
            <mxPoint x="1221.3297101449275" y="-310" as="targetPoint" />
          </mxGeometry>
        </mxCell>
        <mxCell id="q1FodN6zL91qWun3fkt1-252" value="" style="endArrow=none;html=1;rounded=0;sketch=1;curveFitting=1;jiggle=2;" parent="1" edge="1">
          <mxGeometry width="50" height="50" relative="1" as="geometry">
            <mxPoint x="-190" y="-230" as="sourcePoint" />
            <mxPoint x="-190" y="-310" as="targetPoint" />
          </mxGeometry>
        </mxCell>
        <mxCell id="q1FodN6zL91qWun3fkt1-253" value="" style="endArrow=none;html=1;sketch=1;rounded=0;exitX=1.022;exitY=-0.211;exitDx=0;exitDy=0;exitPerimeter=0;" parent="1" edge="1">
          <mxGeometry width="50" height="50" relative="1" as="geometry">
            <mxPoint x="1209.4399999999996" y="-230.74673999999993" as="sourcePoint" />
            <mxPoint x="1300" y="-349.63" as="targetPoint" />
            <Array as="points">
              <mxPoint x="1210" y="-349.63" />
            </Array>
          </mxGeometry>
        </mxCell>
        <mxCell id="q1FodN6zL91qWun3fkt1-254" value="alu_cntrl [2:0]" style="text;html=1;strokeColor=none;fillColor=none;align=center;verticalAlign=middle;whiteSpace=wrap;rounded=0;fontFamily=Comic Sans MS;fontSize=13;fontStyle=2" parent="1" vertex="1">
          <mxGeometry x="1209" y="-369.63" width="91" height="20" as="geometry" />
        </mxCell>
        <mxCell id="q1FodN6zL91qWun3fkt1-255" value="" style="endArrow=none;html=1;rounded=0;sketch=1;curveFitting=1;jiggle=2;strokeWidth=3;exitX=0;exitY=1;exitDx=0;exitDy=0;" parent="1" source="q1FodN6zL91qWun3fkt1-49" edge="1">
          <mxGeometry width="50" height="50" relative="1" as="geometry">
            <mxPoint x="-50" y="-400" as="sourcePoint" />
            <mxPoint x="60" y="-400" as="targetPoint" />
          </mxGeometry>
        </mxCell>
        <mxCell id="q1FodN6zL91qWun3fkt1-256" value="" style="endArrow=none;html=1;rounded=0;sketch=1;curveFitting=1;jiggle=2;strokeWidth=3;" parent="1" edge="1">
          <mxGeometry width="50" height="50" relative="1" as="geometry">
            <mxPoint x="89" y="-400" as="sourcePoint" />
            <mxPoint x="190" y="-400" as="targetPoint" />
          </mxGeometry>
        </mxCell>
        <mxCell id="q1FodN6zL91qWun3fkt1-257" value="" style="shape=card;whiteSpace=wrap;html=1;rounded=0;shadow=0;glass=0;sketch=1;strokeWidth=3;fillColor=#e51400;fontFamily=Comic Sans MS;fontSize=13;rotation=90;strokeColor=#B20000;fontColor=#ffffff;" parent="1" vertex="1">
          <mxGeometry x="632" y="55.31" width="35" height="124.83" as="geometry" />
        </mxCell>
        <mxCell id="q1FodN6zL91qWun3fkt1-258" value="instr[15:0]" style="text;html=1;strokeColor=none;fillColor=none;align=center;verticalAlign=middle;whiteSpace=wrap;rounded=0;fontFamily=Comic Sans MS;fontSize=13;fontStyle=2" parent="1" vertex="1">
          <mxGeometry x="498.75" y="100.31" width="85" height="20" as="geometry" />
        </mxCell>
        <mxCell id="q1FodN6zL91qWun3fkt1-259" value="&lt;font style=&quot;font-size: 15px&quot; face=&quot;Comic Sans MS&quot; color=&quot;#ffffff&quot;&gt;&lt;b&gt;U_8&lt;/b&gt;&lt;/font&gt;" style="text;html=1;strokeColor=none;fillColor=none;align=center;verticalAlign=middle;whiteSpace=wrap;rounded=0;" parent="1" vertex="1">
          <mxGeometry x="622" y="140.31" width="40" height="20" as="geometry" />
        </mxCell>
        <mxCell id="q1FodN6zL91qWun3fkt1-260" value="" style="endArrow=none;html=1;strokeWidth=3;sketch=1;endFill=0;" parent="1" edge="1">
          <mxGeometry width="50" height="50" relative="1" as="geometry">
            <mxPoint x="702" y="120.07999999999998" as="sourcePoint" />
            <mxPoint x="910" y="120" as="targetPoint" />
          </mxGeometry>
        </mxCell>
        <mxCell id="q1FodN6zL91qWun3fkt1-261" value="extimm" style="text;html=1;strokeColor=none;fillColor=none;align=center;verticalAlign=middle;whiteSpace=wrap;rounded=0;fontFamily=Comic Sans MS;fontSize=13;fontStyle=2" parent="1" vertex="1">
          <mxGeometry x="697.25" y="100.31" width="70" height="20" as="geometry" />
        </mxCell>
        <mxCell id="q1FodN6zL91qWun3fkt1-262" value="" style="endArrow=none;html=1;strokeWidth=2;sketch=1;" parent="1" edge="1">
          <mxGeometry width="50" height="50" relative="1" as="geometry">
            <mxPoint x="458" y="120.31" as="sourcePoint" />
            <mxPoint x="587" y="120.31" as="targetPoint" />
          </mxGeometry>
        </mxCell>
        <mxCell id="q1FodN6zL91qWun3fkt1-263" value="" style="endArrow=oval;html=1;rounded=0;strokeWidth=2;sketch=1;curveFitting=1;jiggle=2;endFill=1;" parent="1" edge="1">
          <mxGeometry width="50" height="50" relative="1" as="geometry">
            <mxPoint x="770" y="210.31" as="sourcePoint" />
            <mxPoint x="770" y="120.31" as="targetPoint" />
          </mxGeometry>
        </mxCell>
        <mxCell id="q1FodN6zL91qWun3fkt1-264" value="extimm" style="text;html=1;strokeColor=none;fillColor=none;align=center;verticalAlign=middle;whiteSpace=wrap;rounded=0;rotation=0;fontFamily=Comic Sans MS;fontStyle=2" parent="1" vertex="1">
          <mxGeometry x="770" y="190" width="64" height="20" as="geometry" />
        </mxCell>
        <mxCell id="q1FodN6zL91qWun3fkt1-265" value="&lt;font style=&quot;font-size: 17px&quot; face=&quot;Comic Sans MS&quot;&gt;2&amp;lt;&amp;lt;&lt;/font&gt;" style="shape=parallelogram;perimeter=parallelogramPerimeter;whiteSpace=wrap;html=1;fixedSize=1;fillColor=#e3c800;strokeColor=#B09500;fontColor=#ffffff;sketch=1;strokeWidth=1;" parent="1" vertex="1">
          <mxGeometry x="824" y="190" width="70" height="40" as="geometry" />
        </mxCell>
        <mxCell id="q1FodN6zL91qWun3fkt1-266" value="sltimm" style="text;html=1;strokeColor=none;fillColor=none;align=center;verticalAlign=middle;whiteSpace=wrap;rounded=0;fontFamily=Comic Sans MS;fontSize=13;fontStyle=2" parent="1" vertex="1">
          <mxGeometry x="891.25" y="190" width="51.75" height="20" as="geometry" />
        </mxCell>
        <mxCell id="q1FodN6zL91qWun3fkt1-267" value="&lt;font style=&quot;font-size: 15px&quot; face=&quot;Comic Sans MS&quot; color=&quot;#ffffff&quot;&gt;&lt;b&gt;U_13&lt;/b&gt;&lt;/font&gt;" style="text;html=1;strokeColor=none;fillColor=none;align=center;verticalAlign=middle;whiteSpace=wrap;rounded=0;" parent="1" vertex="1">
          <mxGeometry x="834" y="230" width="40" height="20" as="geometry" />
        </mxCell>
        <mxCell id="q1FodN6zL91qWun3fkt1-268" value="" style="endArrow=none;html=1;rounded=0;entryX=0;entryY=0.5;entryDx=0;entryDy=0;sketch=1;curveFitting=1;jiggle=2;strokeWidth=2;" parent="1" target="q1FodN6zL91qWun3fkt1-265" edge="1">
          <mxGeometry width="50" height="50" relative="1" as="geometry">
            <mxPoint x="770" y="210" as="sourcePoint" />
            <mxPoint x="830" y="160" as="targetPoint" />
          </mxGeometry>
        </mxCell>
        <mxCell id="q1FodN6zL91qWun3fkt1-269" value="" style="endArrow=none;html=1;rounded=0;exitX=1;exitY=0.5;exitDx=0;exitDy=0;strokeWidth=3;sketch=1;curveFitting=1;jiggle=2;" parent="1" source="q1FodN6zL91qWun3fkt1-265" edge="1">
          <mxGeometry width="50" height="50" relative="1" as="geometry">
            <mxPoint x="890" y="210" as="sourcePoint" />
            <mxPoint x="950" y="210" as="targetPoint" />
          </mxGeometry>
        </mxCell>
        <mxCell id="q1FodN6zL91qWun3fkt1-270" value="" style="rounded=0;whiteSpace=wrap;html=1;fillColor=#6a00ff;strokeColor=#3700CC;fontColor=#ffffff;sketch=1;strokeWidth=3;backgroundOutline=0;fillStyle=hachure;" parent="1" vertex="1">
          <mxGeometry x="1370" y="-199.12" width="40" height="80" as="geometry" />
        </mxCell>
        <mxCell id="q1FodN6zL91qWun3fkt1-271" value="" style="endArrow=none;html=1;sketch=1;" parent="1" edge="1">
          <mxGeometry width="50" height="50" relative="1" as="geometry">
            <mxPoint x="1390" y="-179.12" as="sourcePoint" />
            <mxPoint x="1400" y="-199.12" as="targetPoint" />
          </mxGeometry>
        </mxCell>
        <mxCell id="q1FodN6zL91qWun3fkt1-272" value="" style="endArrow=none;html=1;sketch=1;" parent="1" edge="1">
          <mxGeometry width="50" height="50" relative="1" as="geometry">
            <mxPoint x="1390" y="-179.12" as="sourcePoint" />
            <mxPoint x="1380" y="-199.12" as="targetPoint" />
          </mxGeometry>
        </mxCell>
        <mxCell id="q1FodN6zL91qWun3fkt1-273" value="" style="endArrow=none;html=1;sketch=1;" parent="1" edge="1">
          <mxGeometry width="50" height="50" relative="1" as="geometry">
            <mxPoint x="1380" y="-199.12" as="sourcePoint" />
            <mxPoint x="1400" y="-199.12" as="targetPoint" />
          </mxGeometry>
        </mxCell>
        <mxCell id="q1FodN6zL91qWun3fkt1-274" value="" style="endArrow=none;html=1;sketch=1;" parent="1" edge="1">
          <mxGeometry width="50" height="50" relative="1" as="geometry">
            <mxPoint x="1390" y="-199.12" as="sourcePoint" />
            <mxPoint x="1390" y="-219.12" as="targetPoint" />
          </mxGeometry>
        </mxCell>
        <mxCell id="q1FodN6zL91qWun3fkt1-275" value="&lt;font face=&quot;Comic Sans MS&quot; size=&quot;1&quot; color=&quot;#ffffff&quot;&gt;&lt;b style=&quot;font-size: 15px&quot;&gt;U_16&lt;/b&gt;&lt;/font&gt;" style="text;html=1;strokeColor=none;fillColor=none;align=center;verticalAlign=middle;whiteSpace=wrap;rounded=0;" parent="1" vertex="1">
          <mxGeometry x="1371" y="-119.12" width="40" height="20" as="geometry" />
        </mxCell>
        <mxCell id="q1FodN6zL91qWun3fkt1-276" value="clk" style="text;html=1;strokeColor=none;fillColor=none;align=center;verticalAlign=middle;whiteSpace=wrap;rounded=0;fontFamily=Comic Sans MS;fontSize=13;fontStyle=2" parent="1" vertex="1">
          <mxGeometry x="1391" y="-219.12" width="20" height="20" as="geometry" />
        </mxCell>
        <mxCell id="q1FodN6zL91qWun3fkt1-277" value="" style="shape=trapezoid;perimeter=trapezoidPerimeter;whiteSpace=wrap;html=1;fixedSize=1;rotation=90;fillColor=#60a917;strokeColor=#2D7600;fontColor=#ffffff;shadow=0;sketch=1;strokeWidth=1;" parent="1" vertex="1">
          <mxGeometry x="1278.8" y="5.78" width="113.59" height="32.45" as="geometry" />
        </mxCell>
        <mxCell id="q1FodN6zL91qWun3fkt1-278" value="&lt;font style=&quot;font-size: 15px&quot; face=&quot;Comic Sans MS&quot;&gt;A&lt;/font&gt;" style="text;html=1;strokeColor=none;fillColor=none;align=center;verticalAlign=middle;whiteSpace=wrap;rounded=0;" parent="1" vertex="1">
          <mxGeometry x="1318.75" y="-19.629999999999995" width="20" height="20" as="geometry" />
        </mxCell>
        <mxCell id="q1FodN6zL91qWun3fkt1-279" value="&lt;font style=&quot;font-size: 15px&quot; face=&quot;Comic Sans MS&quot;&gt;B&lt;/font&gt;" style="text;html=1;strokeColor=none;fillColor=none;align=center;verticalAlign=middle;whiteSpace=wrap;rounded=0;" parent="1" vertex="1">
          <mxGeometry x="1318.75" y="0.37000000000000455" width="20" height="20" as="geometry" />
        </mxCell>
        <mxCell id="q1FodN6zL91qWun3fkt1-280" value="&lt;font style=&quot;font-size: 15px&quot; color=&quot;#ffffff&quot;&gt;&lt;b style=&quot;font-style: normal&quot;&gt;U_15&lt;/b&gt;&lt;/font&gt;" style="text;html=1;strokeColor=none;fillColor=none;align=center;verticalAlign=middle;whiteSpace=wrap;rounded=0;fontFamily=Comic Sans MS;fontSize=13;fontStyle=2" parent="1" vertex="1">
          <mxGeometry x="1313.75" y="85.54000000000002" width="40" height="19.77" as="geometry" />
        </mxCell>
        <mxCell id="q1FodN6zL91qWun3fkt1-281" value="pc_src" style="text;html=1;strokeColor=none;fillColor=none;align=center;verticalAlign=middle;whiteSpace=wrap;rounded=0;rotation=90;fontFamily=Comic Sans MS;fontSize=13;fontStyle=2" parent="1" vertex="1">
          <mxGeometry x="1322.5" y="-59.39999999999998" width="48.5" height="20" as="geometry" />
        </mxCell>
        <mxCell id="q1FodN6zL91qWun3fkt1-282" value="&lt;font style=&quot;font-size: 15px&quot; face=&quot;Comic Sans MS&quot;&gt;C&lt;/font&gt;" style="text;html=1;strokeColor=none;fillColor=none;align=center;verticalAlign=middle;whiteSpace=wrap;rounded=0;" parent="1" vertex="1">
          <mxGeometry x="1318.75" y="20.370000000000005" width="20" height="20" as="geometry" />
        </mxCell>
        <mxCell id="q1FodN6zL91qWun3fkt1-283" value="&lt;font style=&quot;font-size: 15px&quot; face=&quot;Comic Sans MS&quot;&gt;D&lt;/font&gt;" style="text;html=1;strokeColor=none;fillColor=none;align=center;verticalAlign=middle;whiteSpace=wrap;rounded=0;" parent="1" vertex="1">
          <mxGeometry x="1318.75" y="40.370000000000005" width="20" height="20" as="geometry" />
        </mxCell>
        <mxCell id="q1FodN6zL91qWun3fkt1-284" value="" style="endArrow=none;html=1;rounded=0;strokeWidth=3;sketch=1;curveFitting=1;jiggle=2;" parent="1" edge="1">
          <mxGeometry width="50" height="50" relative="1" as="geometry">
            <mxPoint x="1240" y="10" as="sourcePoint" />
            <mxPoint x="1318.75" y="10.199999999999989" as="targetPoint" />
          </mxGeometry>
        </mxCell>
        <mxCell id="q1FodN6zL91qWun3fkt1-285" value="" style="endArrow=none;html=1;rounded=0;strokeWidth=3;sketch=1;curveFitting=1;jiggle=2;" parent="1" edge="1">
          <mxGeometry width="50" height="50" relative="1" as="geometry">
            <mxPoint x="1268.5" y="51" as="sourcePoint" />
            <mxPoint x="1318.75" y="50.539999999999964" as="targetPoint" />
          </mxGeometry>
        </mxCell>
        <mxCell id="q1FodN6zL91qWun3fkt1-286" value="pc_value" style="text;html=1;strokeColor=none;fillColor=none;align=center;verticalAlign=middle;whiteSpace=wrap;rounded=0;fontFamily=Comic Sans MS;fontSize=13;fontStyle=2" parent="1" vertex="1">
          <mxGeometry x="1353.75" y="4.83" width="66.25" height="15.54" as="geometry" />
        </mxCell>
        <mxCell id="q1FodN6zL91qWun3fkt1-288" value="aluOut" style="text;html=1;strokeColor=none;fillColor=none;align=center;verticalAlign=middle;whiteSpace=wrap;rounded=0;fontFamily=Comic Sans MS;fontSize=13;fontStyle=2" parent="1" vertex="1">
          <mxGeometry x="1267.5" y="-9.399999999999977" width="41.25" height="20" as="geometry" />
        </mxCell>
        <mxCell id="q1FodN6zL91qWun3fkt1-289" value="jump_addr" style="text;html=1;strokeColor=none;fillColor=none;align=center;verticalAlign=middle;whiteSpace=wrap;rounded=0;fontFamily=Comic Sans MS;fontSize=13;fontStyle=2" parent="1" vertex="1">
          <mxGeometry x="1261.25" y="10.600000000000023" width="41.25" height="20" as="geometry" />
        </mxCell>
        <mxCell id="q1FodN6zL91qWun3fkt1-291" value="" style="endArrow=none;html=1;rounded=0;sketch=1;curveFitting=1;jiggle=2;exitX=0.096;exitY=0.476;exitDx=0;exitDy=0;exitPerimeter=0;entryX=1;entryY=1;entryDx=0;entryDy=0;" parent="1" source="q1FodN6zL91qWun3fkt1-277" target="q1FodN6zL91qWun3fkt1-294" edge="1">
          <mxGeometry width="50" height="50" relative="1" as="geometry">
            <mxPoint x="1335.14" y="-24.799999999999955" as="sourcePoint" />
            <mxPoint x="1420" y="-350" as="targetPoint" />
            <Array as="points">
              <mxPoint x="1336" y="-350" />
            </Array>
          </mxGeometry>
        </mxCell>
        <mxCell id="q1FodN6zL91qWun3fkt1-292" value="" style="endArrow=none;html=1;rounded=0;strokeWidth=3;sketch=1;curveFitting=1;jiggle=2;" parent="1" edge="1">
          <mxGeometry width="50" height="50" relative="1" as="geometry">
            <mxPoint x="1292" y="-9" as="sourcePoint" />
            <mxPoint x="1317.5" y="-9.400000000000034" as="targetPoint" />
          </mxGeometry>
        </mxCell>
        <mxCell id="q1FodN6zL91qWun3fkt1-293" value="" style="endArrow=none;html=1;rounded=0;strokeWidth=3;sketch=1;curveFitting=1;jiggle=2;" parent="1" edge="1">
          <mxGeometry width="50" height="50" relative="1" as="geometry">
            <mxPoint x="1200" y="30" as="sourcePoint" />
            <mxPoint x="1317.5" y="30.24000000000001" as="targetPoint" />
          </mxGeometry>
        </mxCell>
        <mxCell id="q1FodN6zL91qWun3fkt1-294" value="pc_src [1:0]" style="text;html=1;strokeColor=none;fillColor=none;align=center;verticalAlign=middle;whiteSpace=wrap;rounded=0;fontFamily=Comic Sans MS;fontSize=13;fontStyle=2" parent="1" vertex="1">
          <mxGeometry x="1334.62" y="-369.63" width="75.38" height="20" as="geometry" />
        </mxCell>
        <mxCell id="q1FodN6zL91qWun3fkt1-295" value="" style="endArrow=oval;html=1;rounded=0;endFill=1;strokeWidth=3;sketch=1;curveFitting=1;jiggle=2;" parent="1" edge="1">
          <mxGeometry width="50" height="50" relative="1" as="geometry">
            <mxPoint x="1291" y="-91" as="sourcePoint" />
            <mxPoint x="1290" y="-160" as="targetPoint" />
          </mxGeometry>
        </mxCell>
        <mxCell id="q1FodN6zL91qWun3fkt1-296" value="" style="endArrow=none;html=1;rounded=0;sketch=1;curveFitting=1;jiggle=2;strokeWidth=3;" parent="1" edge="1">
          <mxGeometry width="50" height="50" relative="1" as="geometry">
            <mxPoint x="1240" y="10.600000000000023" as="sourcePoint" />
            <mxPoint x="1240" y="-79.39999999999998" as="targetPoint" />
          </mxGeometry>
        </mxCell>
        <mxCell id="q1FodN6zL91qWun3fkt1-297" value="" style="endArrow=none;html=1;rounded=0;sketch=1;curveFitting=1;jiggle=2;strokeWidth=3;" parent="1" edge="1">
          <mxGeometry width="50" height="50" relative="1" as="geometry">
            <mxPoint x="1240" y="-80" as="sourcePoint" />
            <mxPoint x="1470" y="-80" as="targetPoint" />
          </mxGeometry>
        </mxCell>
        <mxCell id="q1FodN6zL91qWun3fkt1-298" value="" style="endArrow=none;html=1;rounded=0;sketch=1;curveFitting=1;jiggle=2;strokeWidth=3;" parent="1" edge="1">
          <mxGeometry width="50" height="50" relative="1" as="geometry">
            <mxPoint x="1410" y="-160" as="sourcePoint" />
            <mxPoint x="1470" y="-160" as="targetPoint" />
          </mxGeometry>
        </mxCell>
        <mxCell id="q1FodN6zL91qWun3fkt1-299" value="" style="endArrow=none;html=1;rounded=0;sketch=1;curveFitting=1;jiggle=2;strokeWidth=3;" parent="1" edge="1">
          <mxGeometry width="50" height="50" relative="1" as="geometry">
            <mxPoint x="1470" y="-79.39999999999998" as="sourcePoint" />
            <mxPoint x="1470" y="-159.39999999999998" as="targetPoint" />
          </mxGeometry>
        </mxCell>
        <mxCell id="q1FodN6zL91qWun3fkt1-300" value="aluOut" style="text;html=1;strokeColor=none;fillColor=none;align=center;verticalAlign=middle;whiteSpace=wrap;rounded=0;fontFamily=Comic Sans MS;fontSize=13;fontStyle=2" parent="1" vertex="1">
          <mxGeometry x="1410" y="-180.74999999999994" width="56.25" height="20" as="geometry" />
        </mxCell>
        <mxCell id="q1FodN6zL91qWun3fkt1-301" value="" style="endArrow=none;html=1;rounded=0;strokeWidth=3;sketch=1;curveFitting=1;jiggle=2;" parent="1" edge="1">
          <mxGeometry width="50" height="50" relative="1" as="geometry">
            <mxPoint x="1270" y="90" as="sourcePoint" />
            <mxPoint x="1270" y="50" as="targetPoint" />
          </mxGeometry>
        </mxCell>
        <mxCell id="q1FodN6zL91qWun3fkt1-302" value="" style="endArrow=none;html=1;rounded=0;sketch=1;curveFitting=1;jiggle=2;strokeWidth=4;" parent="1" edge="1">
          <mxGeometry width="50" height="50" relative="1" as="geometry">
            <mxPoint x="1250" y="90" as="sourcePoint" />
            <mxPoint x="1290" y="90" as="targetPoint" />
          </mxGeometry>
        </mxCell>
        <mxCell id="q1FodN6zL91qWun3fkt1-303" value="" style="endArrow=oval;html=1;rounded=0;strokeWidth=3;sketch=1;curveFitting=1;jiggle=2;endFill=1;" parent="1" edge="1">
          <mxGeometry width="50" height="50" relative="1" as="geometry">
            <mxPoint x="1470" y="330" as="sourcePoint" />
            <mxPoint x="1470" y="-80" as="targetPoint" />
          </mxGeometry>
        </mxCell>
        <mxCell id="q1FodN6zL91qWun3fkt1-305" value="" style="endArrow=none;html=1;rounded=0;sketch=1;curveFitting=1;jiggle=2;strokeWidth=3;" parent="1" edge="1">
          <mxGeometry width="50" height="50" relative="1" as="geometry">
            <mxPoint x="350" y="330" as="sourcePoint" />
            <mxPoint x="1470" y="330" as="targetPoint" />
          </mxGeometry>
        </mxCell>
        <mxCell id="q1FodN6zL91qWun3fkt1-306" value="instr[25:0]" style="text;html=1;strokeColor=none;fillColor=none;align=center;verticalAlign=middle;whiteSpace=wrap;rounded=0;rotation=0;fontFamily=Comic Sans MS;fontStyle=2" parent="1" vertex="1">
          <mxGeometry x="489" y="250" width="64" height="20" as="geometry" />
        </mxCell>
        <mxCell id="q1FodN6zL91qWun3fkt1-307" value="&lt;font style=&quot;font-size: 17px&quot; face=&quot;Comic Sans MS&quot;&gt;2&amp;lt;&amp;lt;&lt;/font&gt;" style="shape=parallelogram;perimeter=parallelogramPerimeter;whiteSpace=wrap;html=1;fixedSize=1;fillColor=#e3c800;strokeColor=#B09500;fontColor=#ffffff;sketch=1;strokeWidth=1;" parent="1" vertex="1">
          <mxGeometry x="543" y="250" width="70" height="40" as="geometry" />
        </mxCell>
        <mxCell id="q1FodN6zL91qWun3fkt1-308" value="slt_jmp" style="text;html=1;strokeColor=none;fillColor=none;align=center;verticalAlign=middle;whiteSpace=wrap;rounded=0;fontFamily=Comic Sans MS;fontSize=13;fontStyle=2" parent="1" vertex="1">
          <mxGeometry x="610.25" y="250" width="51.75" height="20" as="geometry" />
        </mxCell>
        <mxCell id="q1FodN6zL91qWun3fkt1-309" value="" style="endArrow=none;html=1;rounded=0;entryX=0;entryY=0.5;entryDx=0;entryDy=0;sketch=1;curveFitting=1;jiggle=2;strokeWidth=2;" parent="1" target="q1FodN6zL91qWun3fkt1-307" edge="1">
          <mxGeometry width="50" height="50" relative="1" as="geometry">
            <mxPoint x="460" y="270" as="sourcePoint" />
            <mxPoint x="549" y="220" as="targetPoint" />
          </mxGeometry>
        </mxCell>
        <mxCell id="q1FodN6zL91qWun3fkt1-310" value="" style="endArrow=none;html=1;rounded=0;exitX=1;exitY=0.5;exitDx=0;exitDy=0;strokeWidth=3;sketch=1;curveFitting=1;jiggle=2;" parent="1" source="q1FodN6zL91qWun3fkt1-307" edge="1">
          <mxGeometry width="50" height="50" relative="1" as="geometry">
            <mxPoint x="578" y="270" as="sourcePoint" />
            <mxPoint x="1200" y="270" as="targetPoint" />
          </mxGeometry>
        </mxCell>
        <mxCell id="q1FodN6zL91qWun3fkt1-311" value="" style="endArrow=oval;html=1;rounded=0;sketch=1;curveFitting=1;jiggle=2;strokeWidth=2;endFill=1;" parent="1" edge="1">
          <mxGeometry width="50" height="50" relative="1" as="geometry">
            <mxPoint x="460" y="270" as="sourcePoint" />
            <mxPoint x="460" y="120" as="targetPoint" />
          </mxGeometry>
        </mxCell>
        <mxCell id="q1FodN6zL91qWun3fkt1-312" value="&lt;font style=&quot;font-size: 15px&quot; face=&quot;Comic Sans MS&quot; color=&quot;#ffffff&quot;&gt;&lt;b&gt;U_4&lt;/b&gt;&lt;/font&gt;" style="text;html=1;strokeColor=none;fillColor=none;align=center;verticalAlign=middle;whiteSpace=wrap;rounded=0;" parent="1" vertex="1">
          <mxGeometry x="551.25" y="290" width="40" height="20" as="geometry" />
        </mxCell>
        <mxCell id="q1FodN6zL91qWun3fkt1-313" value="" style="endArrow=none;html=1;rounded=0;sketch=1;curveFitting=1;jiggle=2;strokeWidth=3;startArrow=oval;startFill=1;" parent="1" edge="1">
          <mxGeometry width="50" height="50" relative="1" as="geometry">
            <mxPoint x="1110" y="270" as="sourcePoint" />
            <mxPoint x="1109" y="-128.8181818181818" as="targetPoint" />
          </mxGeometry>
        </mxCell>
        <mxCell id="q1FodN6zL91qWun3fkt1-314" value="" style="endArrow=none;html=1;rounded=0;sketch=1;curveFitting=1;jiggle=2;strokeWidth=3;" parent="1" edge="1">
          <mxGeometry width="50" height="50" relative="1" as="geometry">
            <mxPoint x="1200" y="270" as="sourcePoint" />
            <mxPoint x="1200" y="30" as="targetPoint" />
          </mxGeometry>
        </mxCell>
        <mxCell id="q1FodN6zL91qWun3fkt1-315" value="" style="endArrow=none;html=1;rounded=0;strokeWidth=3;sketch=1;curveFitting=1;jiggle=2;" parent="1" edge="1">
          <mxGeometry width="50" height="50" relative="1" as="geometry">
            <mxPoint x="-410" y="370" as="sourcePoint" />
            <mxPoint x="-410" y="-70" as="targetPoint" />
          </mxGeometry>
        </mxCell>
        <mxCell id="q1FodN6zL91qWun3fkt1-316" value="" style="endArrow=oval;html=1;rounded=0;endFill=1;sketch=1;curveFitting=1;jiggle=2;strokeWidth=3;" parent="1" edge="1">
          <mxGeometry width="50" height="50" relative="1" as="geometry">
            <mxPoint x="-140" y="330" as="sourcePoint" />
            <mxPoint x="350" y="330" as="targetPoint" />
          </mxGeometry>
        </mxCell>
        <mxCell id="q1FodN6zL91qWun3fkt1-317" value="" style="endArrow=none;html=1;rounded=0;sketch=1;curveFitting=1;jiggle=2;strokeWidth=3;" parent="1" edge="1">
          <mxGeometry width="50" height="50" relative="1" as="geometry">
            <mxPoint x="-410" y="370" as="sourcePoint" />
            <mxPoint x="1420" y="370" as="targetPoint" />
          </mxGeometry>
        </mxCell>
        <mxCell id="q1FodN6zL91qWun3fkt1-318" value="" style="endArrow=none;html=1;rounded=0;exitX=0.516;exitY=-0.011;exitDx=0;exitDy=0;exitPerimeter=0;entryX=1;entryY=1;entryDx=0;entryDy=0;strokeWidth=3;sketch=1;curveFitting=1;jiggle=2;" parent="1" source="q1FodN6zL91qWun3fkt1-277" target="q1FodN6zL91qWun3fkt1-286" edge="1">
          <mxGeometry width="50" height="50" relative="1" as="geometry">
            <mxPoint x="1345.12" y="25.110000000000014" as="sourcePoint" />
            <mxPoint x="1415.12" y="25.110000000000014" as="targetPoint" />
          </mxGeometry>
        </mxCell>
        <mxCell id="q1FodN6zL91qWun3fkt1-319" value="" style="endArrow=none;html=1;rounded=0;entryX=1;entryY=1;entryDx=0;entryDy=0;strokeWidth=3;sketch=1;curveFitting=1;jiggle=2;" parent="1" target="q1FodN6zL91qWun3fkt1-286" edge="1">
          <mxGeometry width="50" height="50" relative="1" as="geometry">
            <mxPoint x="1420" y="370" as="sourcePoint" />
            <mxPoint x="1420" y="30" as="targetPoint" />
          </mxGeometry>
        </mxCell>
        <mxCell id="q1FodN6zL91qWun3fkt1-320" value="jump_addr" style="text;html=1;strokeColor=none;fillColor=none;align=center;verticalAlign=middle;whiteSpace=wrap;rounded=0;fontFamily=Comic Sans MS;fontSize=13;fontStyle=2" parent="1" vertex="1">
          <mxGeometry x="1142" y="250.00000000000003" width="41.25" height="20" as="geometry" />
        </mxCell>
        <mxCell id="q1FodN6zL91qWun3fkt1-323" value="" style="endArrow=none;html=1;rounded=0;sketch=1;curveFitting=1;jiggle=2;" parent="1" edge="1">
          <mxGeometry width="50" height="50" relative="1" as="geometry">
            <mxPoint x="424" y="-350" as="sourcePoint" />
            <mxPoint x="500" y="-350" as="targetPoint" />
          </mxGeometry>
        </mxCell>
        <mxCell id="q1FodN6zL91qWun3fkt1-324" value="" style="endArrow=none;html=1;rounded=0;sketch=1;curveFitting=1;jiggle=2;entryX=1;entryY=1;entryDx=0;entryDy=0;" parent="1" target="q1FodN6zL91qWun3fkt1-145" edge="1">
          <mxGeometry width="50" height="50" relative="1" as="geometry">
            <mxPoint x="362.75" y="-349.7" as="sourcePoint" />
            <mxPoint x="438.75" y="-349.7" as="targetPoint" />
          </mxGeometry>
        </mxCell>
        <mxCell id="q1FodN6zL91qWun3fkt1-325" value="" style="endArrow=none;html=1;rounded=0;sketch=1;curveFitting=1;jiggle=2;" parent="1" edge="1">
          <mxGeometry width="50" height="50" relative="1" as="geometry">
            <mxPoint x="128" y="-350.06" as="sourcePoint" />
            <mxPoint x="171" y="-349" as="targetPoint" />
          </mxGeometry>
        </mxCell>
        <mxCell id="q1FodN6zL91qWun3fkt1-327" value="" style="endArrow=none;html=1;rounded=0;sketch=1;curveFitting=1;jiggle=2;entryX=1;entryY=1;entryDx=0;entryDy=0;" parent="1" edge="1">
          <mxGeometry width="50" height="50" relative="1" as="geometry">
            <mxPoint x="-70" y="-359.48" as="sourcePoint" />
            <mxPoint x="-27.75" y="-359.78" as="targetPoint" />
          </mxGeometry>
        </mxCell>
        <mxCell id="q1FodN6zL91qWun3fkt1-328" value="" style="endArrow=none;html=1;rounded=0;sketch=1;curveFitting=1;jiggle=2;entryX=1.064;entryY=1.043;entryDx=0;entryDy=0;entryPerimeter=0;" parent="1" target="q1FodN6zL91qWun3fkt1-34" edge="1">
          <mxGeometry width="50" height="50" relative="1" as="geometry">
            <mxPoint x="-211" y="-359.70000000000005" as="sourcePoint" />
            <mxPoint x="-168.75" y="-360" as="targetPoint" />
          </mxGeometry>
        </mxCell>
        <mxCell id="q1FodN6zL91qWun3fkt1-329" value="" style="endArrow=none;html=1;rounded=0;sketch=1;curveFitting=1;jiggle=2;" parent="1" edge="1">
          <mxGeometry width="50" height="50" relative="1" as="geometry">
            <mxPoint x="-340" y="-360.70000000000005" as="sourcePoint" />
            <mxPoint x="-289" y="-360" as="targetPoint" />
          </mxGeometry>
        </mxCell>
        <mxCell id="q1FodN6zL91qWun3fkt1-330" value="" style="endArrow=none;html=1;rounded=0;sketch=1;curveFitting=1;jiggle=2;" parent="1" edge="1">
          <mxGeometry width="50" height="50" relative="1" as="geometry">
            <mxPoint x="969.0000000000001" y="-350.33000000000004" as="sourcePoint" />
            <mxPoint x="1031" y="-350" as="targetPoint" />
          </mxGeometry>
        </mxCell>
        <mxCell id="q1FodN6zL91qWun3fkt1-332" value="" style="endArrow=none;html=1;rounded=0;sketch=1;curveFitting=1;jiggle=2;" parent="1" edge="1">
          <mxGeometry width="50" height="50" relative="1" as="geometry">
            <mxPoint x="1059" y="-349.96000000000004" as="sourcePoint" />
            <mxPoint x="1152" y="-349" as="targetPoint" />
          </mxGeometry>
        </mxCell>
        <mxCell id="q1FodN6zL91qWun3fkt1-333" value="" style="endArrow=none;html=1;edgeStyle=orthogonalEdgeStyle;curved=1;strokeWidth=1;targetPerimeterSpacing=0;sketch=1;" parent="1" edge="1">
          <mxGeometry width="50" height="50" relative="1" as="geometry">
            <mxPoint x="362.75" y="-200.76999999999998" as="sourcePoint" />
            <mxPoint x="362.75" y="-180.76999999999998" as="targetPoint" />
            <Array as="points">
              <mxPoint x="372.75" y="-200.76999999999998" />
              <mxPoint x="372.75" y="-180.76999999999998" />
            </Array>
          </mxGeometry>
        </mxCell>
        <mxCell id="GJjS6KV4VM9Vp5R69nyK-1" value="" style="endArrow=none;html=1;edgeStyle=orthogonalEdgeStyle;curved=1;sketch=1;" parent="1" edge="1">
          <mxGeometry width="50" height="50" relative="1" as="geometry">
            <mxPoint x="-80" y="-309.99" as="sourcePoint" />
            <mxPoint x="-60" y="-309.99" as="targetPoint" />
            <Array as="points">
              <mxPoint x="-80" y="-319.99" />
              <mxPoint x="-60" y="-319.99" />
            </Array>
          </mxGeometry>
        </mxCell>
        <mxCell id="GJjS6KV4VM9Vp5R69nyK-2" value="" style="endArrow=none;html=1;edgeStyle=orthogonalEdgeStyle;curved=1;sketch=1;strokeWidth=3;" parent="1" edge="1">
          <mxGeometry width="50" height="50" relative="1" as="geometry">
            <mxPoint x="-80" y="-279.63" as="sourcePoint" />
            <mxPoint x="-60" y="-279.63" as="targetPoint" />
            <Array as="points">
              <mxPoint x="-80" y="-289.63" />
              <mxPoint x="-60" y="-289.63" />
            </Array>
          </mxGeometry>
        </mxCell>
        <mxCell id="GJjS6KV4VM9Vp5R69nyK-3" value="" style="endArrow=none;html=1;edgeStyle=orthogonalEdgeStyle;curved=1;sketch=1;" parent="1" edge="1">
          <mxGeometry width="50" height="50" relative="1" as="geometry">
            <mxPoint x="50" y="-309.99" as="sourcePoint" />
            <mxPoint x="70" y="-309.99" as="targetPoint" />
            <Array as="points">
              <mxPoint x="50" y="-319.99" />
              <mxPoint x="70" y="-319.99" />
            </Array>
          </mxGeometry>
        </mxCell>
        <mxCell id="GJjS6KV4VM9Vp5R69nyK-4" value="" style="endArrow=none;html=1;edgeStyle=orthogonalEdgeStyle;curved=1;sketch=1;strokeWidth=3;" parent="1" edge="1">
          <mxGeometry width="50" height="50" relative="1" as="geometry">
            <mxPoint x="50" y="-279.63" as="sourcePoint" />
            <mxPoint x="70" y="-279.63" as="targetPoint" />
            <Array as="points">
              <mxPoint x="50" y="-289.63" />
              <mxPoint x="70" y="-289.63" />
            </Array>
          </mxGeometry>
        </mxCell>
        <mxCell id="GJjS6KV4VM9Vp5R69nyK-5" value="" style="endArrow=none;html=1;edgeStyle=orthogonalEdgeStyle;curved=1;sketch=1;" parent="1" edge="1">
          <mxGeometry width="50" height="50" relative="1" as="geometry">
            <mxPoint x="80" y="-309.99" as="sourcePoint" />
            <mxPoint x="100" y="-309.99" as="targetPoint" />
            <Array as="points">
              <mxPoint x="80" y="-319.99" />
              <mxPoint x="100" y="-319.99" />
            </Array>
          </mxGeometry>
        </mxCell>
        <mxCell id="GJjS6KV4VM9Vp5R69nyK-6" value="" style="endArrow=none;html=1;edgeStyle=orthogonalEdgeStyle;curved=1;sketch=1;strokeWidth=3;" parent="1" edge="1">
          <mxGeometry width="50" height="50" relative="1" as="geometry">
            <mxPoint x="80" y="-279.63" as="sourcePoint" />
            <mxPoint x="100" y="-279.63" as="targetPoint" />
            <Array as="points">
              <mxPoint x="80" y="-289.63" />
              <mxPoint x="100" y="-289.63" />
            </Array>
          </mxGeometry>
        </mxCell>
        <mxCell id="GJjS6KV4VM9Vp5R69nyK-7" value="" style="endArrow=none;html=1;edgeStyle=orthogonalEdgeStyle;curved=1;sketch=1;" parent="1" edge="1">
          <mxGeometry width="50" height="50" relative="1" as="geometry">
            <mxPoint x="120" y="-309.99" as="sourcePoint" />
            <mxPoint x="140" y="-309.99" as="targetPoint" />
            <Array as="points">
              <mxPoint x="120" y="-319.99" />
              <mxPoint x="140" y="-319.99" />
            </Array>
          </mxGeometry>
        </mxCell>
        <mxCell id="GJjS6KV4VM9Vp5R69nyK-8" value="" style="endArrow=none;html=1;edgeStyle=orthogonalEdgeStyle;curved=1;sketch=1;strokeWidth=3;" parent="1" edge="1">
          <mxGeometry width="50" height="50" relative="1" as="geometry">
            <mxPoint x="120" y="-279.63" as="sourcePoint" />
            <mxPoint x="140" y="-279.63" as="targetPoint" />
            <Array as="points">
              <mxPoint x="120" y="-289.63" />
              <mxPoint x="140" y="-289.63" />
            </Array>
          </mxGeometry>
        </mxCell>
        <mxCell id="GJjS6KV4VM9Vp5R69nyK-11" value="" style="endArrow=none;html=1;edgeStyle=orthogonalEdgeStyle;curved=1;sketch=1;" parent="1" edge="1">
          <mxGeometry width="50" height="50" relative="1" as="geometry">
            <mxPoint x="355.13" y="-309.99" as="sourcePoint" />
            <mxPoint x="375.13" y="-309.99" as="targetPoint" />
            <Array as="points">
              <mxPoint x="355.13" y="-319.99" />
              <mxPoint x="375.13" y="-319.99" />
            </Array>
          </mxGeometry>
        </mxCell>
        <mxCell id="GJjS6KV4VM9Vp5R69nyK-12" value="" style="endArrow=none;html=1;edgeStyle=orthogonalEdgeStyle;curved=1;sketch=1;strokeWidth=3;" parent="1" edge="1">
          <mxGeometry width="50" height="50" relative="1" as="geometry">
            <mxPoint x="355.13" y="-279.63" as="sourcePoint" />
            <mxPoint x="375.13" y="-279.63" as="targetPoint" />
            <Array as="points">
              <mxPoint x="355.13" y="-289.63" />
              <mxPoint x="375.13" y="-289.63" />
            </Array>
          </mxGeometry>
        </mxCell>
        <mxCell id="GJjS6KV4VM9Vp5R69nyK-13" value="" style="endArrow=none;html=1;edgeStyle=orthogonalEdgeStyle;curved=1;sketch=1;" parent="1" edge="1">
          <mxGeometry width="50" height="50" relative="1" as="geometry">
            <mxPoint x="415.14" y="-309.99" as="sourcePoint" />
            <mxPoint x="435.14" y="-309.99" as="targetPoint" />
            <Array as="points">
              <mxPoint x="415.14" y="-319.99" />
              <mxPoint x="435.14" y="-319.99" />
            </Array>
          </mxGeometry>
        </mxCell>
        <mxCell id="GJjS6KV4VM9Vp5R69nyK-14" value="" style="endArrow=none;html=1;edgeStyle=orthogonalEdgeStyle;curved=1;sketch=1;strokeWidth=3;" parent="1" edge="1">
          <mxGeometry width="50" height="50" relative="1" as="geometry">
            <mxPoint x="415.14" y="-279.63" as="sourcePoint" />
            <mxPoint x="435.14" y="-279.63" as="targetPoint" />
            <Array as="points">
              <mxPoint x="415.14" y="-289.63" />
              <mxPoint x="435.14" y="-289.63" />
            </Array>
          </mxGeometry>
        </mxCell>
        <mxCell id="GJjS6KV4VM9Vp5R69nyK-15" value="" style="endArrow=none;html=1;edgeStyle=orthogonalEdgeStyle;curved=1;sketch=1;" parent="1" edge="1">
          <mxGeometry width="50" height="50" relative="1" as="geometry">
            <mxPoint x="667.03" y="-309.99" as="sourcePoint" />
            <mxPoint x="687.03" y="-309.99" as="targetPoint" />
            <Array as="points">
              <mxPoint x="667.03" y="-319.99" />
              <mxPoint x="687.03" y="-319.99" />
            </Array>
          </mxGeometry>
        </mxCell>
        <mxCell id="GJjS6KV4VM9Vp5R69nyK-16" value="" style="endArrow=none;html=1;edgeStyle=orthogonalEdgeStyle;curved=1;sketch=1;strokeWidth=3;" parent="1" edge="1">
          <mxGeometry width="50" height="50" relative="1" as="geometry">
            <mxPoint x="667.03" y="-279.63" as="sourcePoint" />
            <mxPoint x="687.03" y="-279.63" as="targetPoint" />
            <Array as="points">
              <mxPoint x="667.03" y="-289.63" />
              <mxPoint x="687.03" y="-289.63" />
            </Array>
          </mxGeometry>
        </mxCell>
        <mxCell id="GJjS6KV4VM9Vp5R69nyK-17" value="" style="endArrow=none;html=1;edgeStyle=orthogonalEdgeStyle;curved=1;sketch=1;" parent="1" edge="1">
          <mxGeometry width="50" height="50" relative="1" as="geometry">
            <mxPoint x="958.9399999999999" y="-309.99" as="sourcePoint" />
            <mxPoint x="978.9399999999999" y="-309.99" as="targetPoint" />
            <Array as="points">
              <mxPoint x="958.9399999999999" y="-319.99" />
              <mxPoint x="978.9399999999999" y="-319.99" />
            </Array>
          </mxGeometry>
        </mxCell>
        <mxCell id="GJjS6KV4VM9Vp5R69nyK-18" value="" style="endArrow=none;html=1;edgeStyle=orthogonalEdgeStyle;curved=1;sketch=1;strokeWidth=3;" parent="1" edge="1">
          <mxGeometry width="50" height="50" relative="1" as="geometry">
            <mxPoint x="958.9399999999999" y="-279.63" as="sourcePoint" />
            <mxPoint x="978.9399999999999" y="-279.63" as="targetPoint" />
            <Array as="points">
              <mxPoint x="958.9399999999999" y="-289.63" />
              <mxPoint x="978.9399999999999" y="-289.63" />
            </Array>
          </mxGeometry>
        </mxCell>
        <mxCell id="GJjS6KV4VM9Vp5R69nyK-19" value="" style="endArrow=none;html=1;edgeStyle=orthogonalEdgeStyle;curved=1;sketch=1;" parent="1" edge="1">
          <mxGeometry width="50" height="50" relative="1" as="geometry">
            <mxPoint x="1050.04" y="-309.99" as="sourcePoint" />
            <mxPoint x="1070.04" y="-309.99" as="targetPoint" />
            <Array as="points">
              <mxPoint x="1050.04" y="-319.99" />
              <mxPoint x="1070.04" y="-319.99" />
            </Array>
          </mxGeometry>
        </mxCell>
        <mxCell id="GJjS6KV4VM9Vp5R69nyK-20" value="" style="endArrow=none;html=1;edgeStyle=orthogonalEdgeStyle;curved=1;sketch=1;strokeWidth=3;" parent="1" edge="1">
          <mxGeometry width="50" height="50" relative="1" as="geometry">
            <mxPoint x="1050.04" y="-279.63" as="sourcePoint" />
            <mxPoint x="1070.04" y="-279.63" as="targetPoint" />
            <Array as="points">
              <mxPoint x="1050.04" y="-289.63" />
              <mxPoint x="1070.04" y="-289.63" />
            </Array>
          </mxGeometry>
        </mxCell>
        <mxCell id="GJjS6KV4VM9Vp5R69nyK-21" value="" style="endArrow=none;html=1;edgeStyle=orthogonalEdgeStyle;curved=1;sketch=1;" parent="1" edge="1">
          <mxGeometry width="50" height="50" relative="1" as="geometry">
            <mxPoint x="1201.26" y="-309.99" as="sourcePoint" />
            <mxPoint x="1221.26" y="-309.99" as="targetPoint" />
            <Array as="points">
              <mxPoint x="1201.26" y="-319.99" />
              <mxPoint x="1221.26" y="-319.99" />
            </Array>
          </mxGeometry>
        </mxCell>
        <mxCell id="GJjS6KV4VM9Vp5R69nyK-22" value="" style="endArrow=none;html=1;rounded=0;sketch=1;curveFitting=1;jiggle=2;" parent="1" edge="1">
          <mxGeometry width="50" height="50" relative="1" as="geometry">
            <mxPoint x="-190" y="-310" as="sourcePoint" />
            <mxPoint x="-80" y="-310" as="targetPoint" />
          </mxGeometry>
        </mxCell>
        <mxCell id="GJjS6KV4VM9Vp5R69nyK-23" value="" style="endArrow=none;html=1;rounded=0;sketch=1;curveFitting=1;jiggle=2;" parent="1" edge="1">
          <mxGeometry width="50" height="50" relative="1" as="geometry">
            <mxPoint x="-60" y="-310" as="sourcePoint" />
            <mxPoint x="50" y="-310" as="targetPoint" />
          </mxGeometry>
        </mxCell>
        <mxCell id="GJjS6KV4VM9Vp5R69nyK-24" value="" style="endArrow=none;html=1;rounded=0;sketch=1;curveFitting=1;jiggle=2;" parent="1" edge="1">
          <mxGeometry width="50" height="50" relative="1" as="geometry">
            <mxPoint x="70" y="-310" as="sourcePoint" />
            <mxPoint x="80" y="-310" as="targetPoint" />
          </mxGeometry>
        </mxCell>
        <mxCell id="GJjS6KV4VM9Vp5R69nyK-25" value="" style="endArrow=none;html=1;rounded=0;sketch=1;curveFitting=1;jiggle=2;" parent="1" edge="1">
          <mxGeometry width="50" height="50" relative="1" as="geometry">
            <mxPoint x="100" y="-310" as="sourcePoint" />
            <mxPoint x="120" y="-310" as="targetPoint" />
          </mxGeometry>
        </mxCell>
        <mxCell id="GJjS6KV4VM9Vp5R69nyK-26" value="" style="endArrow=none;html=1;rounded=0;sketch=1;curveFitting=1;jiggle=2;" parent="1" edge="1">
          <mxGeometry width="50" height="50" relative="1" as="geometry">
            <mxPoint x="140" y="-310" as="sourcePoint" />
            <mxPoint x="355" y="-309" as="targetPoint" />
          </mxGeometry>
        </mxCell>
        <mxCell id="GJjS6KV4VM9Vp5R69nyK-27" value="" style="endArrow=none;html=1;rounded=0;sketch=1;curveFitting=1;jiggle=2;" parent="1" edge="1">
          <mxGeometry width="50" height="50" relative="1" as="geometry">
            <mxPoint x="375" y="-310" as="sourcePoint" />
            <mxPoint x="415" y="-310" as="targetPoint" />
          </mxGeometry>
        </mxCell>
        <mxCell id="GJjS6KV4VM9Vp5R69nyK-28" value="" style="endArrow=none;html=1;rounded=0;sketch=1;curveFitting=1;jiggle=2;" parent="1" edge="1">
          <mxGeometry width="50" height="50" relative="1" as="geometry">
            <mxPoint x="435" y="-310" as="sourcePoint" />
            <mxPoint x="666" y="-310" as="targetPoint" />
          </mxGeometry>
        </mxCell>
        <mxCell id="GJjS6KV4VM9Vp5R69nyK-29" value="" style="endArrow=none;html=1;rounded=0;sketch=1;curveFitting=1;jiggle=2;" parent="1" edge="1">
          <mxGeometry width="50" height="50" relative="1" as="geometry">
            <mxPoint x="687" y="-310" as="sourcePoint" />
            <mxPoint x="959" y="-310" as="targetPoint" />
          </mxGeometry>
        </mxCell>
        <mxCell id="GJjS6KV4VM9Vp5R69nyK-30" value="" style="endArrow=none;html=1;rounded=0;sketch=1;curveFitting=1;jiggle=2;" parent="1" edge="1">
          <mxGeometry width="50" height="50" relative="1" as="geometry">
            <mxPoint x="979" y="-309" as="sourcePoint" />
            <mxPoint x="1050" y="-309" as="targetPoint" />
          </mxGeometry>
        </mxCell>
        <mxCell id="GJjS6KV4VM9Vp5R69nyK-31" value="" style="endArrow=none;html=1;rounded=0;sketch=1;curveFitting=1;jiggle=2;" parent="1" edge="1">
          <mxGeometry width="50" height="50" relative="1" as="geometry">
            <mxPoint x="1070" y="-309" as="sourcePoint" />
            <mxPoint x="1201" y="-310" as="targetPoint" />
          </mxGeometry>
        </mxCell>
        <mxCell id="GJjS6KV4VM9Vp5R69nyK-32" value="" style="endArrow=none;html=1;rounded=0;sketch=1;curveFitting=1;jiggle=2;strokeWidth=3;" parent="1" edge="1">
          <mxGeometry width="50" height="50" relative="1" as="geometry">
            <mxPoint x="-160" y="-280" as="sourcePoint" />
            <mxPoint x="-80" y="-279" as="targetPoint" />
          </mxGeometry>
        </mxCell>
        <mxCell id="GJjS6KV4VM9Vp5R69nyK-33" value="" style="endArrow=none;html=1;rounded=0;sketch=1;curveFitting=1;jiggle=2;strokeWidth=3;" parent="1" edge="1">
          <mxGeometry width="50" height="50" relative="1" as="geometry">
            <mxPoint x="-59" y="-279.63" as="sourcePoint" />
            <mxPoint x="50" y="-279" as="targetPoint" />
          </mxGeometry>
        </mxCell>
        <mxCell id="GJjS6KV4VM9Vp5R69nyK-34" value="" style="endArrow=none;html=1;rounded=0;sketch=1;curveFitting=1;jiggle=2;strokeWidth=3;" parent="1" edge="1">
          <mxGeometry width="50" height="50" relative="1" as="geometry">
            <mxPoint x="70" y="-280" as="sourcePoint" />
            <mxPoint x="80" y="-280" as="targetPoint" />
          </mxGeometry>
        </mxCell>
        <mxCell id="GJjS6KV4VM9Vp5R69nyK-35" value="" style="endArrow=none;html=1;rounded=0;sketch=1;curveFitting=1;jiggle=2;strokeWidth=3;" parent="1" edge="1">
          <mxGeometry width="50" height="50" relative="1" as="geometry">
            <mxPoint x="100" y="-279.63" as="sourcePoint" />
            <mxPoint x="120" y="-280" as="targetPoint" />
          </mxGeometry>
        </mxCell>
        <mxCell id="GJjS6KV4VM9Vp5R69nyK-36" value="" style="endArrow=none;html=1;rounded=0;sketch=1;curveFitting=1;jiggle=2;strokeWidth=3;" parent="1" edge="1">
          <mxGeometry width="50" height="50" relative="1" as="geometry">
            <mxPoint x="140" y="-279.63" as="sourcePoint" />
            <mxPoint x="355" y="-280" as="targetPoint" />
          </mxGeometry>
        </mxCell>
        <mxCell id="GJjS6KV4VM9Vp5R69nyK-37" value="" style="endArrow=none;html=1;rounded=0;sketch=1;curveFitting=1;jiggle=2;strokeWidth=3;" parent="1" edge="1">
          <mxGeometry width="50" height="50" relative="1" as="geometry">
            <mxPoint x="375.13" y="-279.63" as="sourcePoint" />
            <mxPoint x="415" y="-280" as="targetPoint" />
          </mxGeometry>
        </mxCell>
        <mxCell id="GJjS6KV4VM9Vp5R69nyK-38" value="" style="endArrow=none;html=1;rounded=0;sketch=1;curveFitting=1;jiggle=2;strokeWidth=3;" parent="1" edge="1">
          <mxGeometry width="50" height="50" relative="1" as="geometry">
            <mxPoint x="436" y="-279.26" as="sourcePoint" />
            <mxPoint x="667.1058201058202" y="-280" as="targetPoint" />
          </mxGeometry>
        </mxCell>
        <mxCell id="GJjS6KV4VM9Vp5R69nyK-39" value="" style="endArrow=none;html=1;rounded=0;sketch=1;curveFitting=1;jiggle=2;strokeWidth=3;" parent="1" edge="1">
          <mxGeometry width="50" height="50" relative="1" as="geometry">
            <mxPoint x="688" y="-279.26" as="sourcePoint" />
            <mxPoint x="959" y="-280" as="targetPoint" />
          </mxGeometry>
        </mxCell>
        <mxCell id="GJjS6KV4VM9Vp5R69nyK-40" value="" style="endArrow=none;html=1;rounded=0;sketch=1;curveFitting=1;jiggle=2;strokeWidth=3;" parent="1" edge="1">
          <mxGeometry width="50" height="50" relative="1" as="geometry">
            <mxPoint x="979" y="-279.26" as="sourcePoint" />
            <mxPoint x="1049" y="-280" as="targetPoint" />
          </mxGeometry>
        </mxCell>
        <mxCell id="GJjS6KV4VM9Vp5R69nyK-41" value="" style="endArrow=none;html=1;edgeStyle=orthogonalEdgeStyle;curved=1;strokeWidth=1;targetPerimeterSpacing=0;sketch=1;" parent="1" edge="1">
          <mxGeometry width="50" height="50" relative="1" as="geometry">
            <mxPoint x="424" y="-199" as="sourcePoint" />
            <mxPoint x="425.13" y="-179.1" as="targetPoint" />
            <Array as="points">
              <mxPoint x="435.13" y="-199.1" />
              <mxPoint x="435.13" y="-179.1" />
            </Array>
          </mxGeometry>
        </mxCell>
        <mxCell id="GJjS6KV4VM9Vp5R69nyK-44" value="" style="endArrow=none;html=1;edgeStyle=orthogonalEdgeStyle;curved=1;sketch=1;strokeWidth=3;" parent="1" edge="1">
          <mxGeometry width="50" height="50" relative="1" as="geometry">
            <mxPoint x="449" y="-14.460000000000008" as="sourcePoint" />
            <mxPoint x="469" y="-14.460000000000008" as="targetPoint" />
            <Array as="points">
              <mxPoint x="449" y="-24.460000000000008" />
              <mxPoint x="469" y="-24.460000000000008" />
            </Array>
          </mxGeometry>
        </mxCell>
        <mxCell id="GJjS6KV4VM9Vp5R69nyK-45" value="" style="endArrow=none;html=1;edgeStyle=orthogonalEdgeStyle;curved=1;sketch=1;strokeWidth=3;" parent="1" edge="1">
          <mxGeometry width="50" height="50" relative="1" as="geometry">
            <mxPoint x="449" y="-110.75" as="sourcePoint" />
            <mxPoint x="469" y="-110.75" as="targetPoint" />
            <Array as="points">
              <mxPoint x="449" y="-120.75" />
              <mxPoint x="469" y="-120.75" />
            </Array>
          </mxGeometry>
        </mxCell>
        <mxCell id="GJjS6KV4VM9Vp5R69nyK-46" value="" style="endArrow=none;html=1;rounded=0;exitX=0.5;exitY=0;exitDx=0;exitDy=0;strokeWidth=3;sketch=1;curveFitting=1;jiggle=2;" parent="1" source="q1FodN6zL91qWun3fkt1-131" edge="1">
          <mxGeometry width="50" height="50" relative="1" as="geometry">
            <mxPoint x="380" y="-110" as="sourcePoint" />
            <mxPoint x="450" y="-110" as="targetPoint" />
          </mxGeometry>
        </mxCell>
        <mxCell id="GJjS6KV4VM9Vp5R69nyK-47" value="" style="endArrow=none;html=1;rounded=0;exitX=0.5;exitY=0;exitDx=0;exitDy=0;sketch=1;curveFitting=1;jiggle=2;strokeWidth=3;" parent="1" source="q1FodN6zL91qWun3fkt1-147" edge="1">
          <mxGeometry width="50" height="50" relative="1" as="geometry">
            <mxPoint x="440" y="-10" as="sourcePoint" />
            <mxPoint x="449" y="-15" as="targetPoint" />
          </mxGeometry>
        </mxCell>
        <mxCell id="GJjS6KV4VM9Vp5R69nyK-48" value="" style="endArrow=none;html=1;rounded=0;exitX=0.151;exitY=0.4;exitDx=0;exitDy=0;exitPerimeter=0;sketch=1;curveFitting=1;jiggle=2;" parent="1" source="q1FodN6zL91qWun3fkt1-131" edge="1">
          <mxGeometry width="50" height="50" relative="1" as="geometry">
            <mxPoint x="313" y="-131" as="sourcePoint" />
            <mxPoint x="363" y="-181" as="targetPoint" />
          </mxGeometry>
        </mxCell>
        <mxCell id="GJjS6KV4VM9Vp5R69nyK-50" value="" style="endArrow=none;html=1;rounded=0;exitX=1;exitY=1;exitDx=0;exitDy=0;sketch=1;curveFitting=1;jiggle=2;" parent="1" source="q1FodN6zL91qWun3fkt1-157" edge="1">
          <mxGeometry width="50" height="50" relative="1" as="geometry">
            <mxPoint x="376" y="-129" as="sourcePoint" />
            <mxPoint x="426" y="-179" as="targetPoint" />
          </mxGeometry>
        </mxCell>
        <mxCell id="GJjS6KV4VM9Vp5R69nyK-51" value="" style="endArrow=none;html=1;edgeStyle=orthogonalEdgeStyle;curved=1;strokeWidth=3;targetPerimeterSpacing=0;sketch=1;" parent="1" edge="1">
          <mxGeometry width="50" height="50" relative="1" as="geometry">
            <mxPoint x="1108" y="-214.95" as="sourcePoint" />
            <mxPoint x="1108" y="-194.95" as="targetPoint" />
            <Array as="points">
              <mxPoint x="1118" y="-214.95" />
              <mxPoint x="1118" y="-194.95" />
            </Array>
          </mxGeometry>
        </mxCell>
        <mxCell id="GJjS6KV4VM9Vp5R69nyK-52" value="" style="endArrow=none;html=1;edgeStyle=orthogonalEdgeStyle;curved=1;strokeWidth=3;targetPerimeterSpacing=0;sketch=1;" parent="1" edge="1">
          <mxGeometry width="50" height="50" relative="1" as="geometry">
            <mxPoint x="1109" y="-149.11999999999998" as="sourcePoint" />
            <mxPoint x="1109" y="-129.11999999999998" as="targetPoint" />
            <Array as="points">
              <mxPoint x="1119" y="-149.11999999999998" />
              <mxPoint x="1119" y="-129.11999999999998" />
            </Array>
          </mxGeometry>
        </mxCell>
        <mxCell id="GJjS6KV4VM9Vp5R69nyK-53" value="" style="endArrow=none;html=1;edgeStyle=orthogonalEdgeStyle;curved=1;strokeWidth=1;targetPerimeterSpacing=0;sketch=1;" parent="1" edge="1">
          <mxGeometry width="50" height="50" relative="1" as="geometry">
            <mxPoint x="1059" y="-214.95999999999998" as="sourcePoint" />
            <mxPoint x="1059" y="-194.95999999999998" as="targetPoint" />
            <Array as="points">
              <mxPoint x="1069" y="-214.95999999999998" />
              <mxPoint x="1069" y="-194.95999999999998" />
            </Array>
          </mxGeometry>
        </mxCell>
        <mxCell id="GJjS6KV4VM9Vp5R69nyK-54" value="" style="endArrow=none;html=1;edgeStyle=orthogonalEdgeStyle;curved=1;strokeWidth=3;targetPerimeterSpacing=0;sketch=1;" parent="1" edge="1">
          <mxGeometry width="50" height="50" relative="1" as="geometry">
            <mxPoint x="1292.5" y="-89.99999999999999" as="sourcePoint" />
            <mxPoint x="1292.5" y="-69.99999999999999" as="targetPoint" />
            <Array as="points">
              <mxPoint x="1302.5" y="-89.99999999999999" />
              <mxPoint x="1302.5" y="-69.99999999999999" />
            </Array>
          </mxGeometry>
        </mxCell>
        <mxCell id="GJjS6KV4VM9Vp5R69nyK-55" value="" style="endArrow=none;html=1;edgeStyle=orthogonalEdgeStyle;curved=1;strokeWidth=1;targetPerimeterSpacing=0;sketch=1;" parent="1" edge="1">
          <mxGeometry width="50" height="50" relative="1" as="geometry">
            <mxPoint x="1420" y="319.03000000000003" as="sourcePoint" />
            <mxPoint x="1420" y="339.03000000000003" as="targetPoint" />
            <Array as="points">
              <mxPoint x="1430" y="319.03000000000003" />
              <mxPoint x="1430" y="339.03000000000003" />
            </Array>
          </mxGeometry>
        </mxCell>
        <mxCell id="GJjS6KV4VM9Vp5R69nyK-56" value="" style="endArrow=none;html=1;rounded=0;sketch=1;curveFitting=1;jiggle=2;" parent="1" edge="1">
          <mxGeometry width="50" height="50" relative="1" as="geometry">
            <mxPoint x="1059" y="-140" as="sourcePoint" />
            <mxPoint x="1059" y="-195" as="targetPoint" />
          </mxGeometry>
        </mxCell>
        <mxCell id="GJjS6KV4VM9Vp5R69nyK-57" value="" style="endArrow=none;html=1;rounded=0;strokeWidth=3;sketch=1;curveFitting=1;jiggle=2;" parent="1" edge="1">
          <mxGeometry width="50" height="50" relative="1" as="geometry">
            <mxPoint x="1108" y="-149.12" as="sourcePoint" />
            <mxPoint x="1107" y="-195" as="targetPoint" />
          </mxGeometry>
        </mxCell>
        <mxCell id="GJjS6KV4VM9Vp5R69nyK-58" value="" style="endArrow=none;html=1;rounded=0;sketch=1;curveFitting=1;jiggle=2;strokeWidth=3;" parent="1" edge="1">
          <mxGeometry width="50" height="50" relative="1" as="geometry">
            <mxPoint x="1109" y="-214" as="sourcePoint" />
            <mxPoint x="1110" y="-279" as="targetPoint" />
          </mxGeometry>
        </mxCell>
        <mxCell id="GJjS6KV4VM9Vp5R69nyK-59" value="" style="endArrow=none;html=1;rounded=0;sketch=1;curveFitting=1;jiggle=2;strokeWidth=3;exitX=0.579;exitY=0.006;exitDx=0;exitDy=0;exitPerimeter=0;" parent="1" source="q1FodN6zL91qWun3fkt1-288" edge="1">
          <mxGeometry width="50" height="50" relative="1" as="geometry">
            <mxPoint x="1292" y="-7" as="sourcePoint" />
            <mxPoint x="1291" y="-70" as="targetPoint" />
          </mxGeometry>
        </mxCell>
      </root>
    </mxGraphModel>
  </diagram>
  <diagram id="eJDfM_dXC93zc2bfZFn3" name="controller">
    <mxGraphModel dx="1433" dy="869" grid="0" gridSize="10" guides="1" tooltips="1" connect="1" arrows="1" fold="1" page="1" pageScale="1" pageWidth="850" pageHeight="1100" math="0" shadow="0">
      <root>
        <mxCell id="0" />
        <mxCell id="1" parent="0" />
        <mxCell id="Oki5a6Oc8MvwEm3A70gm-17" value="" style="rounded=0;whiteSpace=wrap;html=1;fillColor=#f0a30a;fontColor=#000000;strokeColor=#BD7000;sketch=1;curveFitting=1;jiggle=2;opacity=20;strokeWidth=2;perimeterSpacing=1;dashed=1;" parent="1" vertex="1">
          <mxGeometry x="100" y="300" width="610" height="220" as="geometry" />
        </mxCell>
        <mxCell id="aDF9miftjhoT-Un-m-qd-2" value="&lt;font face=&quot;Comic Sans MS&quot;&gt;&lt;font style=&quot;font-size: 26px&quot;&gt;&lt;b&gt;aludec&lt;/b&gt;&lt;/font&gt;&lt;br&gt;&lt;/font&gt;" style="rounded=0;whiteSpace=wrap;html=1;sketch=1;strokeWidth=1;strokeColor=#3700CC;fillColor=#6a00ff;fontColor=#ffffff;" parent="1" vertex="1">
          <mxGeometry x="120" y="320" width="200" height="120" as="geometry" />
        </mxCell>
        <mxCell id="aDF9miftjhoT-Un-m-qd-33" value="&lt;font style=&quot;font-size: 26px&quot; face=&quot;Comic Sans MS&quot;&gt;&lt;b&gt;maindec&lt;/b&gt;&lt;/font&gt;" style="rounded=0;whiteSpace=wrap;html=1;sketch=1;strokeWidth=1;strokeColor=#B20000;fillColor=#e51400;opacity=80;fontColor=#ffffff;" parent="1" vertex="1">
          <mxGeometry x="400" y="320" width="290" height="120" as="geometry" />
        </mxCell>
        <mxCell id="MaTdSu8jKpHGuUmhacOa-1" value="&lt;font style=&quot;font-size: 15px&quot; color=&quot;#000066&quot; face=&quot;Comic Sans MS&quot;&gt;&lt;b&gt;U_0&lt;/b&gt;&lt;/font&gt;" style="text;html=1;strokeColor=none;fillColor=none;align=center;verticalAlign=middle;whiteSpace=wrap;rounded=0;" parent="1" vertex="1">
          <mxGeometry x="650" y="450" width="50" height="20" as="geometry" />
        </mxCell>
        <mxCell id="MaTdSu8jKpHGuUmhacOa-2" value="&lt;font style=&quot;font-size: 15px&quot; face=&quot;Comic Sans MS&quot; color=&quot;#ffffff&quot;&gt;&lt;b&gt;U_1&lt;/b&gt;&lt;/font&gt;" style="text;html=1;strokeColor=none;fillColor=none;align=center;verticalAlign=middle;whiteSpace=wrap;rounded=0;" parent="1" vertex="1">
          <mxGeometry x="120" y="450" width="50" height="20" as="geometry" />
        </mxCell>
        <mxCell id="MaTdSu8jKpHGuUmhacOa-3" value="" style="endArrow=none;html=1;rounded=0;entryX=0;entryY=0.5;entryDx=0;entryDy=0;exitX=1;exitY=0.5;exitDx=0;exitDy=0;strokeWidth=3;sketch=1;curveFitting=1;jiggle=2;" parent="1" source="aDF9miftjhoT-Un-m-qd-2" target="aDF9miftjhoT-Un-m-qd-33" edge="1">
          <mxGeometry width="50" height="50" relative="1" as="geometry">
            <mxPoint x="360" y="300" as="sourcePoint" />
            <mxPoint x="410" y="250" as="targetPoint" />
          </mxGeometry>
        </mxCell>
        <mxCell id="MaTdSu8jKpHGuUmhacOa-4" value="aluop[1:0]" style="text;html=1;strokeColor=none;fillColor=none;align=center;verticalAlign=middle;whiteSpace=wrap;rounded=0;fontFamily=Comic Sans MS;fontSize=13;fontStyle=2" parent="1" vertex="1">
          <mxGeometry x="320" y="360" width="80" height="20" as="geometry" />
        </mxCell>
        <mxCell id="MaTdSu8jKpHGuUmhacOa-5" value="" style="endArrow=none;html=1;rounded=0;strokeWidth=2;sketch=1;curveFitting=1;jiggle=2;" parent="1" edge="1">
          <mxGeometry width="50" height="50" relative="1" as="geometry">
            <mxPoint x="190" y="610" as="sourcePoint" />
            <mxPoint x="190" y="440" as="targetPoint" />
          </mxGeometry>
        </mxCell>
        <mxCell id="MaTdSu8jKpHGuUmhacOa-6" value="" style="endArrow=none;html=1;rounded=0;strokeWidth=2;sketch=1;curveFitting=1;jiggle=2;" parent="1" edge="1">
          <mxGeometry width="50" height="50" relative="1" as="geometry">
            <mxPoint x="424" y="610" as="sourcePoint" />
            <mxPoint x="424" y="440" as="targetPoint" />
          </mxGeometry>
        </mxCell>
        <mxCell id="MaTdSu8jKpHGuUmhacOa-7" value="" style="endArrow=none;html=1;rounded=0;strokeWidth=2;sketch=1;curveFitting=1;jiggle=2;" parent="1" edge="1">
          <mxGeometry width="50" height="50" relative="1" as="geometry">
            <mxPoint x="250" y="610" as="sourcePoint" />
            <mxPoint x="250" y="440" as="targetPoint" />
          </mxGeometry>
        </mxCell>
        <mxCell id="MaTdSu8jKpHGuUmhacOa-8" value="alu_cntrk [2:0]" style="text;html=1;strokeColor=none;fillColor=none;align=center;verticalAlign=middle;whiteSpace=wrap;rounded=0;fontFamily=Comic Sans MS;fontSize=13;fontStyle=2;rotation=90;" parent="1" vertex="1">
          <mxGeometry x="155" y="565" width="100" height="20" as="geometry" />
        </mxCell>
        <mxCell id="Oki5a6Oc8MvwEm3A70gm-1" value="funct [5:0]" style="text;html=1;strokeColor=none;fillColor=none;align=center;verticalAlign=middle;whiteSpace=wrap;rounded=0;fontFamily=Comic Sans MS;fontSize=13;fontStyle=2;rotation=90;" parent="1" vertex="1">
          <mxGeometry x="220" y="550" width="90" height="20" as="geometry" />
        </mxCell>
        <mxCell id="Oki5a6Oc8MvwEm3A70gm-2" value="opcode [5:0]" style="text;html=1;strokeColor=none;fillColor=none;align=center;verticalAlign=middle;whiteSpace=wrap;rounded=0;fontFamily=Comic Sans MS;fontSize=13;fontStyle=2;rotation=90;" parent="1" vertex="1">
          <mxGeometry x="390" y="560" width="90" height="20" as="geometry" />
        </mxCell>
        <mxCell id="Oki5a6Oc8MvwEm3A70gm-3" value="" style="endArrow=none;html=1;rounded=0;strokeWidth=1;sketch=1;curveFitting=1;jiggle=2;fontSize=11;" parent="1" edge="1">
          <mxGeometry width="50" height="50" relative="1" as="geometry">
            <mxPoint x="454" y="610" as="sourcePoint" />
            <mxPoint x="454" y="440" as="targetPoint" />
          </mxGeometry>
        </mxCell>
        <mxCell id="Oki5a6Oc8MvwEm3A70gm-4" value="we_mem" style="text;html=1;strokeColor=none;fillColor=none;align=center;verticalAlign=middle;whiteSpace=wrap;rounded=0;fontFamily=Comic Sans MS;fontSize=13;fontStyle=2;rotation=90;" parent="1" vertex="1">
          <mxGeometry x="420" y="560" width="90" height="20" as="geometry" />
        </mxCell>
        <mxCell id="Oki5a6Oc8MvwEm3A70gm-5" value="" style="endArrow=none;html=1;rounded=0;strokeWidth=1;sketch=1;curveFitting=1;jiggle=2;" parent="1" edge="1">
          <mxGeometry width="50" height="50" relative="1" as="geometry">
            <mxPoint x="484" y="610" as="sourcePoint" />
            <mxPoint x="484" y="440" as="targetPoint" />
          </mxGeometry>
        </mxCell>
        <mxCell id="Oki5a6Oc8MvwEm3A70gm-6" value="branch" style="text;html=1;strokeColor=none;fillColor=none;align=center;verticalAlign=middle;whiteSpace=wrap;rounded=0;fontFamily=Comic Sans MS;fontSize=13;fontStyle=2;rotation=90;" parent="1" vertex="1">
          <mxGeometry x="450" y="560" width="90" height="20" as="geometry" />
        </mxCell>
        <mxCell id="Oki5a6Oc8MvwEm3A70gm-7" value="" style="endArrow=none;html=1;rounded=0;strokeWidth=1;sketch=1;curveFitting=1;jiggle=2;" parent="1" edge="1">
          <mxGeometry width="50" height="50" relative="1" as="geometry">
            <mxPoint x="514" y="610" as="sourcePoint" />
            <mxPoint x="514" y="440" as="targetPoint" />
          </mxGeometry>
        </mxCell>
        <mxCell id="Oki5a6Oc8MvwEm3A70gm-8" value="alu_src" style="text;html=1;strokeColor=none;fillColor=none;align=center;verticalAlign=middle;whiteSpace=wrap;rounded=0;fontFamily=Comic Sans MS;fontSize=13;fontStyle=2;rotation=90;" parent="1" vertex="1">
          <mxGeometry x="480" y="560" width="90" height="20" as="geometry" />
        </mxCell>
        <mxCell id="Oki5a6Oc8MvwEm3A70gm-9" value="" style="endArrow=none;html=1;rounded=0;strokeWidth=1;sketch=1;curveFitting=1;jiggle=2;" parent="1" edge="1">
          <mxGeometry width="50" height="50" relative="1" as="geometry">
            <mxPoint x="544" y="610" as="sourcePoint" />
            <mxPoint x="544" y="440" as="targetPoint" />
          </mxGeometry>
        </mxCell>
        <mxCell id="Oki5a6Oc8MvwEm3A70gm-10" value="mem_to_reg" style="text;html=1;strokeColor=none;fillColor=none;align=center;verticalAlign=middle;whiteSpace=wrap;rounded=0;fontFamily=Comic Sans MS;fontSize=13;fontStyle=2;rotation=90;" parent="1" vertex="1">
          <mxGeometry x="510" y="560" width="90" height="20" as="geometry" />
        </mxCell>
        <mxCell id="Oki5a6Oc8MvwEm3A70gm-11" value="" style="endArrow=none;html=1;rounded=0;strokeWidth=1;sketch=1;curveFitting=1;jiggle=2;" parent="1" edge="1">
          <mxGeometry width="50" height="50" relative="1" as="geometry">
            <mxPoint x="574" y="610" as="sourcePoint" />
            <mxPoint x="574" y="440" as="targetPoint" />
          </mxGeometry>
        </mxCell>
        <mxCell id="Oki5a6Oc8MvwEm3A70gm-12" value="we_regf" style="text;html=1;strokeColor=none;fillColor=none;align=center;verticalAlign=middle;whiteSpace=wrap;rounded=0;fontFamily=Comic Sans MS;fontSize=13;fontStyle=2;rotation=90;" parent="1" vertex="1">
          <mxGeometry x="540" y="560" width="90" height="20" as="geometry" />
        </mxCell>
        <mxCell id="Oki5a6Oc8MvwEm3A70gm-13" value="" style="endArrow=none;html=1;rounded=0;strokeWidth=1;sketch=1;curveFitting=1;jiggle=2;" parent="1" edge="1">
          <mxGeometry width="50" height="50" relative="1" as="geometry">
            <mxPoint x="604" y="610" as="sourcePoint" />
            <mxPoint x="604" y="440" as="targetPoint" />
          </mxGeometry>
        </mxCell>
        <mxCell id="Oki5a6Oc8MvwEm3A70gm-14" value="reg_dst" style="text;html=1;strokeColor=none;fillColor=none;align=center;verticalAlign=middle;whiteSpace=wrap;rounded=0;fontFamily=Comic Sans MS;fontSize=13;fontStyle=2;rotation=90;" parent="1" vertex="1">
          <mxGeometry x="570" y="560" width="90" height="20" as="geometry" />
        </mxCell>
        <mxCell id="Oki5a6Oc8MvwEm3A70gm-15" value="" style="endArrow=none;html=1;rounded=0;strokeWidth=1;sketch=1;curveFitting=1;jiggle=2;exitX=0.956;exitY=0.97;exitDx=0;exitDy=0;exitPerimeter=0;" parent="1" source="Oki5a6Oc8MvwEm3A70gm-16" edge="1">
          <mxGeometry width="50" height="50" relative="1" as="geometry">
            <mxPoint x="634" y="600" as="sourcePoint" />
            <mxPoint x="634" y="440" as="targetPoint" />
          </mxGeometry>
        </mxCell>
        <mxCell id="Oki5a6Oc8MvwEm3A70gm-16" value="jump" style="text;html=1;strokeColor=none;fillColor=none;align=center;verticalAlign=middle;whiteSpace=wrap;rounded=0;fontFamily=Comic Sans MS;fontSize=13;fontStyle=2;rotation=90;" parent="1" vertex="1">
          <mxGeometry x="600" y="560" width="90" height="20" as="geometry" />
        </mxCell>
        <mxCell id="qYSIkGx_SPIr2R4ozrUp-1" value="&lt;font size=&quot;1&quot; face=&quot;Comic Sans MS&quot;&gt;&lt;b style=&quot;&quot;&gt;&lt;i style=&quot;&quot;&gt;&lt;u style=&quot;font-size: 29px;&quot;&gt;Controller one-cycle processor&lt;/u&gt;&lt;/i&gt;&lt;/b&gt;&lt;/font&gt;" style="text;html=1;strokeColor=none;fillColor=none;align=center;verticalAlign=middle;whiteSpace=wrap;rounded=0;" parent="1" vertex="1">
          <mxGeometry x="120" y="240" width="570" height="30" as="geometry" />
        </mxCell>
        <mxCell id="XSdp2I2_pBUIekmLpWZb-1" value="" style="endArrow=none;html=1;rounded=0;" parent="1" edge="1">
          <mxGeometry width="50" height="50" relative="1" as="geometry">
            <mxPoint x="70" y="400" as="sourcePoint" />
            <mxPoint x="70" y="400" as="targetPoint" />
          </mxGeometry>
        </mxCell>
        <mxCell id="XSdp2I2_pBUIekmLpWZb-2" value="" style="endArrow=none;html=1;rounded=0;" parent="1" edge="1">
          <mxGeometry width="50" height="50" relative="1" as="geometry">
            <mxPoint x="740" y="400" as="sourcePoint" />
            <mxPoint x="740" y="400" as="targetPoint" />
          </mxGeometry>
        </mxCell>
        <mxCell id="dILlKJ6G5HGdAdBxG-Hz-1" value="&lt;font style=&quot;font-size: 15px&quot; face=&quot;Comic Sans MS&quot; color=&quot;#ffffff&quot;&gt;&lt;b&gt;U_0&lt;/b&gt;&lt;/font&gt;" style="text;html=1;strokeColor=none;fillColor=none;align=center;verticalAlign=middle;whiteSpace=wrap;rounded=0;" parent="1" vertex="1">
          <mxGeometry x="650" y="450" width="50" height="20" as="geometry" />
        </mxCell>
      </root>
    </mxGraphModel>
  </diagram>
  <diagram id="6fmScXEgpFgVwtbiZt1j" name="MIPS">
    <mxGraphModel dx="1433" dy="869" grid="0" gridSize="10" guides="1" tooltips="1" connect="1" arrows="1" fold="1" page="1" pageScale="1" pageWidth="850" pageHeight="1100" math="0" shadow="0">
      <root>
        <mxCell id="0" />
        <mxCell id="1" parent="0" />
        <mxCell id="gwqQHi22rHYAyRBVPSuH-4" value="" style="rounded=0;whiteSpace=wrap;html=1;fillColor=#fa6800;strokeColor=#C73500;sketch=1;curveFitting=1;jiggle=2;dashed=1;opacity=20;fontColor=#ffffff;" parent="1" vertex="1">
          <mxGeometry x="170" y="170" width="380" height="540" as="geometry" />
        </mxCell>
        <mxCell id="AqPIhu3kCKtWcwn4isRN-1" value="&lt;font style=&quot;font-size: 20px;&quot;&gt;&lt;b&gt;datapath one-cycle processor&lt;/b&gt;&lt;/font&gt;" style="rounded=0;whiteSpace=wrap;html=1;sketch=1;curveFitting=1;jiggle=2;fillColor=#e51400;fontColor=#ffffff;strokeColor=#B20000;strokeWidth=1;" parent="1" vertex="1">
          <mxGeometry x="190" y="510" width="330" height="160" as="geometry" />
        </mxCell>
        <mxCell id="AqPIhu3kCKtWcwn4isRN-2" value="&lt;font style=&quot;font-size: 20px;&quot;&gt;&lt;b&gt;controller one-cycle processor&lt;/b&gt;&lt;/font&gt;" style="rounded=0;whiteSpace=wrap;html=1;fillColor=#6a00ff;strokeColor=#3700CC;sketch=1;curveFitting=1;jiggle=2;fontColor=#ffffff;" parent="1" vertex="1">
          <mxGeometry x="200" y="200" width="320" height="120" as="geometry" />
        </mxCell>
        <mxCell id="7bLjixD9lAFj9dLWoMcb-17" value="" style="endArrow=none;html=1;rounded=0;sketch=1;curveFitting=1;jiggle=2;shadow=0;" parent="1" edge="1">
          <mxGeometry width="50" height="50" relative="1" as="geometry">
            <mxPoint x="209.43" y="510" as="sourcePoint" />
            <mxPoint x="209" y="470" as="targetPoint" />
          </mxGeometry>
        </mxCell>
        <mxCell id="7bLjixD9lAFj9dLWoMcb-18" value="" style="triangle;whiteSpace=wrap;html=1;sketch=1;curveFitting=1;jiggle=2;fillColor=none;rotation=90;" parent="1" vertex="1">
          <mxGeometry x="200" y="510" width="20" height="20" as="geometry" />
        </mxCell>
        <mxCell id="7bLjixD9lAFj9dLWoMcb-20" value="" style="endArrow=none;html=1;rounded=0;sketch=1;curveFitting=1;jiggle=2;shadow=0;strokeWidth=2;" parent="1" edge="1">
          <mxGeometry width="50" height="50" relative="1" as="geometry">
            <mxPoint x="200" y="240" as="sourcePoint" />
            <mxPoint x="50" y="240" as="targetPoint" />
          </mxGeometry>
        </mxCell>
        <mxCell id="_se8hDa1fNBHXLZY8zNs-1" value="opcode [31:26]" style="text;html=1;strokeColor=none;fillColor=none;align=center;verticalAlign=middle;whiteSpace=wrap;rounded=0;fontFamily=Comic Sans MS;fontSize=13;fontStyle=2;rotation=0;" parent="1" vertex="1">
          <mxGeometry x="40" y="220" width="130" height="20" as="geometry" />
        </mxCell>
        <mxCell id="_se8hDa1fNBHXLZY8zNs-2" value="" style="endArrow=oval;html=1;rounded=0;sketch=1;curveFitting=1;jiggle=2;shadow=0;startArrow=none;startFill=0;endFill=1;strokeWidth=2;" parent="1" edge="1">
          <mxGeometry width="50" height="50" relative="1" as="geometry">
            <mxPoint x="200" y="280" as="sourcePoint" />
            <mxPoint x="50" y="280" as="targetPoint" />
          </mxGeometry>
        </mxCell>
        <mxCell id="_se8hDa1fNBHXLZY8zNs-3" value="funct [5:0]" style="text;html=1;strokeColor=none;fillColor=none;align=center;verticalAlign=middle;whiteSpace=wrap;rounded=0;fontFamily=Comic Sans MS;fontSize=13;fontStyle=2;rotation=0;" parent="1" vertex="1">
          <mxGeometry x="60" y="260" width="90" height="20" as="geometry" />
        </mxCell>
        <mxCell id="_se8hDa1fNBHXLZY8zNs-4" value="" style="endArrow=none;html=1;rounded=0;strokeWidth=3;sketch=1;curveFitting=1;jiggle=2;" parent="1" edge="1">
          <mxGeometry width="50" height="50" relative="1" as="geometry">
            <mxPoint x="50" y="760" as="sourcePoint" />
            <mxPoint x="50" y="240" as="targetPoint" />
          </mxGeometry>
        </mxCell>
        <mxCell id="qUfTrRbguB8NrBbGIUej-1" value="" style="endArrow=none;html=1;rounded=0;sketch=1;curveFitting=1;jiggle=2;" parent="1" edge="1">
          <mxGeometry width="50" height="50" relative="1" as="geometry">
            <mxPoint x="240" y="510" as="sourcePoint" />
            <mxPoint x="240" y="320" as="targetPoint" />
          </mxGeometry>
        </mxCell>
        <mxCell id="qUfTrRbguB8NrBbGIUej-2" value="we_mem" style="text;html=1;strokeColor=none;fillColor=none;align=center;verticalAlign=middle;whiteSpace=wrap;rounded=0;fontFamily=Comic Sans MS;fontSize=13;fontStyle=2;rotation=90;" parent="1" vertex="1">
          <mxGeometry x="210" y="400" width="90" height="20" as="geometry" />
        </mxCell>
        <mxCell id="qUfTrRbguB8NrBbGIUej-3" value="" style="endArrow=none;html=1;rounded=0;sketch=1;curveFitting=1;jiggle=2;" parent="1" edge="1">
          <mxGeometry width="50" height="50" relative="1" as="geometry">
            <mxPoint x="270" y="510" as="sourcePoint" />
            <mxPoint x="270" y="320" as="targetPoint" />
          </mxGeometry>
        </mxCell>
        <mxCell id="qUfTrRbguB8NrBbGIUej-4" value="branch" style="text;html=1;strokeColor=none;fillColor=none;align=center;verticalAlign=middle;whiteSpace=wrap;rounded=0;fontFamily=Comic Sans MS;fontSize=13;fontStyle=2;rotation=90;" parent="1" vertex="1">
          <mxGeometry x="240" y="400" width="90" height="20" as="geometry" />
        </mxCell>
        <mxCell id="qUfTrRbguB8NrBbGIUej-5" value="" style="endArrow=none;html=1;rounded=0;sketch=1;curveFitting=1;jiggle=2;" parent="1" edge="1">
          <mxGeometry width="50" height="50" relative="1" as="geometry">
            <mxPoint x="300" y="510" as="sourcePoint" />
            <mxPoint x="300" y="320" as="targetPoint" />
          </mxGeometry>
        </mxCell>
        <mxCell id="qUfTrRbguB8NrBbGIUej-6" value="alu_src" style="text;html=1;strokeColor=none;fillColor=none;align=center;verticalAlign=middle;whiteSpace=wrap;rounded=0;fontFamily=Comic Sans MS;fontSize=13;fontStyle=2;rotation=90;" parent="1" vertex="1">
          <mxGeometry x="270" y="400" width="90" height="20" as="geometry" />
        </mxCell>
        <mxCell id="qUfTrRbguB8NrBbGIUej-7" value="" style="endArrow=none;html=1;rounded=0;sketch=1;curveFitting=1;jiggle=2;" parent="1" edge="1">
          <mxGeometry width="50" height="50" relative="1" as="geometry">
            <mxPoint x="330" y="510" as="sourcePoint" />
            <mxPoint x="330" y="320" as="targetPoint" />
          </mxGeometry>
        </mxCell>
        <mxCell id="qUfTrRbguB8NrBbGIUej-8" value="mem_to_reg" style="text;html=1;strokeColor=none;fillColor=none;align=center;verticalAlign=middle;whiteSpace=wrap;rounded=0;fontFamily=Comic Sans MS;fontSize=13;fontStyle=2;rotation=90;" parent="1" vertex="1">
          <mxGeometry x="300" y="400" width="90" height="20" as="geometry" />
        </mxCell>
        <mxCell id="qUfTrRbguB8NrBbGIUej-9" value="" style="endArrow=none;html=1;rounded=0;sketch=1;curveFitting=1;jiggle=2;" parent="1" edge="1">
          <mxGeometry width="50" height="50" relative="1" as="geometry">
            <mxPoint x="360" y="510" as="sourcePoint" />
            <mxPoint x="360" y="320" as="targetPoint" />
          </mxGeometry>
        </mxCell>
        <mxCell id="qUfTrRbguB8NrBbGIUej-10" value="we_regf" style="text;html=1;strokeColor=none;fillColor=none;align=center;verticalAlign=middle;whiteSpace=wrap;rounded=0;fontFamily=Comic Sans MS;fontSize=13;fontStyle=2;rotation=90;" parent="1" vertex="1">
          <mxGeometry x="330" y="400" width="90" height="20" as="geometry" />
        </mxCell>
        <mxCell id="qUfTrRbguB8NrBbGIUej-11" value="" style="endArrow=none;html=1;rounded=0;sketch=1;curveFitting=1;jiggle=2;" parent="1" edge="1">
          <mxGeometry width="50" height="50" relative="1" as="geometry">
            <mxPoint x="480" y="470" as="sourcePoint" />
            <mxPoint x="480" y="320" as="targetPoint" />
          </mxGeometry>
        </mxCell>
        <mxCell id="qUfTrRbguB8NrBbGIUej-12" value="we_mem" style="text;html=1;strokeColor=none;fillColor=none;align=center;verticalAlign=middle;whiteSpace=wrap;rounded=0;fontFamily=Comic Sans MS;fontSize=13;fontStyle=2;rotation=90;" parent="1" vertex="1">
          <mxGeometry x="450" y="400" width="90" height="20" as="geometry" />
        </mxCell>
        <mxCell id="CN4pUVbRo2_K-RsPYu0l-1" value="clk" style="text;html=1;strokeColor=none;fillColor=none;align=center;verticalAlign=middle;whiteSpace=wrap;rounded=0;fontFamily=Comic Sans MS;fontSize=13;fontStyle=2;rotation=0;" parent="1" vertex="1">
          <mxGeometry x="210" y="470" width="20" height="20" as="geometry" />
        </mxCell>
        <mxCell id="iodEITjQXzz6xqnYzl_4-1" value="&lt;font style=&quot;font-size: 15px&quot; face=&quot;Comic Sans MS&quot; color=&quot;#ffffff&quot;&gt;&lt;b&gt;U_0&lt;/b&gt;&lt;/font&gt;" style="text;html=1;strokeColor=none;fillColor=none;align=center;verticalAlign=middle;whiteSpace=wrap;rounded=0;" parent="1" vertex="1">
          <mxGeometry x="480" y="330" width="50" height="20" as="geometry" />
        </mxCell>
        <mxCell id="iodEITjQXzz6xqnYzl_4-2" value="&lt;font style=&quot;font-size: 15px&quot; face=&quot;Comic Sans MS&quot; color=&quot;#ffffff&quot;&gt;&lt;b&gt;U_1&lt;/b&gt;&lt;/font&gt;" style="text;html=1;strokeColor=none;fillColor=none;align=center;verticalAlign=middle;whiteSpace=wrap;rounded=0;" parent="1" vertex="1">
          <mxGeometry x="335" y="680" width="50" height="20" as="geometry" />
        </mxCell>
        <mxCell id="iodEITjQXzz6xqnYzl_4-4" value="" style="endArrow=none;html=1;rounded=0;sketch=1;curveFitting=1;jiggle=2;" parent="1" edge="1">
          <mxGeometry width="50" height="50" relative="1" as="geometry">
            <mxPoint x="390" y="510" as="sourcePoint" />
            <mxPoint x="390" y="320" as="targetPoint" />
          </mxGeometry>
        </mxCell>
        <mxCell id="iodEITjQXzz6xqnYzl_4-5" value="reg_dst" style="text;html=1;strokeColor=none;fillColor=none;align=center;verticalAlign=middle;whiteSpace=wrap;rounded=0;fontFamily=Comic Sans MS;fontSize=13;fontStyle=2;rotation=90;" parent="1" vertex="1">
          <mxGeometry x="360" y="400" width="90" height="20" as="geometry" />
        </mxCell>
        <mxCell id="iodEITjQXzz6xqnYzl_4-6" value="" style="endArrow=none;html=1;rounded=0;sketch=1;curveFitting=1;jiggle=2;" parent="1" edge="1">
          <mxGeometry width="50" height="50" relative="1" as="geometry">
            <mxPoint x="420" y="510" as="sourcePoint" />
            <mxPoint x="420" y="320" as="targetPoint" />
          </mxGeometry>
        </mxCell>
        <mxCell id="iodEITjQXzz6xqnYzl_4-7" value="jump" style="text;html=1;strokeColor=none;fillColor=none;align=center;verticalAlign=middle;whiteSpace=wrap;rounded=0;fontFamily=Comic Sans MS;fontSize=13;fontStyle=2;rotation=90;" parent="1" vertex="1">
          <mxGeometry x="390" y="400" width="90" height="20" as="geometry" />
        </mxCell>
        <mxCell id="iodEITjQXzz6xqnYzl_4-8" value="" style="endArrow=none;html=1;rounded=0;sketch=1;curveFitting=1;jiggle=2;" parent="1" edge="1">
          <mxGeometry width="50" height="50" relative="1" as="geometry">
            <mxPoint x="450" y="510" as="sourcePoint" />
            <mxPoint x="450" y="320" as="targetPoint" />
          </mxGeometry>
        </mxCell>
        <mxCell id="iodEITjQXzz6xqnYzl_4-9" value="alu_cntrl [2:0]" style="text;html=1;strokeColor=none;fillColor=none;align=center;verticalAlign=middle;whiteSpace=wrap;rounded=0;fontFamily=Comic Sans MS;fontSize=13;fontStyle=2;rotation=90;" parent="1" vertex="1">
          <mxGeometry x="420" y="400" width="90" height="20" as="geometry" />
        </mxCell>
        <mxCell id="iodEITjQXzz6xqnYzl_4-10" value="" style="endArrow=none;html=1;rounded=0;entryX=0;entryY=0.5;entryDx=0;entryDy=0;strokeWidth=3;sketch=1;curveFitting=1;jiggle=2;endFill=0;startArrow=oval;startFill=1;" parent="1" target="AqPIhu3kCKtWcwn4isRN-1" edge="1">
          <mxGeometry width="50" height="50" relative="1" as="geometry">
            <mxPoint x="50" y="590" as="sourcePoint" />
            <mxPoint x="140" y="540" as="targetPoint" />
          </mxGeometry>
        </mxCell>
        <mxCell id="iodEITjQXzz6xqnYzl_4-11" value="instr [31:0]" style="text;html=1;strokeColor=none;fillColor=none;align=center;verticalAlign=middle;whiteSpace=wrap;rounded=0;fontFamily=Comic Sans MS;fontSize=13;fontStyle=2;rotation=0;" parent="1" vertex="1">
          <mxGeometry x="80" y="570" width="90" height="20" as="geometry" />
        </mxCell>
        <mxCell id="iodEITjQXzz6xqnYzl_4-12" value="" style="endArrow=none;html=1;rounded=0;strokeWidth=3;sketch=1;curveFitting=1;jiggle=2;endFill=0;startArrow=none;startFill=0;" parent="1" edge="1">
          <mxGeometry width="50" height="50" relative="1" as="geometry">
            <mxPoint x="50" y="760" as="sourcePoint" />
            <mxPoint x="680" y="760" as="targetPoint" />
          </mxGeometry>
        </mxCell>
        <mxCell id="iodEITjQXzz6xqnYzl_4-13" value="" style="endArrow=none;html=1;rounded=0;strokeWidth=3;sketch=1;curveFitting=1;jiggle=2;endFill=0;startArrow=none;startFill=0;" parent="1" edge="1">
          <mxGeometry width="50" height="50" relative="1" as="geometry">
            <mxPoint x="120" y="730" as="sourcePoint" />
            <mxPoint x="680" y="730" as="targetPoint" />
          </mxGeometry>
        </mxCell>
        <mxCell id="iodEITjQXzz6xqnYzl_4-14" value="" style="endArrow=none;html=1;rounded=0;entryX=0.004;entryY=0.807;entryDx=0;entryDy=0;entryPerimeter=0;sketch=1;curveFitting=1;jiggle=2;strokeWidth=3;" parent="1" target="AqPIhu3kCKtWcwn4isRN-1" edge="1">
          <mxGeometry width="50" height="50" relative="1" as="geometry">
            <mxPoint x="120" y="730" as="sourcePoint" />
            <mxPoint x="120" y="640" as="targetPoint" />
            <Array as="points">
              <mxPoint x="120" y="639" />
            </Array>
          </mxGeometry>
        </mxCell>
        <mxCell id="iodEITjQXzz6xqnYzl_4-15" value="" style="endArrow=none;html=1;rounded=0;strokeWidth=3;sketch=1;curveFitting=1;jiggle=2;endFill=0;startArrow=none;startFill=0;" parent="1" edge="1">
          <mxGeometry width="50" height="50" relative="1" as="geometry">
            <mxPoint x="520" y="560" as="sourcePoint" />
            <mxPoint x="680" y="560" as="targetPoint" />
          </mxGeometry>
        </mxCell>
        <mxCell id="iodEITjQXzz6xqnYzl_4-16" value="" style="endArrow=none;html=1;rounded=0;strokeWidth=3;sketch=1;curveFitting=1;jiggle=2;endFill=0;startArrow=none;startFill=0;" parent="1" edge="1">
          <mxGeometry width="50" height="50" relative="1" as="geometry">
            <mxPoint x="520" y="600" as="sourcePoint" />
            <mxPoint x="680" y="600" as="targetPoint" />
          </mxGeometry>
        </mxCell>
        <mxCell id="iodEITjQXzz6xqnYzl_4-18" value="" style="endArrow=none;html=1;rounded=0;strokeWidth=3;sketch=1;curveFitting=1;jiggle=2;endFill=0;startArrow=none;startFill=0;" parent="1" edge="1">
          <mxGeometry width="50" height="50" relative="1" as="geometry">
            <mxPoint x="520" y="640" as="sourcePoint" />
            <mxPoint x="680" y="640" as="targetPoint" />
          </mxGeometry>
        </mxCell>
        <mxCell id="iodEITjQXzz6xqnYzl_4-19" value="instr [31:0]" style="text;html=1;strokeColor=none;fillColor=none;align=center;verticalAlign=middle;whiteSpace=wrap;rounded=0;fontFamily=Comic Sans MS;fontSize=13;fontStyle=2;rotation=0;" parent="1" vertex="1">
          <mxGeometry x="590" y="740" width="90" height="20" as="geometry" />
        </mxCell>
        <mxCell id="iodEITjQXzz6xqnYzl_4-20" value="crnt_addr [31:0]" style="text;html=1;strokeColor=none;fillColor=none;align=center;verticalAlign=middle;whiteSpace=wrap;rounded=0;fontFamily=Comic Sans MS;fontSize=13;fontStyle=2;rotation=0;" parent="1" vertex="1">
          <mxGeometry x="560" y="540" width="120" height="20" as="geometry" />
        </mxCell>
        <mxCell id="iodEITjQXzz6xqnYzl_4-21" value="wr_mem_data [31:0]" style="text;html=1;strokeColor=none;fillColor=none;align=center;verticalAlign=middle;whiteSpace=wrap;rounded=0;fontFamily=Comic Sans MS;fontSize=13;fontStyle=2;rotation=0;" parent="1" vertex="1">
          <mxGeometry x="550" y="620" width="130" height="20" as="geometry" />
        </mxCell>
        <mxCell id="iodEITjQXzz6xqnYzl_4-22" value="addr_mem [31:0]" style="text;html=1;strokeColor=none;fillColor=none;align=center;verticalAlign=middle;whiteSpace=wrap;rounded=0;fontFamily=Comic Sans MS;fontSize=13;fontStyle=2;rotation=0;" parent="1" vertex="1">
          <mxGeometry x="570" y="580" width="110" height="20" as="geometry" />
        </mxCell>
        <mxCell id="iodEITjQXzz6xqnYzl_4-23" value="&lt;font face=&quot;Comic Sans MS&quot; style=&quot;font-size: 14px;&quot;&gt;&lt;i&gt;connect to memory command&lt;/i&gt;&lt;/font&gt;" style="text;html=1;strokeColor=none;fillColor=none;align=center;verticalAlign=middle;whiteSpace=wrap;rounded=0;" parent="1" vertex="1">
          <mxGeometry x="690" y="740" width="190" height="40" as="geometry" />
        </mxCell>
        <mxCell id="iodEITjQXzz6xqnYzl_4-24" value="&lt;font face=&quot;Comic Sans MS&quot; style=&quot;font-size: 14px;&quot;&gt;&lt;i&gt;connect to memory command&lt;/i&gt;&lt;/font&gt;" style="text;html=1;strokeColor=none;fillColor=none;align=center;verticalAlign=middle;whiteSpace=wrap;rounded=0;" parent="1" vertex="1">
          <mxGeometry x="690" y="540" width="190" height="40" as="geometry" />
        </mxCell>
        <mxCell id="iodEITjQXzz6xqnYzl_4-25" value="mem_data [31:0]" style="text;html=1;strokeColor=none;fillColor=none;align=center;verticalAlign=middle;whiteSpace=wrap;rounded=0;fontFamily=Comic Sans MS;fontSize=13;fontStyle=2;rotation=0;" parent="1" vertex="1">
          <mxGeometry x="570" y="710" width="110" height="20" as="geometry" />
        </mxCell>
        <mxCell id="gwqQHi22rHYAyRBVPSuH-1" value="&lt;font face=&quot;Comic Sans MS&quot; style=&quot;font-size: 14px;&quot;&gt;&lt;i&gt;connect to memory data&lt;/i&gt;&lt;/font&gt;" style="text;html=1;strokeColor=none;fillColor=none;align=center;verticalAlign=middle;whiteSpace=wrap;rounded=0;" parent="1" vertex="1">
          <mxGeometry x="690" y="710" width="190" height="40" as="geometry" />
        </mxCell>
        <mxCell id="gwqQHi22rHYAyRBVPSuH-2" value="&lt;font face=&quot;Comic Sans MS&quot; style=&quot;font-size: 14px;&quot;&gt;&lt;i&gt;connect to memory data&lt;/i&gt;&lt;/font&gt;" style="text;html=1;strokeColor=none;fillColor=none;align=center;verticalAlign=middle;whiteSpace=wrap;rounded=0;" parent="1" vertex="1">
          <mxGeometry x="690" y="620" width="190" height="40" as="geometry" />
        </mxCell>
        <mxCell id="gwqQHi22rHYAyRBVPSuH-3" value="&lt;font face=&quot;Comic Sans MS&quot; style=&quot;font-size: 14px;&quot;&gt;&lt;i&gt;connect to memory data&lt;/i&gt;&lt;/font&gt;" style="text;html=1;strokeColor=none;fillColor=none;align=center;verticalAlign=middle;whiteSpace=wrap;rounded=0;" parent="1" vertex="1">
          <mxGeometry x="690" y="580" width="190" height="40" as="geometry" />
        </mxCell>
        <mxCell id="pR3mzi5gsPlY9KQ5hPbc-1" value="&lt;font size=&quot;1&quot; face=&quot;Comic Sans MS&quot;&gt;&lt;b style=&quot;&quot;&gt;&lt;i style=&quot;&quot;&gt;&lt;u style=&quot;font-size: 29px;&quot;&gt;One-cycle processor&lt;/u&gt;&lt;/i&gt;&lt;/b&gt;&lt;/font&gt;" style="text;html=1;strokeColor=none;fillColor=none;align=center;verticalAlign=middle;whiteSpace=wrap;rounded=0;" parent="1" vertex="1">
          <mxGeometry x="70" y="120" width="570" height="30" as="geometry" />
        </mxCell>
        <mxCell id="FdV3VtZAvPCfTJ_afT-M-1" value="" style="endArrow=none;html=1;rounded=0;sketch=1;curveFitting=1;jiggle=2;" parent="1" edge="1">
          <mxGeometry width="50" height="50" relative="1" as="geometry">
            <mxPoint x="480" y="470" as="sourcePoint" />
            <mxPoint x="680" y="470" as="targetPoint" />
          </mxGeometry>
        </mxCell>
        <mxCell id="FdV3VtZAvPCfTJ_afT-M-2" value="we_mem" style="text;html=1;strokeColor=none;fillColor=none;align=center;verticalAlign=middle;whiteSpace=wrap;rounded=0;fontFamily=Comic Sans MS;fontSize=13;fontStyle=2;rotation=0;" parent="1" vertex="1">
          <mxGeometry x="580" y="450" width="100" height="20" as="geometry" />
        </mxCell>
        <mxCell id="FdV3VtZAvPCfTJ_afT-M-3" value="&lt;font face=&quot;Comic Sans MS&quot; style=&quot;font-size: 14px;&quot;&gt;&lt;i&gt;connect to memory data&lt;/i&gt;&lt;/font&gt;" style="text;html=1;strokeColor=none;fillColor=none;align=center;verticalAlign=middle;whiteSpace=wrap;rounded=0;" parent="1" vertex="1">
          <mxGeometry x="680" y="450" width="190" height="40" as="geometry" />
        </mxCell>
      </root>
    </mxGraphModel>
  </diagram>
  <diagram id="i2Ou0SNnbC992dTKWtJ7" name="FSM diagrammcontroller">
    <mxGraphModel dx="1433" dy="869" grid="1" gridSize="10" guides="1" tooltips="1" connect="1" arrows="1" fold="1" page="1" pageScale="1" pageWidth="850" pageHeight="1100" math="0" shadow="0">
      <root>
        <mxCell id="0" />
        <mxCell id="1" parent="0" />
      </root>
    </mxGraphModel>
  </diagram>
  <diagram id="NyEUBLjz6VHwGKKYtYt1" name="memory map">
    <mxGraphModel dx="1434" dy="870" grid="1" gridSize="10" guides="1" tooltips="1" connect="1" arrows="1" fold="1" page="1" pageScale="1" pageWidth="850" pageHeight="1100" math="0" shadow="0">
      <root>
        <mxCell id="0" />
        <mxCell id="1" parent="0" />
        <mxCell id="bK-ukl34oa51jAHOrm6K-2" value="" style="rounded=0;whiteSpace=wrap;html=1;fillColor=#fa6800;fontColor=#000000;strokeColor=#C73500;glass=0;sketch=1;curveFitting=1;jiggle=2;shadow=0;opacity=50;" vertex="1" parent="1">
          <mxGeometry x="200" y="200" width="200" height="120" as="geometry" />
        </mxCell>
        <mxCell id="bK-ukl34oa51jAHOrm6K-4" value="" style="rounded=0;whiteSpace=wrap;html=1;fillColor=#e3c800;fontColor=#000000;strokeColor=#B09500;sketch=1;curveFitting=1;jiggle=2;opacity=70;" vertex="1" parent="1">
          <mxGeometry x="200" y="320" width="200" height="120" as="geometry" />
        </mxCell>
        <mxCell id="vGfjjJD3fy7hj-1uT2OZ-1" value="&lt;font size=&quot;1&quot; face=&quot;Comic Sans MS&quot;&gt;&lt;i style=&quot;font-size: 15px;&quot;&gt;0x0000_1900&lt;/i&gt;&lt;/font&gt;" style="text;html=1;strokeColor=none;fillColor=none;align=center;verticalAlign=middle;whiteSpace=wrap;rounded=0;" vertex="1" parent="1">
          <mxGeometry x="400" y="300" width="120" height="20" as="geometry" />
        </mxCell>
        <mxCell id="vGfjjJD3fy7hj-1uT2OZ-3" value="&lt;font size=&quot;1&quot; face=&quot;Comic Sans MS&quot;&gt;&lt;i style=&quot;font-size: 15px;&quot;&gt;0x0000_1920&lt;/i&gt;&lt;/font&gt;" style="text;html=1;strokeColor=none;fillColor=none;align=center;verticalAlign=middle;whiteSpace=wrap;rounded=0;" vertex="1" parent="1">
          <mxGeometry x="400" y="320" width="120" height="20" as="geometry" />
        </mxCell>
        <mxCell id="vGfjjJD3fy7hj-1uT2OZ-4" value="&lt;font size=&quot;1&quot; face=&quot;Comic Sans MS&quot;&gt;&lt;i style=&quot;font-size: 15px;&quot;&gt;0x0000_3220&lt;/i&gt;&lt;/font&gt;" style="text;html=1;strokeColor=none;fillColor=none;align=center;verticalAlign=middle;whiteSpace=wrap;rounded=0;" vertex="1" parent="1">
          <mxGeometry x="400" y="420" width="120" height="20" as="geometry" />
        </mxCell>
        <mxCell id="vGfjjJD3fy7hj-1uT2OZ-5" value="&lt;font size=&quot;1&quot; face=&quot;Comic Sans MS&quot;&gt;&lt;i style=&quot;font-size: 15px;&quot;&gt;0x0000_0000&lt;/i&gt;&lt;/font&gt;" style="text;html=1;strokeColor=none;fillColor=none;align=center;verticalAlign=middle;whiteSpace=wrap;rounded=0;" vertex="1" parent="1">
          <mxGeometry x="400" y="200" width="120" height="20" as="geometry" />
        </mxCell>
        <mxCell id="vGfjjJD3fy7hj-1uT2OZ-6" value="&lt;font size=&quot;1&quot; face=&quot;Comic Sans MS&quot;&gt;&lt;i style=&quot;font-size: 15px;&quot;&gt;TEXT&lt;br&gt;SEGMENT&lt;/i&gt;&lt;/font&gt;" style="text;html=1;strokeColor=none;fillColor=none;align=center;verticalAlign=middle;whiteSpace=wrap;rounded=0;" vertex="1" parent="1">
          <mxGeometry x="240" y="250" width="120" height="20" as="geometry" />
        </mxCell>
        <mxCell id="vGfjjJD3fy7hj-1uT2OZ-7" value="&lt;font size=&quot;1&quot; face=&quot;Comic Sans MS&quot;&gt;&lt;i style=&quot;font-size: 15px;&quot;&gt;DYNAMIC&lt;br&gt;DATA SEGMENT&lt;br&gt;&lt;/i&gt;&lt;/font&gt;" style="text;html=1;strokeColor=none;fillColor=none;align=center;verticalAlign=middle;whiteSpace=wrap;rounded=0;" vertex="1" parent="1">
          <mxGeometry x="240" y="370" width="120" height="20" as="geometry" />
        </mxCell>
        <mxCell id="E6TtOE_FNjwL56RZyJ4e-2" value="&lt;font size=&quot;1&quot; face=&quot;Comic Sans MS&quot;&gt;&lt;i style=&quot;font-size: 15px;&quot;&gt;name segment&lt;/i&gt;&lt;/font&gt;" style="text;html=1;strokeColor=none;fillColor=none;align=center;verticalAlign=middle;whiteSpace=wrap;rounded=0;" vertex="1" parent="1">
          <mxGeometry x="240" y="150" width="120" height="20" as="geometry" />
        </mxCell>
        <mxCell id="E6TtOE_FNjwL56RZyJ4e-3" value="&lt;font size=&quot;1&quot; face=&quot;Comic Sans MS&quot;&gt;&lt;i style=&quot;font-size: 15px;&quot;&gt;address&lt;/i&gt;&lt;/font&gt;" style="text;html=1;strokeColor=none;fillColor=none;align=center;verticalAlign=middle;whiteSpace=wrap;rounded=0;" vertex="1" parent="1">
          <mxGeometry x="400" y="150" width="120" height="20" as="geometry" />
        </mxCell>
      </root>
    </mxGraphModel>
  </diagram>
</mxfile>
